STARTFONT 2.1
COMMENT $XFree86$
COMMENT ISO10646-1 extension by Markus Kuhn <mkuhn@acm.org>, 2001-03-20
COMMENT  (c) Copyright Bigelow & Holmes 1986, 1985. Lucida is a registered
COMMENT  trademark of Bigelow & Holmes. See LEGAL NOTICE file for terms 
COMMENT  of the license. 
FONT -B&H-Lucida-Medium-R-Normal-Sans-19-190-75-75-P-108-ISO10646-1
SIZE 19 72 72
FONTBOUNDINGBOX 32 30 -13 -8
STARTPROPERTIES 22
COMMENT Begin LogicalFontDescription
FONTNAME_REGISTRY ""
FOUNDRY "B&H"
FAMILY_NAME "Lucida"
WEIGHT_NAME "Medium"
SLANT "R"
SETWIDTH_NAME "Normal"
ADD_STYLE_NAME "Sans"
PIXEL_SIZE 19
POINT_SIZE 190
RESOLUTION_X 75
RESOLUTION_Y 75
SPACING "P"
AVERAGE_WIDTH 108
CHARSET_REGISTRY "ISO10646"
CHARSET_ENCODING "1"
COMMENT END LogicalFontDescription
COPYRIGHT "Copyright Bigelow & Holmes 1986, 1985."
FONT_ASCENT 17
FONT_DESCENT 4
DEFAULT_CHAR 0
FACE_NAME "Lucida Sans"
X_HEIGHT 10
CAP_HEIGHT 14
ENDPROPERTIES
CHARS 756
STARTCHAR char0
ENCODING 0
SWIDTH 735 0
DWIDTH 14 0
BBX 9 13 2 0
BITMAP
AA80
0000
8080
0000
8080
0000
8080
0000
8080
0000
8080
0000
AA80
ENDCHAR
STARTCHAR space
ENCODING 32
SWIDTH 316 0
DWIDTH 6 0
BBX 1 1 0 0
BITMAP
00
ENDCHAR
STARTCHAR exclam
ENCODING 33
SWIDTH 205 0
DWIDTH 6 0
BBX 2 14 2 0
BITMAP
C0
C0
C0
C0
C0
C0
C0
C0
C0
C0
00
00
C0
C0
ENDCHAR
STARTCHAR quotedbl
ENCODING 34
SWIDTH 373 0
DWIDTH 7 0
BBX 5 5 1 9
BITMAP
D8
D8
D8
D8
D8
ENDCHAR
STARTCHAR numbersign
ENCODING 35
SWIDTH 633 0
DWIDTH 12 0
BBX 12 14 0 0
BITMAP
06E0
0EC0
0CC0
0CC0
7FF0
7FF0
1980
1980
1980
FFE0
FFE0
3300
3300
7600
ENDCHAR
STARTCHAR dollar
ENCODING 36
SWIDTH 633 0
DWIDTH 12 0
BBX 8 17 2 -2
BITMAP
18
7F
FD
D8
D8
D8
78
38
1C
1E
1B
1B
1B
FF
7E
1C
18
ENDCHAR
STARTCHAR percent
ENCODING 37
SWIDTH 669 0
DWIDTH 13 0
BBX 13 14 0 0
BITMAP
7838
FC30
CC60
CCE0
FDC0
7B80
03F0
06F0
0F98
1D98
3998
3198
60F0
E0F0
ENDCHAR
STARTCHAR ampersand
ENCODING 38
SWIDTH 697 0
DWIDTH 13 0
BBX 11 14 1 0
BITMAP
1E00
3F00
3300
3300
3700
3E00
7800
EC60
CE60
C760
C3C0
E380
7F80
3CE0
ENDCHAR
STARTCHAR quotesingle
ENCODING 39
SWIDTH 229 0
DWIDTH 4 0
BBX 2 5 1 9
BITMAP
C0
C0
C0
C0
C0
ENDCHAR
STARTCHAR parenleft
ENCODING 40
SWIDTH 325 0
DWIDTH 6 0
BBX 5 18 1 -4
BITMAP
08
18
30
20
60
40
C0
C0
C0
C0
C0
C0
40
60
60
30
18
08
ENDCHAR
STARTCHAR parenright
ENCODING 41
SWIDTH 325 0
DWIDTH 6 0
BBX 5 18 0 -4
BITMAP
80
C0
60
20
30
10
18
18
18
18
18
18
10
30
30
60
C0
80
ENDCHAR
STARTCHAR asterisk
ENCODING 42
SWIDTH 482 0
DWIDTH 9 0
BBX 7 7 1 7
BITMAP
10
10
D6
6C
28
28
44
ENDCHAR
STARTCHAR plus
ENCODING 43
SWIDTH 633 0
DWIDTH 12 0
BBX 12 12 0 0
BITMAP
0600
0600
0600
0600
0600
FFF0
FFF0
0600
0600
0600
0600
0600
ENDCHAR
STARTCHAR comma
ENCODING 44
SWIDTH 316 0
DWIDTH 6 0
BBX 3 7 2 -4
BITMAP
E0
E0
E0
60
60
60
C0
ENDCHAR
STARTCHAR hyphen
ENCODING 45
SWIDTH 325 0
DWIDTH 6 0
BBX 4 2 1 5
BITMAP
F0
F0
ENDCHAR
STARTCHAR period
ENCODING 46
SWIDTH 316 0
DWIDTH 6 0
BBX 2 2 2 0
BITMAP
C0
C0
ENDCHAR
STARTCHAR slash
ENCODING 47
SWIDTH 494 0
DWIDTH 9 0
BBX 9 18 0 -4
BITMAP
0180
0180
0300
0300
0600
0600
0E00
0C00
0C00
1800
1800
3800
3000
3000
6000
6000
C000
C000
ENDCHAR
STARTCHAR zero
ENCODING 48
SWIDTH 633 0
DWIDTH 12 0
BBX 10 14 1 0
BITMAP
1E00
3F00
7380
6180
C0C0
C0C0
C0C0
C0C0
C0C0
C0C0
6180
7380
3F00
1E00
ENDCHAR
STARTCHAR one
ENCODING 49
SWIDTH 633 0
DWIDTH 12 0
BBX 4 14 3 0
BITMAP
F0
F0
30
30
30
30
30
30
30
30
30
30
30
30
ENDCHAR
STARTCHAR two
ENCODING 50
SWIDTH 633 0
DWIDTH 12 0
BBX 8 14 2 0
BITMAP
7C
FE
87
03
03
03
06
0E
38
30
60
C0
FF
FF
ENDCHAR
STARTCHAR three
ENCODING 51
SWIDTH 633 0
DWIDTH 12 0
BBX 8 14 2 0
BITMAP
7C
FE
87
03
03
06
78
7E
07
03
03
87
FE
FC
ENDCHAR
STARTCHAR four
ENCODING 52
SWIDTH 633 0
DWIDTH 12 0
BBX 10 14 1 0
BITMAP
0700
0700
0F00
1F00
3B00
3300
6300
E300
FFC0
FFC0
0300
0300
0300
0300
ENDCHAR
STARTCHAR five
ENCODING 53
SWIDTH 633 0
DWIDTH 12 0
BBX 7 14 3 0
BITMAP
FE
FE
C0
C0
C0
F8
FC
0E
06
06
06
8E
FC
F8
ENDCHAR
STARTCHAR six
ENCODING 54
SWIDTH 633 0
DWIDTH 12 0
BBX 9 14 1 0
BITMAP
1F00
3F00
7100
6000
C000
DE00
FF00
E380
C180
C180
4180
6300
3F00
1E00
ENDCHAR
STARTCHAR seven
ENCODING 55
SWIDTH 633 0
DWIDTH 12 0
BBX 9 14 2 0
BITMAP
FF80
FF80
0380
0300
0700
0600
0C00
1C00
1800
3800
3000
7000
6000
6000
ENDCHAR
STARTCHAR eight
ENCODING 56
SWIDTH 633 0
DWIDTH 12 0
BBX 9 14 2 0
BITMAP
1E00
3F80
7380
6180
6180
3200
3C00
7F00
E380
C180
C180
E380
7F00
3E00
ENDCHAR
STARTCHAR nine
ENCODING 57
SWIDTH 633 0
DWIDTH 12 0
BBX 9 14 2 0
BITMAP
3C00
7F00
E300
C180
C180
C180
E380
7D80
3D80
0180
0300
4700
7E00
7C00
ENDCHAR
STARTCHAR colon
ENCODING 58
SWIDTH 316 0
DWIDTH 6 0
BBX 2 10 2 0
BITMAP
C0
C0
00
00
00
00
00
00
C0
C0
ENDCHAR
STARTCHAR semicolon
ENCODING 59
SWIDTH 316 0
DWIDTH 6 0
BBX 2 14 2 -4
BITMAP
C0
C0
00
00
00
00
00
00
C0
C0
C0
C0
C0
80
ENDCHAR
STARTCHAR less
ENCODING 60
SWIDTH 633 0
DWIDTH 12 0
BBX 12 12 2 0
BITMAP
0010
0070
01E0
0780
1E00
FC00
7C00
1E00
0780
01E0
0070
0010
ENDCHAR
STARTCHAR equal
ENCODING 61
SWIDTH 633 0
DWIDTH 12 0
BBX 11 5 1 3
BITMAP
FFE0
FFE0
0000
FFE0
FFE0
ENDCHAR
STARTCHAR greater
ENCODING 62
SWIDTH 633 0
DWIDTH 12 0
BBX 12 12 1 0
BITMAP
8000
E000
7800
1E00
0780
03E0
03F0
0780
1E00
7800
E000
8000
ENDCHAR
STARTCHAR question
ENCODING 63
SWIDTH 422 0
DWIDTH 8 0
BBX 7 14 0 0
BITMAP
78
FC
8E
06
06
0C
1C
38
30
30
30
00
30
30
ENDCHAR
STARTCHAR at
ENCODING 64
SWIDTH 858 0
DWIDTH 16 0
BBX 15 14 2 0
BITMAP
03E0
0FF8
1C1C
31EE
63C6
6646
CC86
CD86
CDEC
CE7C
EC78
7040
3FC0
0F80
ENDCHAR
STARTCHAR A
ENCODING 65
SWIDTH 690 0
DWIDTH 13 0
BBX 13 14 0 0
BITMAP
0700
0700
0F80
0D80
0D80
18C0
18C0
30E0
3FE0
3FE0
6030
6030
E030
C018
ENDCHAR
STARTCHAR B
ENCODING 66
SWIDTH 575 0
DWIDTH 11 0
BBX 8 14 2 0
BITMAP
FC
FE
C3
C3
C3
C6
F8
FC
C7
C3
C3
C3
FE
FC
ENDCHAR
STARTCHAR C
ENCODING 67
SWIDTH 692 0
DWIDTH 13 0
BBX 11 14 1 0
BITMAP
0FC0
3FE0
7020
6000
E000
C000
C000
C000
C000
C000
6000
7020
3FE0
0FC0
ENDCHAR
STARTCHAR D
ENCODING 68
SWIDTH 749 0
DWIDTH 14 0
BBX 11 14 2 0
BITMAP
FE00
FF80
C1C0
C0C0
C060
C060
C060
C060
C060
C060
C0C0
C1C0
FF80
FE00
ENDCHAR
STARTCHAR E
ENCODING 69
SWIDTH 542 0
DWIDTH 10 0
BBX 8 14 2 0
BITMAP
FF
FF
C0
C0
C0
C0
FE
FE
C0
C0
C0
C0
FF
FF
ENDCHAR
STARTCHAR F
ENCODING 70
SWIDTH 536 0
DWIDTH 10 0
BBX 8 14 2 0
BITMAP
FF
FF
C0
C0
C0
C0
FE
FE
C0
C0
C0
C0
C0
C0
ENDCHAR
STARTCHAR G
ENCODING 71
SWIDTH 723 0
DWIDTH 14 0
BBX 11 14 1 0
BITMAP
0FC0
3FE0
7020
6000
E000
C000
C000
C060
C060
C060
6060
7060
3FE0
0FC0
ENDCHAR
STARTCHAR H
ENCODING 72
SWIDTH 735 0
DWIDTH 14 0
BBX 10 14 2 0
BITMAP
C0C0
C0C0
C0C0
C0C0
C0C0
C0C0
FFC0
FFC0
C0C0
C0C0
C0C0
C0C0
C0C0
C0C0
ENDCHAR
STARTCHAR I
ENCODING 73
SWIDTH 288 0
DWIDTH 5 0
BBX 2 14 2 0
BITMAP
C0
C0
C0
C0
C0
C0
C0
C0
C0
C0
C0
C0
C0
C0
ENDCHAR
STARTCHAR J
ENCODING 74
SWIDTH 311 0
DWIDTH 6 0
BBX 6 18 -1 -4
BITMAP
0C
0C
0C
0C
0C
0C
0C
0C
0C
0C
0C
0C
0C
0C
0C
0C
F8
F0
ENDCHAR
STARTCHAR K
ENCODING 75
SWIDTH 653 0
DWIDTH 12 0
BBX 10 14 2 0
BITMAP
C180
C300
C700
CE00
CC00
D800
F800
F800
DC00
CC00
C600
C300
C380
C1C0
ENDCHAR
STARTCHAR L
ENCODING 76
SWIDTH 533 0
DWIDTH 10 0
BBX 8 14 2 0
BITMAP
C0
C0
C0
C0
C0
C0
C0
C0
C0
C0
C0
C0
FF
FF
ENDCHAR
STARTCHAR M
ENCODING 77
SWIDTH 861 0
DWIDTH 16 0
BBX 13 14 2 0
BITMAP
E038
E038
F078
F078
F878
D8D8
D8D8
DCD8
CD98
CD98
CF98
C718
C718
C018
ENDCHAR
STARTCHAR N
ENCODING 78
SWIDTH 741 0
DWIDTH 14 0
BBX 10 14 2 0
BITMAP
C0C0
E0C0
F0C0
F0C0
F8C0
D8C0
CCC0
CCC0
C6C0
C7C0
C3C0
C3C0
C1C0
C0C0
ENDCHAR
STARTCHAR O
ENCODING 79
SWIDTH 777 0
DWIDTH 15 0
BBX 13 14 1 0
BITMAP
0F80
3FE0
7070
6030
E038
C018
C018
C018
C018
E038
6030
7070
3FE0
0F80
ENDCHAR
STARTCHAR P
ENCODING 80
SWIDTH 553 0
DWIDTH 10 0
BBX 8 14 2 0
BITMAP
FE
FF
C7
C3
C3
C3
C6
FE
F8
C0
C0
C0
C0
C0
ENDCHAR
STARTCHAR Q
ENCODING 81
SWIDTH 777 0
DWIDTH 15 0
BBX 14 18 1 -4
BITMAP
0F80
3FE0
7070
6030
E038
C018
C018
C018
C018
E038
6030
7070
3FE0
0FC0
00F0
007C
0038
0008
ENDCHAR
STARTCHAR R
ENCODING 82
SWIDTH 633 0
DWIDTH 12 0
BBX 10 14 2 0
BITMAP
FC00
FE00
C700
C300
C300
C200
C600
F800
FC00
CE00
C600
C300
C380
C1C0
ENDCHAR
STARTCHAR S
ENCODING 83
SWIDTH 539 0
DWIDTH 10 0
BBX 8 14 1 0
BITMAP
3E
7E
E2
C0
C0
70
3C
1E
07
03
03
87
FE
7C
ENDCHAR
STARTCHAR T
ENCODING 84
SWIDTH 633 0
DWIDTH 12 0
BBX 12 14 0 0
BITMAP
FFF0
FFF0
0600
0600
0600
0600
0600
0600
0600
0600
0600
0600
0600
0600
ENDCHAR
STARTCHAR U
ENCODING 85
SWIDTH 693 0
DWIDTH 13 0
BBX 10 14 2 0
BITMAP
C0C0
C0C0
C0C0
C0C0
C0C0
C0C0
C0C0
C0C0
C0C0
C0C0
C0C0
E1C0
7F80
3F00
ENDCHAR
STARTCHAR V
ENCODING 86
SWIDTH 654 0
DWIDTH 12 0
BBX 12 14 0 0
BITMAP
C030
E030
6060
6060
30E0
30C0
30C0
19C0
1980
1D80
0F00
0F00
0700
0600
ENDCHAR
STARTCHAR W
ENCODING 87
SWIDTH 855 0
DWIDTH 16 0
BBX 16 14 0 0
BITMAP
C183
C183
63C7
63C6
63C6
63C6
36EC
366C
366C
366C
1E78
1C38
1C38
1C38
ENDCHAR
STARTCHAR X
ENCODING 88
SWIDTH 626 0
DWIDTH 12 0
BBX 11 14 0 0
BITMAP
E0E0
60C0
31C0
3980
1B00
0F00
0E00
0E00
1F00
1B00
3180
71C0
60C0
C0E0
ENDCHAR
STARTCHAR Y
ENCODING 89
SWIDTH 623 0
DWIDTH 12 0
BBX 12 14 0 0
BITMAP
E030
6060
70E0
30C0
1980
1F80
0F00
0700
0600
0600
0600
0600
0600
0600
ENDCHAR
STARTCHAR Z
ENCODING 90
SWIDTH 605 0
DWIDTH 11 0
BBX 10 14 1 0
BITMAP
FFC0
FFC0
0180
0380
0300
0600
0E00
1C00
1800
3000
7000
E000
FFC0
FFC0
ENDCHAR
STARTCHAR bracketleft
ENCODING 91
SWIDTH 325 0
DWIDTH 6 0
BBX 4 18 2 -4
BITMAP
F0
F0
C0
C0
C0
C0
C0
C0
C0
C0
C0
C0
C0
C0
C0
C0
F0
F0
ENDCHAR
STARTCHAR backslash
ENCODING 92
SWIDTH 494 0
DWIDTH 9 0
BBX 9 18 0 -4
BITMAP
C000
C000
6000
6000
3000
3000
3800
1800
1800
0C00
0C00
0E00
0600
0600
0300
0300
0180
0180
ENDCHAR
STARTCHAR bracketright
ENCODING 93
SWIDTH 325 0
DWIDTH 6 0
BBX 4 18 1 -4
BITMAP
F0
F0
30
30
30
30
30
30
30
30
30
30
30
30
30
30
F0
F0
ENDCHAR
STARTCHAR asciicircum
ENCODING 94
SWIDTH 633 0
DWIDTH 12 0
BBX 11 13 1 2
BITMAP
0400
0400
0E00
0E00
0E00
1B00
1B00
3180
3180
60C0
60C0
E0E0
C060
ENDCHAR
STARTCHAR underscore
ENCODING 95
SWIDTH 500 0
DWIDTH 10 0
BBX 8 2 1 -2
BITMAP
FF
FF
ENDCHAR
STARTCHAR grave
ENCODING 96
SWIDTH 614 0
DWIDTH 12 0
BBX 4 3 3 11
BITMAP
C0
60
30
ENDCHAR
STARTCHAR a
ENCODING 97
SWIDTH 552 0
DWIDTH 10 0
BBX 9 10 1 0
BITMAP
3E00
7F00
4300
0300
3F00
7F00
C300
C300
FF80
7380
ENDCHAR
STARTCHAR b
ENCODING 98
SWIDTH 630 0
DWIDTH 12 0
BBX 9 14 2 0
BITMAP
C000
C000
C000
C000
DE00
FF00
E380
C180
C180
C180
C180
E300
FF00
DE00
ENDCHAR
STARTCHAR c
ENCODING 99
SWIDTH 518 0
DWIDTH 10 0
BBX 8 10 1 0
BITMAP
1F
7F
60
C0
C0
C0
C0
61
7F
1E
ENDCHAR
STARTCHAR d
ENCODING 100
SWIDTH 630 0
DWIDTH 12 0
BBX 9 14 1 0
BITMAP
0180
0180
0180
0180
3D80
7F80
6380
C180
C180
C180
C180
E380
7F80
3D80
ENDCHAR
STARTCHAR e
ENCODING 101
SWIDTH 557 0
DWIDTH 11 0
BBX 8 10 1 0
BITMAP
3C
7E
63
C3
FF
FF
C0
E1
7F
3E
ENDCHAR
STARTCHAR f
ENCODING 102
SWIDTH 367 0
DWIDTH 7 0
BBX 7 15 1 0
BITMAP
1E
3E
60
60
60
FC
FC
60
60
60
60
60
60
60
60
ENDCHAR
STARTCHAR g
ENCODING 103
SWIDTH 623 0
DWIDTH 12 0
BBX 9 14 1 -4
BITMAP
3D80
7F80
6380
C180
C180
C180
C180
E380
7D80
3980
0180
4300
7F00
7E00
ENDCHAR
STARTCHAR h
ENCODING 104
SWIDTH 620 0
DWIDTH 12 0
BBX 8 14 2 0
BITMAP
C0
C0
C0
C0
CE
DF
E3
C3
C3
C3
C3
C3
C3
C3
ENDCHAR
STARTCHAR i
ENCODING 105
SWIDTH 289 0
DWIDTH 5 0
BBX 2 14 2 0
BITMAP
C0
C0
00
00
C0
C0
C0
C0
C0
C0
C0
C0
C0
C0
ENDCHAR
STARTCHAR j
ENCODING 106
SWIDTH 304 0
DWIDTH 6 0
BBX 6 18 -1 -4
BITMAP
0C
0C
00
00
0C
0C
0C
0C
0C
0C
0C
0C
0C
0C
0C
8C
F8
F0
ENDCHAR
STARTCHAR k
ENCODING 107
SWIDTH 585 0
DWIDTH 11 0
BBX 9 14 2 0
BITMAP
C000
C000
C000
C000
C700
C600
CC00
D800
F800
F800
DC00
CE00
C700
C380
ENDCHAR
STARTCHAR l
ENCODING 108
SWIDTH 289 0
DWIDTH 5 0
BBX 2 14 2 0
BITMAP
C0
C0
C0
C0
C0
C0
C0
C0
C0
C0
C0
C0
C0
C0
ENDCHAR
STARTCHAR m
ENCODING 109
SWIDTH 934 0
DWIDTH 18 0
BBX 14 10 2 0
BITMAP
CE38
DF7C
E38C
C30C
C30C
C30C
C30C
C30C
C30C
C30C
ENDCHAR
STARTCHAR n
ENCODING 110
SWIDTH 620 0
DWIDTH 12 0
BBX 8 10 2 0
BITMAP
CE
DF
E3
C3
C3
C3
C3
C3
C3
C3
ENDCHAR
STARTCHAR o
ENCODING 111
SWIDTH 614 0
DWIDTH 12 0
BBX 10 10 1 0
BITMAP
1E00
7F80
6180
C0C0
C0C0
C0C0
C0C0
6180
7F80
1E00
ENDCHAR
STARTCHAR p
ENCODING 112
SWIDTH 630 0
DWIDTH 12 0
BBX 9 14 2 -4
BITMAP
DE00
FF00
E380
C180
C180
C180
C180
E300
FF00
DE00
C000
C000
C000
C000
ENDCHAR
STARTCHAR q
ENCODING 113
SWIDTH 630 0
DWIDTH 12 0
BBX 9 14 1 -4
BITMAP
3D80
7F80
6380
C180
C180
C180
C180
E380
7F80
3D80
0180
0180
0180
0180
ENDCHAR
STARTCHAR r
ENCODING 114
SWIDTH 409 0
DWIDTH 8 0
BBX 6 10 2 0
BITMAP
CC
DC
E0
C0
C0
C0
C0
C0
C0
C0
ENDCHAR
STARTCHAR s
ENCODING 115
SWIDTH 510 0
DWIDTH 10 0
BBX 7 10 1 0
BITMAP
7C
FC
C0
E0
78
3E
06
86
FE
7C
ENDCHAR
STARTCHAR t
ENCODING 116
SWIDTH 374 0
DWIDTH 7 0
BBX 6 13 1 0
BITMAP
60
60
60
FC
FC
60
60
60
60
60
60
7C
3C
ENDCHAR
STARTCHAR u
ENCODING 117
SWIDTH 620 0
DWIDTH 12 0
BBX 8 10 2 0
BITMAP
C3
C3
C3
C3
C3
C3
C3
C7
FB
73
ENDCHAR
STARTCHAR v
ENCODING 118
SWIDTH 572 0
DWIDTH 10 0
BBX 10 10 0 0
BITMAP
C0C0
E1C0
6180
6180
3300
3300
3E00
1E00
1E00
0C00
ENDCHAR
STARTCHAR w
ENCODING 119
SWIDTH 840 0
DWIDTH 15 0
BBX 14 10 0 0
BITMAP
C30C
C78C
6798
6798
6798
6CF0
3CF0
3CF0
38F0
3860
ENDCHAR
STARTCHAR x
ENCODING 120
SWIDTH 613 0
DWIDTH 12 0
BBX 10 10 1 0
BITMAP
E1C0
7180
3300
1F00
1E00
1E00
3E00
3300
6380
E1C0
ENDCHAR
STARTCHAR y
ENCODING 121
SWIDTH 568 0
DWIDTH 10 0
BBX 10 14 0 -4
BITMAP
C0C0
61C0
6180
6180
3300
3300
1F00
1E00
1E00
0C00
0C00
1C00
1800
3800
ENDCHAR
STARTCHAR z
ENCODING 122
SWIDTH 573 0
DWIDTH 11 0
BBX 9 10 1 0
BITMAP
FF80
FF80
0300
0600
0C00
1800
3000
6000
FF80
FF80
ENDCHAR
STARTCHAR braceleft
ENCODING 123
SWIDTH 325 0
DWIDTH 6 0
BBX 5 18 0 -4
BITMAP
18
38
30
30
30
30
30
30
20
E0
F0
30
30
30
30
30
38
18
ENDCHAR
STARTCHAR bar
ENCODING 124
SWIDTH 265 0
DWIDTH 5 0
BBX 2 18 2 -4
BITMAP
C0
C0
C0
C0
C0
C0
C0
C0
C0
C0
C0
C0
C0
C0
C0
C0
C0
C0
ENDCHAR
STARTCHAR braceright
ENCODING 125
SWIDTH 325 0
DWIDTH 6 0
BBX 5 18 1 -4
BITMAP
C0
E0
60
60
60
60
60
78
38
20
60
60
60
60
60
60
E0
C0
ENDCHAR
STARTCHAR asciitilde
ENCODING 126
SWIDTH 633 0
DWIDTH 12 0
BBX 11 5 1 3
BITMAP
7860
7C60
CE60
C7C0
C1C0
ENDCHAR
STARTCHAR space
ENCODING 160
SWIDTH 316 0
DWIDTH 6 0
BBX 1 1 0 0
BITMAP
00
ENDCHAR
STARTCHAR exclamdown
ENCODING 161
SWIDTH 205 0
DWIDTH 6 0
BBX 2 14 2 -4
BITMAP
C0
C0
00
00
C0
C0
C0
C0
C0
C0
C0
C0
C0
C0
ENDCHAR
STARTCHAR cent
ENCODING 162
SWIDTH 633 0
DWIDTH 12 0
BBX 8 14 2 0
BITMAP
18
18
3F
7F
D8
D8
D8
D8
D8
D9
7F
3E
18
18
ENDCHAR
STARTCHAR sterling
ENCODING 163
SWIDTH 633 0
DWIDTH 12 0
BBX 8 14 2 0
BITMAP
0F
1F
30
30
30
30
FC
FC
30
30
30
20
FF
FF
ENDCHAR
STARTCHAR currency
ENCODING 164
SWIDTH 633 0
DWIDTH 12 0
BBX 10 12 1 1
BITMAP
C0C0
FFC0
7F80
3300
6180
6180
6180
6180
3300
7F80
FFC0
C0C0
ENDCHAR
STARTCHAR yen
ENCODING 165
SWIDTH 633 0
DWIDTH 12 0
BBX 11 14 1 0
BITMAP
E0E0
60C0
3180
3B80
1F00
0E00
3F80
3F80
0C00
3F80
3F80
0C00
0C00
0C00
ENDCHAR
STARTCHAR brokenbar
ENCODING 166
SWIDTH 265 0
DWIDTH 5 0
BBX 2 18 2 -4
BITMAP
C0
C0
C0
C0
C0
C0
C0
00
00
00
00
C0
C0
C0
C0
C0
C0
C0
ENDCHAR
STARTCHAR section
ENCODING 167
SWIDTH 633 0
DWIDTH 12 0
BBX 8 18 2 -4
BITMAP
3E
7F
E1
C0
C0
70
7C
CE
C3
E3
73
3E
0E
03
03
87
FF
7C
ENDCHAR
STARTCHAR dieresis
ENCODING 168
SWIDTH 614 0
DWIDTH 12 0
BBX 5 2 3 12
BITMAP
98
98
ENDCHAR
STARTCHAR copyright
ENCODING 169
SWIDTH 855 0
DWIDTH 16 0
BBX 15 14 1 0
BITMAP
07C0
1FF0
3838
739C
E78C
CE86
CC06
CC06
CE86
E78C
739C
3838
1FF0
07C0
ENDCHAR
STARTCHAR ordfeminine
ENCODING 170
SWIDTH 422 0
DWIDTH 8 0
BBX 8 8 0 6
BITMAP
7C
7E
46
3E
FE
C6
FF
73
ENDCHAR
STARTCHAR guillemotleft
ENCODING 171
SWIDTH 524 0
DWIDTH 10 0
BBX 8 9 1 0
BITMAP
13
3F
76
EE
DC
EC
76
37
1B
ENDCHAR
STARTCHAR logicalnot
ENCODING 172
SWIDTH 633 0
DWIDTH 12 0
BBX 11 5 1 3
BITMAP
FFE0
FFE0
0060
0060
0060
ENDCHAR
STARTCHAR hyphen
ENCODING 173
SWIDTH 325 0
DWIDTH 6 0
BBX 4 2 1 5
BITMAP
F0
F0
ENDCHAR
STARTCHAR registered
ENCODING 174
SWIDTH 633 0
DWIDTH 12 0
BBX 8 9 2 5
BITMAP
3C
7E
E7
FF
FB
FF
E7
7E
3C
ENDCHAR
STARTCHAR macron
ENCODING 175
SWIDTH 614 0
DWIDTH 12 0
BBX 5 2 3 12
BITMAP
F8
F8
ENDCHAR
STARTCHAR degree
ENCODING 176
SWIDTH 277 0
DWIDTH 5 0
BBX 3 4 1 10
BITMAP
40
A0
A0
40
ENDCHAR
STARTCHAR plusminus
ENCODING 177
SWIDTH 633 0
DWIDTH 12 0
BBX 12 12 0 0
BITMAP
0600
0600
0600
FFF0
FFF0
0600
0600
0600
0600
0000
FFF0
FFF0
ENDCHAR
STARTCHAR twosuperior
ENCODING 178
SWIDTH 422 0
DWIDTH 7 0
BBX 5 8 -12 6
BITMAP
70
88
08
18
30
60
C0
F8
ENDCHAR
STARTCHAR threesuperior
ENCODING 179
SWIDTH 422 0
DWIDTH 7 0
BBX 5 8 -12 6
BITMAP
F0
08
08
70
08
08
08
F0
ENDCHAR
STARTCHAR acute
ENCODING 180
SWIDTH 614 0
DWIDTH 12 0
BBX 4 3 4 11
BITMAP
30
60
C0
ENDCHAR
STARTCHAR mu
ENCODING 181
SWIDTH 627 0
DWIDTH 12 0
BBX 8 14 2 -4
BITMAP
C3
C3
C3
C3
C3
C3
C3
C7
FF
FB
C0
C0
C0
C0
ENDCHAR
STARTCHAR paragraph
ENCODING 182
SWIDTH 633 0
DWIDTH 12 0
BBX 8 18 2 -4
BITMAP
7F
FF
FF
FF
FF
7F
7F
0F
0F
0F
0F
0F
0F
0F
0F
0F
0F
0F
ENDCHAR
STARTCHAR periodcentered
ENCODING 183
SWIDTH 316 0
DWIDTH 12 0
BBX 2 2 5 5
BITMAP
C0
C0
ENDCHAR
STARTCHAR cedilla
ENCODING 184
SWIDTH 614 0
DWIDTH 12 0
BBX 3 4 5 -4
BITMAP
C0
60
60
E0
ENDCHAR
STARTCHAR onesuperior
ENCODING 185
SWIDTH 422 0
DWIDTH 7 0
BBX 2 8 -13 6
BITMAP
C0
40
40
40
40
40
40
40
ENDCHAR
STARTCHAR ordmasculine
ENCODING 186
SWIDTH 422 0
DWIDTH 8 0
BBX 7 8 1 6
BITMAP
38
7C
EE
C6
C6
EE
7C
38
ENDCHAR
STARTCHAR guillemotright
ENCODING 187
SWIDTH 524 0
DWIDTH 10 0
BBX 8 9 1 0
BITMAP
D8
EC
6E
77
3B
37
6E
FC
C8
ENDCHAR
STARTCHAR onequarter
ENCODING 188
SWIDTH 801 0
DWIDTH 15 0
BBX 13 14 4 0
BITMAP
C030
4060
40C0
41C0
4180
4300
4730
4E30
0C50
1890
3990
31F8
6010
C010
ENDCHAR
STARTCHAR onehalf
ENCODING 189
SWIDTH 801 0
DWIDTH 15 0
BBX 12 14 4 0
BITMAP
C030
4060
40C0
41C0
4180
4300
47E0
4F10
0C10
1830
3860
30C0
6180
C1F0
ENDCHAR
STARTCHAR threequarters
ENCODING 190
SWIDTH 873 0
DWIDTH 15 0
BBX 14 14 5 0
BITMAP
F018
0830
0860
70E0
08C0
0980
0B98
F718
0628
0C48
1CC8
18FC
3008
6008
ENDCHAR
STARTCHAR questiondown
ENCODING 191
SWIDTH 422 0
DWIDTH 8 0
BBX 7 14 0 -4
BITMAP
18
18
00
18
18
18
38
70
E0
C0
C0
E2
7E
3C
ENDCHAR
STARTCHAR Agrave
ENCODING 192
SWIDTH 690 0
DWIDTH 13 0
BBX 13 18 0 0
BITMAP
0C00
0600
0300
0000
0700
0700
0F80
0D80
0D80
18C0
18C0
30E0
3FE0
3FE0
6030
6030
E030
C018
ENDCHAR
STARTCHAR Aacute
ENCODING 193
SWIDTH 690 0
DWIDTH 13 0
BBX 13 18 0 0
BITMAP
0180
0300
0600
0000
0700
0700
0F80
0D80
0D80
18C0
18C0
30E0
3FE0
3FE0
6030
6030
E030
C018
ENDCHAR
STARTCHAR Acircumflex
ENCODING 194
SWIDTH 690 0
DWIDTH 13 0
BBX 13 18 0 0
BITMAP
0300
0780
0CC0
0000
0700
0700
0F80
0D80
0D80
18C0
18C0
30E0
3FE0
3FE0
6030
6030
E030
C018
ENDCHAR
STARTCHAR Atilde
ENCODING 195
SWIDTH 690 0
DWIDTH 13 0
BBX 13 17 0 0
BITMAP
0F40
0B80
0000
0700
0700
0F80
0D80
0D80
18C0
18C0
30E0
3FE0
3FE0
6030
6030
E030
C018
ENDCHAR
STARTCHAR Adieresis
ENCODING 196
SWIDTH 690 0
DWIDTH 13 0
BBX 13 17 0 0
BITMAP
0980
0980
0000
0700
0700
0F80
0D80
0D80
18C0
18C0
30E0
3FE0
3FE0
6030
6030
E030
C018
ENDCHAR
STARTCHAR Aring
ENCODING 197
SWIDTH 690 0
DWIDTH 13 0
BBX 13 18 0 0
BITMAP
0700
0500
0700
0000
0700
0700
0F80
0D80
0D80
18C0
18C0
30E0
3FE0
3FE0
6030
6030
E030
C018
ENDCHAR
STARTCHAR AE
ENCODING 198
SWIDTH 907 0
DWIDTH 17 0
BBX 17 14 0 0
BITMAP
00FF80
01FF80
03E000
03E000
076000
067F00
0E7F00
0C6000
1FE000
3FE000
306000
706000
607F80
C07F80
ENDCHAR
STARTCHAR Ccedilla
ENCODING 199
SWIDTH 692 0
DWIDTH 13 0
BBX 11 18 1 -4
BITMAP
0FC0
3FE0
7020
6000
E000
C000
C000
C000
C000
C000
6000
7020
3FE0
0FC0
0400
0600
0600
0E00
ENDCHAR
STARTCHAR Egrave
ENCODING 200
SWIDTH 542 0
DWIDTH 10 0
BBX 8 18 2 0
BITMAP
60
30
18
00
FF
FF
C0
C0
C0
C0
FE
FE
C0
C0
C0
C0
FF
FF
ENDCHAR
STARTCHAR Eacute
ENCODING 201
SWIDTH 542 0
DWIDTH 10 0
BBX 8 18 2 0
BITMAP
0C
18
30
00
FF
FF
C0
C0
C0
C0
FE
FE
C0
C0
C0
C0
FF
FF
ENDCHAR
STARTCHAR Ecircumflex
ENCODING 202
SWIDTH 542 0
DWIDTH 10 0
BBX 8 18 2 0
BITMAP
30
78
CC
00
FF
FF
C0
C0
C0
C0
FE
FE
C0
C0
C0
C0
FF
FF
ENDCHAR
STARTCHAR Edieresis
ENCODING 203
SWIDTH 542 0
DWIDTH 10 0
BBX 8 17 2 0
BITMAP
4C
4C
00
FF
FF
C0
C0
C0
C0
FE
FE
C0
C0
C0
C0
FF
FF
ENDCHAR
STARTCHAR Igrave
ENCODING 204
SWIDTH 288 0
DWIDTH 5 0
BBX 4 18 0 0
BITMAP
C0
60
30
00
30
30
30
30
30
30
30
30
30
30
30
30
30
30
ENDCHAR
STARTCHAR Iacute
ENCODING 205
SWIDTH 288 0
DWIDTH 5 0
BBX 4 18 2 0
BITMAP
30
60
C0
00
C0
C0
C0
C0
C0
C0
C0
C0
C0
C0
C0
C0
C0
C0
ENDCHAR
STARTCHAR Icircumflex
ENCODING 206
SWIDTH 288 0
DWIDTH 5 0
BBX 6 18 0 0
BITMAP
30
78
CC
00
30
30
30
30
30
30
30
30
30
30
30
30
30
30
ENDCHAR
STARTCHAR Idieresis
ENCODING 207
SWIDTH 288 0
DWIDTH 5 0
BBX 5 17 0 0
BITMAP
98
98
00
30
30
30
30
30
30
30
30
30
30
30
30
30
30
ENDCHAR
STARTCHAR Eth
ENCODING 208
SWIDTH 749 0
DWIDTH 14 0
BBX 13 14 0 0
BITMAP
3F80
3FE0
3070
3030
3018
3018
FE18
FE18
3018
3018
3030
3070
3FE0
3F80
ENDCHAR
STARTCHAR Ntilde
ENCODING 209
SWIDTH 741 0
DWIDTH 14 0
BBX 10 17 2 0
BITMAP
3D00
2E00
0000
C0C0
E0C0
F0C0
F0C0
F8C0
D8C0
CCC0
CCC0
C6C0
C7C0
C3C0
C3C0
C1C0
C0C0
ENDCHAR
STARTCHAR Ograve
ENCODING 210
SWIDTH 777 0
DWIDTH 15 0
BBX 13 18 1 0
BITMAP
0C00
0600
0300
0000
0F80
3FE0
7070
6030
E038
C018
C018
C018
C018
E038
6030
7070
3FE0
0F80
ENDCHAR
STARTCHAR Oacute
ENCODING 211
SWIDTH 777 0
DWIDTH 15 0
BBX 13 18 1 0
BITMAP
0180
0300
0600
0000
0F80
3FE0
7070
6030
E038
C018
C018
C018
C018
E038
6030
7070
3FE0
0F80
ENDCHAR
STARTCHAR Ocircumflex
ENCODING 212
SWIDTH 777 0
DWIDTH 15 0
BBX 13 18 1 0
BITMAP
0300
0780
0CC0
0000
0F80
3FE0
7070
6030
E038
C018
C018
C018
C018
E038
6030
7070
3FE0
0F80
ENDCHAR
STARTCHAR Otilde
ENCODING 213
SWIDTH 777 0
DWIDTH 15 0
BBX 13 17 1 0
BITMAP
0F40
0B80
0000
0F80
3FE0
7070
6030
E038
C018
C018
C018
C018
E038
6030
7070
3FE0
0F80
ENDCHAR
STARTCHAR Odieresis
ENCODING 214
SWIDTH 777 0
DWIDTH 15 0
BBX 13 17 1 0
BITMAP
0980
0980
0000
0F80
3FE0
7070
6030
E038
C018
C018
C018
C018
E038
6030
7070
3FE0
0F80
ENDCHAR
STARTCHAR multiply
ENCODING 215
SWIDTH 633 0
DWIDTH 12 0
BBX 11 12 1 0
BITMAP
4040
E0E0
71C0
3B80
1B00
0E00
0E00
1B00
3B80
71C0
E0E0
4040
ENDCHAR
STARTCHAR Oslash
ENCODING 216
SWIDTH 777 0
DWIDTH 15 0
BBX 13 14 1 0
BITMAP
0FB8
3FF0
7070
60F0
E1F8
C398
C318
C618
CE18
FC38
7830
7070
7FE0
EF80
ENDCHAR
STARTCHAR Ugrave
ENCODING 217
SWIDTH 693 0
DWIDTH 13 0
BBX 10 18 2 0
BITMAP
1800
0C00
0600
0000
C0C0
C0C0
C0C0
C0C0
C0C0
C0C0
C0C0
C0C0
C0C0
C0C0
C0C0
E1C0
7F80
3F00
ENDCHAR
STARTCHAR Uacute
ENCODING 218
SWIDTH 693 0
DWIDTH 13 0
BBX 10 18 2 0
BITMAP
0600
0C00
1800
0000
C0C0
C0C0
C0C0
C0C0
C0C0
C0C0
C0C0
C0C0
C0C0
C0C0
C0C0
E1C0
7F80
3F00
ENDCHAR
STARTCHAR Ucircumflex
ENCODING 219
SWIDTH 693 0
DWIDTH 13 0
BBX 10 18 2 0
BITMAP
0C00
1E00
3300
0000
C0C0
C0C0
C0C0
C0C0
C0C0
C0C0
C0C0
C0C0
C0C0
C0C0
C0C0
E1C0
7F80
3F00
ENDCHAR
STARTCHAR Udieresis
ENCODING 220
SWIDTH 693 0
DWIDTH 13 0
BBX 10 17 2 0
BITMAP
2600
2600
0000
C0C0
C0C0
C0C0
C0C0
C0C0
C0C0
C0C0
C0C0
C0C0
C0C0
C0C0
E1C0
7F80
3F00
ENDCHAR
STARTCHAR Yacute
ENCODING 221
SWIDTH 623 0
DWIDTH 12 0
BBX 12 18 0 0
BITMAP
0180
0300
0600
0000
E030
6060
70E0
30C0
1980
1F80
0F00
0700
0600
0600
0600
0600
0600
0600
ENDCHAR
STARTCHAR Thorn
ENCODING 222
SWIDTH 553 0
DWIDTH 10 0
BBX 8 14 2 0
BITMAP
C0
C0
FC
FE
C7
C3
C3
C3
C3
C6
FE
F8
C0
C0
ENDCHAR
STARTCHAR germandbls
ENCODING 223
SWIDTH 598 0
DWIDTH 11 0
BBX 9 15 2 0
BITMAP
7C00
FE00
C600
C600
CE00
DC00
D800
DC00
CE00
C700
C380
C180
D180
DF80
CF00
ENDCHAR
STARTCHAR agrave
ENCODING 224
SWIDTH 552 0
DWIDTH 10 0
BBX 9 14 1 0
BITMAP
3000
1800
0C00
0000
3E00
7F00
4300
0300
3F00
7F00
C300
C300
FF80
7380
ENDCHAR
STARTCHAR aacute
ENCODING 225
SWIDTH 552 0
DWIDTH 10 0
BBX 9 14 1 0
BITMAP
0600
0C00
1800
0000
3E00
7F00
4300
0300
3F00
7F00
C300
C300
FF80
7380
ENDCHAR
STARTCHAR acircumflex
ENCODING 226
SWIDTH 552 0
DWIDTH 10 0
BBX 9 14 1 0
BITMAP
1800
3C00
6600
0000
3E00
7F00
4300
0300
3F00
7F00
C300
C300
FF80
7380
ENDCHAR
STARTCHAR atilde
ENCODING 227
SWIDTH 552 0
DWIDTH 10 0
BBX 9 13 1 0
BITMAP
7A00
5C00
0000
3E00
7F00
4300
0300
3F00
7F00
C300
C300
FF80
7380
ENDCHAR
STARTCHAR adieresis
ENCODING 228
SWIDTH 552 0
DWIDTH 10 0
BBX 9 13 1 0
BITMAP
2600
2600
0000
3E00
7F00
4300
0300
3F00
7F00
C300
C300
FF80
7380
ENDCHAR
STARTCHAR aring
ENCODING 229
SWIDTH 552 0
DWIDTH 10 0
BBX 9 14 1 0
BITMAP
1C00
1400
1C00
0000
3E00
7F00
4300
0300
3F00
7F00
C300
C300
FF80
7380
ENDCHAR
STARTCHAR ae
ENCODING 230
SWIDTH 853 0
DWIDTH 16 0
BBX 14 10 1 0
BITMAP
3CF0
7FF8
438C
030C
3FFC
7FFC
C300
C384
FDFC
70F8
ENDCHAR
STARTCHAR ccedilla
ENCODING 231
SWIDTH 518 0
DWIDTH 10 0
BBX 8 14 1 -4
BITMAP
1F
7F
60
C0
C0
C0
C0
61
7F
1E
08
0C
0C
1C
ENDCHAR
STARTCHAR egrave
ENCODING 232
SWIDTH 557 0
DWIDTH 11 0
BBX 8 14 1 0
BITMAP
30
18
0C
00
3C
7E
63
C3
FF
FF
C0
E1
7F
3E
ENDCHAR
STARTCHAR eacute
ENCODING 233
SWIDTH 557 0
DWIDTH 11 0
BBX 8 14 1 0
BITMAP
06
0C
18
00
3C
7E
63
C3
FF
FF
C0
E1
7F
3E
ENDCHAR
STARTCHAR ecircumflex
ENCODING 234
SWIDTH 557 0
DWIDTH 11 0
BBX 8 14 1 0
BITMAP
18
3C
66
00
3C
7E
63
C3
FF
FF
C0
E1
7F
3E
ENDCHAR
STARTCHAR edieresis
ENCODING 235
SWIDTH 557 0
DWIDTH 11 0
BBX 8 13 1 0
BITMAP
26
26
00
3C
7E
63
C3
FF
FF
C0
E1
7F
3E
ENDCHAR
STARTCHAR igrave
ENCODING 236
SWIDTH 289 0
DWIDTH 5 0
BBX 4 14 0 0
BITMAP
C0
60
30
00
30
30
30
30
30
30
30
30
30
30
ENDCHAR
STARTCHAR iacute
ENCODING 237
SWIDTH 289 0
DWIDTH 5 0
BBX 4 14 2 0
BITMAP
30
60
C0
00
C0
C0
C0
C0
C0
C0
C0
C0
C0
C0
ENDCHAR
STARTCHAR icircumflex
ENCODING 238
SWIDTH 289 0
DWIDTH 5 0
BBX 6 14 0 0
BITMAP
30
78
CC
00
30
30
30
30
30
30
30
30
30
30
ENDCHAR
STARTCHAR idieresis
ENCODING 239
SWIDTH 289 0
DWIDTH 5 0
BBX 5 13 0 0
BITMAP
98
98
00
30
30
30
30
30
30
30
30
30
30
ENDCHAR
STARTCHAR eth
ENCODING 240
SWIDTH 602 0
DWIDTH 11 0
BBX 9 14 1 0
BITMAP
FC00
BC00
7C00
2600
3F00
7F00
E380
C180
C180
C180
C180
6300
7F00
3E00
ENDCHAR
STARTCHAR ntilde
ENCODING 241
SWIDTH 620 0
DWIDTH 12 0
BBX 8 13 2 0
BITMAP
7A
5C
00
CE
DF
E3
C3
C3
C3
C3
C3
C3
C3
ENDCHAR
STARTCHAR ograve
ENCODING 242
SWIDTH 614 0
DWIDTH 12 0
BBX 10 14 1 0
BITMAP
1800
0C00
0600
0000
1E00
7F80
6180
C0C0
C0C0
C0C0
C0C0
6180
7F80
1E00
ENDCHAR
STARTCHAR oacute
ENCODING 243
SWIDTH 614 0
DWIDTH 12 0
BBX 10 14 1 0
BITMAP
0600
0C00
1800
0000
1E00
7F80
6180
C0C0
C0C0
C0C0
C0C0
6180
7F80
1E00
ENDCHAR
STARTCHAR ocircumflex
ENCODING 244
SWIDTH 614 0
DWIDTH 12 0
BBX 10 14 1 0
BITMAP
0C00
1E00
3300
0000
1E00
7F80
6180
C0C0
C0C0
C0C0
C0C0
6180
7F80
1E00
ENDCHAR
STARTCHAR otilde
ENCODING 245
SWIDTH 614 0
DWIDTH 12 0
BBX 10 13 1 0
BITMAP
3D00
2E00
0000
1E00
7F80
6180
C0C0
C0C0
C0C0
C0C0
6180
7F80
1E00
ENDCHAR
STARTCHAR odieresis
ENCODING 246
SWIDTH 614 0
DWIDTH 12 0
BBX 10 13 1 0
BITMAP
2600
2600
0000
1E00
7F80
6180
C0C0
C0C0
C0C0
C0C0
6180
7F80
1E00
ENDCHAR
STARTCHAR divide
ENCODING 247
SWIDTH 633 0
DWIDTH 12 0
BBX 10 10 1 0
BITMAP
0C00
0C00
0000
0000
FFC0
FFC0
0000
0000
0C00
0C00
ENDCHAR
STARTCHAR oslash
ENCODING 248
SWIDTH 614 0
DWIDTH 12 0
BBX 10 10 1 0
BITMAP
1FC0
7F80
6380
C7C0
CEC0
DCC0
F8C0
7180
7F80
FE00
ENDCHAR
STARTCHAR ugrave
ENCODING 249
SWIDTH 620 0
DWIDTH 12 0
BBX 8 14 2 0
BITMAP
30
18
0C
00
C3
C3
C3
C3
C3
C3
C3
C7
FB
73
ENDCHAR
STARTCHAR uacute
ENCODING 250
SWIDTH 620 0
DWIDTH 12 0
BBX 8 14 2 0
BITMAP
06
0C
18
00
C3
C3
C3
C3
C3
C3
C3
C7
FB
73
ENDCHAR
STARTCHAR ucircumflex
ENCODING 251
SWIDTH 620 0
DWIDTH 12 0
BBX 8 14 2 0
BITMAP
18
3C
66
00
C3
C3
C3
C3
C3
C3
C3
C7
FB
73
ENDCHAR
STARTCHAR udieresis
ENCODING 252
SWIDTH 620 0
DWIDTH 12 0
BBX 8 13 2 0
BITMAP
26
26
00
C3
C3
C3
C3
C3
C3
C3
C7
FB
73
ENDCHAR
STARTCHAR yacute
ENCODING 253
SWIDTH 568 0
DWIDTH 10 0
BBX 10 18 0 -4
BITMAP
0600
0C00
1800
0000
C0C0
61C0
6180
6180
3300
3300
1F00
1E00
1E00
0C00
0C00
1C00
1800
3800
ENDCHAR
STARTCHAR thorn
ENCODING 254
SWIDTH 630 0
DWIDTH 12 0
BBX 9 18 2 -4
BITMAP
C000
C000
C000
C000
DE00
FF00
E380
C180
C180
C180
C180
E300
FF00
DE00
C000
C000
C000
C000
ENDCHAR
STARTCHAR ydieresis
ENCODING 255
SWIDTH 568 0
DWIDTH 10 0
BBX 10 17 0 -4
BITMAP
2600
2600
0000
C0C0
61C0
6180
6180
3300
3300
1F00
1E00
1E00
0C00
0C00
1C00
1800
3800
ENDCHAR
STARTCHAR Amacron
ENCODING 256
SWIDTH 690 0
DWIDTH 13 0
BBX 13 17 0 0
BITMAP
0F80
0F80
0000
0700
0700
0F80
0D80
0D80
18C0
18C0
30E0
3FE0
3FE0
6030
6030
E030
C018
ENDCHAR
STARTCHAR amacron
ENCODING 257
SWIDTH 552 0
DWIDTH 10 0
BBX 9 13 1 0
BITMAP
3E00
3E00
0000
3E00
7F00
4300
0300
3F00
7F00
C300
C300
FF80
7380
ENDCHAR
STARTCHAR Abreve
ENCODING 258
SWIDTH 690 0
DWIDTH 13 0
BBX 13 18 0 0
BITMAP
0840
0FC0
0780
0000
0700
0700
0F80
0D80
0D80
18C0
18C0
30E0
3FE0
3FE0
6030
6030
E030
C018
ENDCHAR
STARTCHAR abreve
ENCODING 259
SWIDTH 552 0
DWIDTH 10 0
BBX 9 14 1 0
BITMAP
2100
3F00
1E00
0000
3E00
7F00
4300
0300
3F00
7F00
C300
C300
FF80
7380
ENDCHAR
STARTCHAR Aogonek
ENCODING 260
SWIDTH 690 0
DWIDTH 13 0
BBX 13 18 0 -4
BITMAP
0700
0700
0F80
0D80
0D80
18C0
18C0
30E0
3FE0
3FE0
6030
6030
E030
C018
0000
0200
0400
0700
ENDCHAR
STARTCHAR aogonek
ENCODING 261
SWIDTH 552 0
DWIDTH 10 0
BBX 9 14 1 -4
BITMAP
3E00
7F00
4300
0300
3F00
7F00
C300
C300
FF80
7380
0000
0800
1000
1C00
ENDCHAR
STARTCHAR Cacute
ENCODING 262
SWIDTH 692 0
DWIDTH 13 0
BBX 11 18 1 0
BITMAP
0300
0600
0C00
0000
0FC0
3FE0
7020
6000
E000
C000
C000
C000
C000
C000
6000
7020
3FE0
0FC0
ENDCHAR
STARTCHAR cacute
ENCODING 263
SWIDTH 518 0
DWIDTH 10 0
BBX 8 14 1 0
BITMAP
06
0C
18
00
1F
7F
60
C0
C0
C0
C0
61
7F
1E
ENDCHAR
STARTCHAR Ccircumflex
ENCODING 264
SWIDTH 692 0
DWIDTH 13 0
BBX 11 18 1 0
BITMAP
0600
0F00
1980
0000
0FC0
3FE0
7020
6000
E000
C000
C000
C000
C000
C000
6000
7020
3FE0
0FC0
ENDCHAR
STARTCHAR ccircumflex
ENCODING 265
SWIDTH 518 0
DWIDTH 10 0
BBX 8 14 1 0
BITMAP
18
3C
66
00
1F
7F
60
C0
C0
C0
C0
61
7F
1E
ENDCHAR
STARTCHAR Cdotaccent
ENCODING 266
SWIDTH 692 0
DWIDTH 13 0
BBX 11 17 1 0
BITMAP
0600
0600
0000
0FC0
3FE0
7020
6000
E000
C000
C000
C000
C000
C000
6000
7020
3FE0
0FC0
ENDCHAR
STARTCHAR cdotaccent
ENCODING 267
SWIDTH 518 0
DWIDTH 10 0
BBX 8 13 1 0
BITMAP
18
18
00
1F
7F
60
C0
C0
C0
C0
61
7F
1E
ENDCHAR
STARTCHAR Ccaron
ENCODING 268
SWIDTH 692 0
DWIDTH 13 0
BBX 11 18 1 0
BITMAP
1980
0F00
0600
0000
0FC0
3FE0
7020
6000
E000
C000
C000
C000
C000
C000
6000
7020
3FE0
0FC0
ENDCHAR
STARTCHAR ccaron
ENCODING 269
SWIDTH 518 0
DWIDTH 10 0
BBX 8 14 1 0
BITMAP
66
3C
18
00
1F
7F
60
C0
C0
C0
C0
61
7F
1E
ENDCHAR
STARTCHAR Dcaron
ENCODING 270
SWIDTH 749 0
DWIDTH 14 0
BBX 11 18 2 0
BITMAP
3300
1E00
0C00
0000
FE00
FF80
C1C0
C0C0
C060
C060
C060
C060
C060
C060
C0C0
C1C0
FF80
FE00
ENDCHAR
STARTCHAR dcaron
ENCODING 271
SWIDTH 828 0
DWIDTH 15 0
BBX 14 14 1 0
BITMAP
019C
019C
018C
018C
3D98
7F80
6380
C180
C180
C180
C180
E380
7F80
3D80
ENDCHAR
STARTCHAR Dcroat
ENCODING 272
SWIDTH 749 0
DWIDTH 14 0
BBX 13 14 0 0
BITMAP
3F80
3FE0
3070
3030
3018
3018
FE18
FE18
3018
3018
3030
3070
3FE0
3F80
ENDCHAR
STARTCHAR dcroat
ENCODING 273
SWIDTH 630 0
DWIDTH 12 0
BBX 9 14 1 0
BITMAP
0180
0180
1F80
1F80
3D80
7F80
6380
C180
C180
C180
C180
E380
7F80
3D80
ENDCHAR
STARTCHAR Emacron
ENCODING 274
SWIDTH 542 0
DWIDTH 10 0
BBX 8 17 2 0
BITMAP
7C
7C
00
FF
FF
C0
C0
C0
C0
FE
FE
C0
C0
C0
C0
FF
FF
ENDCHAR
STARTCHAR emacron
ENCODING 275
SWIDTH 557 0
DWIDTH 11 0
BBX 8 13 1 0
BITMAP
3E
3E
00
3C
7E
63
C3
FF
FF
C0
E1
7F
3E
ENDCHAR
STARTCHAR Ebreve
ENCODING 276
SWIDTH 542 0
DWIDTH 10 0
BBX 8 18 2 0
BITMAP
42
7E
3C
00
FF
FF
C0
C0
C0
C0
FE
FE
C0
C0
C0
C0
FF
FF
ENDCHAR
STARTCHAR ebreve
ENCODING 277
SWIDTH 557 0
DWIDTH 11 0
BBX 8 14 1 0
BITMAP
42
7E
3C
00
3C
7E
63
C3
FF
FF
C0
E1
7F
3E
ENDCHAR
STARTCHAR Edotaccent
ENCODING 278
SWIDTH 542 0
DWIDTH 10 0
BBX 8 17 2 0
BITMAP
18
18
00
FF
FF
C0
C0
C0
C0
FE
FE
C0
C0
C0
C0
FF
FF
ENDCHAR
STARTCHAR edotaccent
ENCODING 279
SWIDTH 557 0
DWIDTH 11 0
BBX 8 13 1 0
BITMAP
18
18
00
3C
7E
63
C3
FF
FF
C0
E1
7F
3E
ENDCHAR
STARTCHAR Eogonek
ENCODING 280
SWIDTH 542 0
DWIDTH 10 0
BBX 8 18 2 -4
BITMAP
FF
FF
C0
C0
C0
C0
FE
FE
C0
C0
C0
C0
FF
FF
00
10
20
38
ENDCHAR
STARTCHAR eogonek
ENCODING 281
SWIDTH 557 0
DWIDTH 11 0
BBX 8 14 1 -4
BITMAP
3C
7E
63
C3
FF
FF
C0
E1
7F
3E
00
08
10
1C
ENDCHAR
STARTCHAR Ecaron
ENCODING 282
SWIDTH 542 0
DWIDTH 10 0
BBX 8 18 2 0
BITMAP
66
3C
18
00
FF
FF
C0
C0
C0
C0
FE
FE
C0
C0
C0
C0
FF
FF
ENDCHAR
STARTCHAR ecaron
ENCODING 283
SWIDTH 557 0
DWIDTH 11 0
BBX 8 14 1 0
BITMAP
66
3C
18
00
3C
7E
63
C3
FF
FF
C0
E1
7F
3E
ENDCHAR
STARTCHAR Gcircumflex
ENCODING 284
SWIDTH 723 0
DWIDTH 14 0
BBX 11 18 1 0
BITMAP
0600
0F00
1980
0000
0FC0
3FE0
7020
6000
E000
C000
C000
C060
C060
C060
6060
7060
3FE0
0FC0
ENDCHAR
STARTCHAR gcircumflex
ENCODING 285
SWIDTH 623 0
DWIDTH 12 0
BBX 9 18 1 -4
BITMAP
0C00
1E00
3300
0000
3D80
7F80
6380
C180
C180
C180
C180
E380
7D80
3980
0180
4300
7F00
7E00
ENDCHAR
STARTCHAR Gbreve
ENCODING 286
SWIDTH 723 0
DWIDTH 14 0
BBX 11 18 1 0
BITMAP
1080
1F80
0F00
0000
0FC0
3FE0
7020
6000
E000
C000
C000
C060
C060
C060
6060
7060
3FE0
0FC0
ENDCHAR
STARTCHAR gbreve
ENCODING 287
SWIDTH 623 0
DWIDTH 12 0
BBX 9 18 1 -4
BITMAP
2100
3F00
1E00
0000
3D80
7F80
6380
C180
C180
C180
C180
E380
7D80
3980
0180
4300
7F00
7E00
ENDCHAR
STARTCHAR Gdotaccent
ENCODING 288
SWIDTH 723 0
DWIDTH 14 0
BBX 11 17 1 0
BITMAP
0600
0600
0000
0FC0
3FE0
7020
6000
E000
C000
C000
C060
C060
C060
6060
7060
3FE0
0FC0
ENDCHAR
STARTCHAR gdotaccent
ENCODING 289
SWIDTH 623 0
DWIDTH 12 0
BBX 9 17 1 -4
BITMAP
0C00
0C00
0000
3D80
7F80
6380
C180
C180
C180
C180
E380
7D80
3980
0180
4300
7F00
7E00
ENDCHAR
STARTCHAR Gcommaaccent
ENCODING 290
SWIDTH 723 0
DWIDTH 14 0
BBX 11 22 1 -8
BITMAP
0FC0
3FE0
7020
6000
E000
C000
C000
C060
C060
C060
6060
7060
3FE0
0FC0
0000
0700
0700
0700
0300
0300
0300
0600
ENDCHAR
STARTCHAR gcommaaccent
ENCODING 291
SWIDTH 623 0
DWIDTH 12 0
BBX 9 20 1 -4
BITMAP
0C00
1800
1800
1C00
1C00
0000
3D80
7F80
6380
C180
C180
C180
C180
E380
7D80
3980
0180
4300
7F00
7E00
ENDCHAR
STARTCHAR Hcircumflex
ENCODING 292
SWIDTH 735 0
DWIDTH 14 0
BBX 10 18 2 0
BITMAP
0C00
1E00
3300
0000
C0C0
C0C0
C0C0
C0C0
C0C0
C0C0
FFC0
FFC0
C0C0
C0C0
C0C0
C0C0
C0C0
C0C0
ENDCHAR
STARTCHAR hcircumflex
ENCODING 293
SWIDTH 620 0
DWIDTH 12 0
BBX 9 18 1 0
BITMAP
3000
7800
CC00
0000
6000
6000
6000
6000
6700
6F80
7180
6180
6180
6180
6180
6180
6180
6180
ENDCHAR
STARTCHAR Hbar
ENCODING 294
SWIDTH 735 0
DWIDTH 14 0
BBX 10 14 2 0
BITMAP
C0C0
C0C0
C0C0
FFC0
FFC0
C0C0
FFC0
FFC0
C0C0
C0C0
C0C0
C0C0
C0C0
C0C0
ENDCHAR
STARTCHAR hbar
ENCODING 295
SWIDTH 620 0
DWIDTH 12 0
BBX 9 14 1 0
BITMAP
6000
6000
FC00
FC00
6700
6F80
7180
6180
6180
6180
6180
6180
6180
6180
ENDCHAR
STARTCHAR Itilde
ENCODING 296
SWIDTH 288 0
DWIDTH 5 0
BBX 6 17 0 0
BITMAP
F4
B8
00
30
30
30
30
30
30
30
30
30
30
30
30
30
30
ENDCHAR
STARTCHAR itilde
ENCODING 297
SWIDTH 289 0
DWIDTH 5 0
BBX 6 13 0 0
BITMAP
F4
B8
00
30
30
30
30
30
30
30
30
30
30
ENDCHAR
STARTCHAR Imacron
ENCODING 298
SWIDTH 288 0
DWIDTH 5 0
BBX 5 17 1 0
BITMAP
F8
F8
00
60
60
60
60
60
60
60
60
60
60
60
60
60
60
ENDCHAR
STARTCHAR imacron
ENCODING 299
SWIDTH 289 0
DWIDTH 5 0
BBX 5 13 1 0
BITMAP
F8
F8
00
60
60
60
60
60
60
60
60
60
60
ENDCHAR
STARTCHAR Ibreve
ENCODING 300
SWIDTH 288 0
DWIDTH 5 0
BBX 6 18 0 0
BITMAP
84
FC
78
00
30
30
30
30
30
30
30
30
30
30
30
30
30
30
ENDCHAR
STARTCHAR ibreve
ENCODING 301
SWIDTH 289 0
DWIDTH 5 0
BBX 6 14 0 0
BITMAP
84
FC
78
00
30
30
30
30
30
30
30
30
30
30
ENDCHAR
STARTCHAR Iogonek
ENCODING 302
SWIDTH 288 0
DWIDTH 5 0
BBX 3 18 2 -4
BITMAP
C0
C0
C0
C0
C0
C0
C0
C0
C0
C0
C0
C0
C0
C0
00
40
80
E0
ENDCHAR
STARTCHAR iogonek
ENCODING 303
SWIDTH 289 0
DWIDTH 5 0
BBX 3 18 2 -4
BITMAP
C0
C0
00
00
C0
C0
C0
C0
C0
C0
C0
C0
C0
C0
00
40
80
E0
ENDCHAR
STARTCHAR Idotaccent
ENCODING 304
SWIDTH 288 0
DWIDTH 5 0
BBX 2 17 2 0
BITMAP
C0
C0
00
C0
C0
C0
C0
C0
C0
C0
C0
C0
C0
C0
C0
C0
C0
ENDCHAR
STARTCHAR dotlessi
ENCODING 305
SWIDTH 289 0
DWIDTH 5 0
BBX 2 10 2 0
BITMAP
C0
C0
C0
C0
C0
C0
C0
C0
C0
C0
ENDCHAR
STARTCHAR IJ
ENCODING 306
SWIDTH 585 0
DWIDTH 11 0
BBX 8 18 2 -4
BITMAP
C3
C3
C3
C3
C3
C3
C3
C3
C3
C3
C3
C3
C3
C3
03
03
3E
3C
ENDCHAR
STARTCHAR ij
ENCODING 307
SWIDTH 579 0
DWIDTH 11 0
BBX 8 18 2 -4
BITMAP
C3
C3
00
00
C3
C3
C3
C3
C3
C3
C3
C3
C3
C3
03
23
3E
3C
ENDCHAR
STARTCHAR Jcircumflex
ENCODING 308
SWIDTH 311 0
DWIDTH 6 0
BBX 7 22 -1 -4
BITMAP
18
3C
66
00
0C
0C
0C
0C
0C
0C
0C
0C
0C
0C
0C
0C
0C
0C
0C
0C
F8
F0
ENDCHAR
STARTCHAR jcircumflex
ENCODING 309
SWIDTH 304 0
DWIDTH 6 0
BBX 7 18 -1 -4
BITMAP
18
3C
66
00
0C
0C
0C
0C
0C
0C
0C
0C
0C
0C
0C
8C
F8
F0
ENDCHAR
STARTCHAR Kcommaaccent
ENCODING 310
SWIDTH 653 0
DWIDTH 12 0
BBX 10 22 2 -8
BITMAP
C180
C300
C700
CE00
CC00
D800
F800
F800
DC00
CC00
C600
C300
C380
C1C0
0000
1C00
1C00
1C00
0C00
0C00
0C00
1800
ENDCHAR
STARTCHAR kcommaaccent
ENCODING 311
SWIDTH 585 0
DWIDTH 11 0
BBX 9 22 2 -8
BITMAP
C000
C000
C000
C000
C700
C600
CC00
D800
F800
F800
DC00
CE00
C700
C380
0000
1C00
1C00
1C00
0C00
0C00
0C00
1800
ENDCHAR
STARTCHAR kgreenlandic
ENCODING 312
SWIDTH 585 0
DWIDTH 11 0
BBX 9 10 2 0
BITMAP
C700
C600
CC00
D800
F800
F800
DC00
CE00
C700
C380
ENDCHAR
STARTCHAR Lacute
ENCODING 313
SWIDTH 533 0
DWIDTH 10 0
BBX 8 18 2 0
BITMAP
18
30
60
00
C0
C0
C0
C0
C0
C0
C0
C0
C0
C0
C0
C0
FF
FF
ENDCHAR
STARTCHAR lacute
ENCODING 314
SWIDTH 289 0
DWIDTH 5 0
BBX 4 18 2 0
BITMAP
30
60
C0
00
C0
C0
C0
C0
C0
C0
C0
C0
C0
C0
C0
C0
C0
C0
ENDCHAR
STARTCHAR Lcommaaccent
ENCODING 315
SWIDTH 533 0
DWIDTH 10 0
BBX 8 22 2 -8
BITMAP
C0
C0
C0
C0
C0
C0
C0
C0
C0
C0
C0
C0
FF
FF
00
38
38
38
18
18
18
30
ENDCHAR
STARTCHAR lcommaaccent
ENCODING 316
SWIDTH 289 0
DWIDTH 5 0
BBX 3 22 2 -8
BITMAP
C0
C0
C0
C0
C0
C0
C0
C0
C0
C0
C0
C0
C0
C0
00
E0
E0
E0
60
60
60
C0
ENDCHAR
STARTCHAR Lcaron
ENCODING 317
SWIDTH 735 0
DWIDTH 14 0
BBX 12 14 2 0
BITMAP
C070
C070
C030
C030
C060
C000
C000
C000
C000
C000
C000
C000
FF00
FF00
ENDCHAR
STARTCHAR lcaron
ENCODING 318
SWIDTH 504 0
DWIDTH 9 0
BBX 7 14 2 0
BITMAP
CE
CE
C6
C6
CC
C0
C0
C0
C0
C0
C0
C0
C0
C0
ENDCHAR
STARTCHAR Ldot
ENCODING 319
SWIDTH 822 0
DWIDTH 22 0
BBX 15 14 2 0
BITMAP
C000
C000
C000
C000
C000
C000
C000
C006
C006
C000
C000
C000
FF00
FF00
ENDCHAR
STARTCHAR ldot
ENCODING 320
SWIDTH 591 0
DWIDTH 17 0
BBX 10 14 2 0
BITMAP
C000
C000
C000
C000
C000
C000
C000
C0C0
C0C0
C000
C000
C000
C000
C000
ENDCHAR
STARTCHAR Lslash
ENCODING 321
SWIDTH 533 0
DWIDTH 10 0
BBX 10 14 0 0
BITMAP
3000
3000
3000
3000
3400
3C00
3800
F000
B000
3000
3000
3000
3FC0
3FC0
ENDCHAR
STARTCHAR lslash
ENCODING 322
SWIDTH 289 0
DWIDTH 5 0
BBX 6 14 0 0
BITMAP
30
30
30
30
34
3C
30
F0
B0
30
30
30
30
30
ENDCHAR
STARTCHAR Nacute
ENCODING 323
SWIDTH 741 0
DWIDTH 14 0
BBX 10 18 2 0
BITMAP
0600
0C00
1800
0000
C0C0
E0C0
F0C0
F0C0
F8C0
D8C0
CCC0
CCC0
C6C0
C7C0
C3C0
C3C0
C1C0
C0C0
ENDCHAR
STARTCHAR nacute
ENCODING 324
SWIDTH 620 0
DWIDTH 12 0
BBX 8 14 2 0
BITMAP
06
0C
18
00
CE
DF
E3
C3
C3
C3
C3
C3
C3
C3
ENDCHAR
STARTCHAR Ncommaaccent
ENCODING 325
SWIDTH 741 0
DWIDTH 14 0
BBX 10 22 2 -8
BITMAP
C0C0
E0C0
F0C0
F0C0
F8C0
D8C0
CCC0
CCC0
C6C0
C7C0
C3C0
C3C0
C1C0
C0C0
0000
0E00
0E00
0E00
0600
0600
0600
0C00
ENDCHAR
STARTCHAR ncommaaccent
ENCODING 326
SWIDTH 620 0
DWIDTH 12 0
BBX 8 18 2 -8
BITMAP
CE
DF
E3
C3
C3
C3
C3
C3
C3
C3
00
1C
1C
1C
0C
0C
0C
18
ENDCHAR
STARTCHAR Ncaron
ENCODING 327
SWIDTH 741 0
DWIDTH 14 0
BBX 10 18 2 0
BITMAP
3300
1E00
0C00
0000
C0C0
E0C0
F0C0
F0C0
F8C0
D8C0
CCC0
CCC0
C6C0
C7C0
C3C0
C3C0
C1C0
C0C0
ENDCHAR
STARTCHAR ncaron
ENCODING 328
SWIDTH 620 0
DWIDTH 12 0
BBX 8 14 2 0
BITMAP
66
3C
18
00
CE
DF
E3
C3
C3
C3
C3
C3
C3
C3
ENDCHAR
STARTCHAR napostrophe
ENCODING 329
SWIDTH 838 0
DWIDTH 16 0
BBX 13 14 1 0
BITMAP
E000
E000
6000
6000
C670
06F8
0718
0618
0618
0618
0618
0618
0618
0618
ENDCHAR
STARTCHAR Eng
ENCODING 330
SWIDTH 741 0
DWIDTH 14 0
BBX 10 18 2 -4
BITMAP
C0C0
E0C0
F0C0
F0C0
F8C0
D8C0
CCC0
CCC0
C6C0
C7C0
C3C0
C3C0
C1C0
C0C0
00C0
08C0
0F80
0F00
ENDCHAR
STARTCHAR eng
ENCODING 331
SWIDTH 620 0
DWIDTH 12 0
BBX 8 14 2 -4
BITMAP
CE
DF
E3
C3
C3
C3
C3
C3
C3
C3
03
23
3E
3C
ENDCHAR
STARTCHAR Omacron
ENCODING 332
SWIDTH 777 0
DWIDTH 15 0
BBX 13 17 1 0
BITMAP
0F80
0F80
0000
0F80
3FE0
7070
6030
E038
C018
C018
C018
C018
E038
6030
7070
3FE0
0F80
ENDCHAR
STARTCHAR omacron
ENCODING 333
SWIDTH 614 0
DWIDTH 12 0
BBX 10 13 1 0
BITMAP
1F00
1F00
0000
1E00
7F80
6180
C0C0
C0C0
C0C0
C0C0
6180
7F80
1E00
ENDCHAR
STARTCHAR Obreve
ENCODING 334
SWIDTH 777 0
DWIDTH 15 0
BBX 13 18 1 0
BITMAP
0840
0FC0
0780
0000
0F80
3FE0
7070
6030
E038
C018
C018
C018
C018
E038
6030
7070
3FE0
0F80
ENDCHAR
STARTCHAR obreve
ENCODING 335
SWIDTH 614 0
DWIDTH 12 0
BBX 10 14 1 0
BITMAP
2100
3F00
1E00
0000
1E00
7F80
6180
C0C0
C0C0
C0C0
C0C0
6180
7F80
1E00
ENDCHAR
STARTCHAR Ohungarumlaut
ENCODING 336
SWIDTH 777 0
DWIDTH 15 0
BBX 13 18 1 0
BITMAP
03C0
0580
0F00
0000
0F80
3FE0
7070
6030
E038
C018
C018
C018
C018
E038
6030
7070
3FE0
0F80
ENDCHAR
STARTCHAR ohungarumlaut
ENCODING 337
SWIDTH 614 0
DWIDTH 12 0
BBX 10 14 1 0
BITMAP
0780
0B00
1E00
0000
1E00
7F80
6180
C0C0
C0C0
C0C0
C0C0
6180
7F80
1E00
ENDCHAR
STARTCHAR OE
ENCODING 338
SWIDTH 1000 0
DWIDTH 19 0
BBX 17 14 1 0
BITMAP
0F7F80
3FFF80
70E000
606000
C06000
C06000
C07F00
C07F00
C06000
C06000
606000
70E000
3FFF80
0F7F80
ENDCHAR
STARTCHAR oe
ENCODING 339
SWIDTH 930 0
DWIDTH 18 0
BBX 15 10 1 0
BITMAP
1C78
7EFC
63C6
C186
C1FE
C1FE
C180
63C2
7E7E
3E3C
ENDCHAR
STARTCHAR Racute
ENCODING 340
SWIDTH 633 0
DWIDTH 12 0
BBX 10 18 2 0
BITMAP
0600
0C00
1800
0000
FC00
FE00
C700
C300
C300
C200
C600
F800
FC00
CE00
C600
C300
C380
C1C0
ENDCHAR
STARTCHAR racute
ENCODING 341
SWIDTH 409 0
DWIDTH 8 0
BBX 6 14 2 0
BITMAP
18
30
60
00
CC
DC
E0
C0
C0
C0
C0
C0
C0
C0
ENDCHAR
STARTCHAR Rcommaaccent
ENCODING 342
SWIDTH 633 0
DWIDTH 12 0
BBX 10 22 2 -8
BITMAP
FC00
FE00
C700
C300
C300
C200
C600
F800
FC00
CE00
C600
C300
C380
C1C0
0000
1C00
1C00
1C00
0C00
0C00
0C00
1800
ENDCHAR
STARTCHAR rcommaaccent
ENCODING 343
SWIDTH 409 0
DWIDTH 8 0
BBX 6 18 2 -8
BITMAP
CC
DC
E0
C0
C0
C0
C0
C0
C0
C0
00
E0
E0
E0
60
60
60
C0
ENDCHAR
STARTCHAR Rcaron
ENCODING 344
SWIDTH 633 0
DWIDTH 12 0
BBX 10 18 2 0
BITMAP
6600
3C00
1800
0000
FC00
FE00
C700
C300
C300
C200
C600
F800
FC00
CE00
C600
C300
C380
C1C0
ENDCHAR
STARTCHAR rcaron
ENCODING 345
SWIDTH 409 0
DWIDTH 8 0
BBX 6 14 2 0
BITMAP
CC
78
30
00
CC
DC
E0
C0
C0
C0
C0
C0
C0
C0
ENDCHAR
STARTCHAR Sacute
ENCODING 346
SWIDTH 539 0
DWIDTH 10 0
BBX 8 18 1 0
BITMAP
0C
18
30
00
3E
7E
E2
C0
C0
70
3C
1E
07
03
03
87
FE
7C
ENDCHAR
STARTCHAR sacute
ENCODING 347
SWIDTH 510 0
DWIDTH 10 0
BBX 7 14 1 0
BITMAP
0C
18
30
00
7C
FC
C0
E0
78
3E
06
86
FE
7C
ENDCHAR
STARTCHAR Scircumflex
ENCODING 348
SWIDTH 539 0
DWIDTH 10 0
BBX 8 18 1 0
BITMAP
18
3C
66
00
3E
7E
E2
C0
C0
70
3C
1E
07
03
03
87
FE
7C
ENDCHAR
STARTCHAR scircumflex
ENCODING 349
SWIDTH 510 0
DWIDTH 10 0
BBX 7 14 1 0
BITMAP
30
78
CC
00
7C
FC
C0
E0
78
3E
06
86
FE
7C
ENDCHAR
STARTCHAR Scedilla
ENCODING 350
SWIDTH 539 0
DWIDTH 10 0
BBX 8 18 1 -4
BITMAP
3E
7E
E2
C0
C0
70
3C
1E
07
03
03
87
FE
7C
18
0C
0C
1C
ENDCHAR
STARTCHAR scedilla
ENCODING 351
SWIDTH 510 0
DWIDTH 10 0
BBX 7 14 1 -4
BITMAP
7C
FC
C0
E0
78
3E
06
86
FE
7C
30
18
18
38
ENDCHAR
STARTCHAR Scaron
ENCODING 352
SWIDTH 539 0
DWIDTH 10 0
BBX 8 18 1 0
BITMAP
66
3C
18
00
3E
7E
E2
C0
C0
70
3C
1E
07
03
03
87
FE
7C
ENDCHAR
STARTCHAR scaron
ENCODING 353
SWIDTH 510 0
DWIDTH 10 0
BBX 7 14 1 0
BITMAP
66
3C
18
00
7C
FC
C0
E0
78
3E
06
86
FE
7C
ENDCHAR
STARTCHAR Tcommaaccent
ENCODING 354
SWIDTH 633 0
DWIDTH 12 0
BBX 12 18 0 -4
BITMAP
FFF0
FFF0
0600
0600
0600
0600
0600
0600
0600
0600
0600
0600
0600
0600
0600
0300
0300
0700
ENDCHAR
STARTCHAR tcommaaccent
ENCODING 355
SWIDTH 374 0
DWIDTH 7 0
BBX 6 17 1 -4
BITMAP
60
60
60
FC
FC
60
60
60
60
60
60
7C
3C
30
18
18
38
ENDCHAR
STARTCHAR Tcaron
ENCODING 356
SWIDTH 633 0
DWIDTH 12 0
BBX 12 18 0 0
BITMAP
1980
0F00
0600
0000
FFF0
FFF0
0600
0600
0600
0600
0600
0600
0600
0600
0600
0600
0600
0600
ENDCHAR
STARTCHAR tcaron
ENCODING 357
SWIDTH 584 0
DWIDTH 11 0
BBX 10 14 1 0
BITMAP
01C0
61C0
60C0
60C0
FD80
FC00
6000
6000
6000
6000
6000
6000
7C00
3C00
ENDCHAR
STARTCHAR Tbar
ENCODING 358
SWIDTH 633 0
DWIDTH 12 0
BBX 12 14 0 0
BITMAP
FFF0
FFF0
0600
0600
0600
0600
1F80
1F80
0600
0600
0600
0600
0600
0600
ENDCHAR
STARTCHAR tbar
ENCODING 359
SWIDTH 374 0
DWIDTH 7 0
BBX 6 13 1 0
BITMAP
60
60
60
FC
FC
60
60
FC
FC
60
60
7C
3C
ENDCHAR
STARTCHAR Utilde
ENCODING 360
SWIDTH 693 0
DWIDTH 13 0
BBX 10 17 2 0
BITMAP
3D00
2E00
0000
C0C0
C0C0
C0C0
C0C0
C0C0
C0C0
C0C0
C0C0
C0C0
C0C0
C0C0
E1C0
7F80
3F00
ENDCHAR
STARTCHAR utilde
ENCODING 361
SWIDTH 620 0
DWIDTH 12 0
BBX 8 13 2 0
BITMAP
7A
5C
00
C3
C3
C3
C3
C3
C3
C3
C7
FB
73
ENDCHAR
STARTCHAR Umacron
ENCODING 362
SWIDTH 693 0
DWIDTH 13 0
BBX 10 17 2 0
BITMAP
1F00
1F00
0000
C0C0
C0C0
C0C0
C0C0
C0C0
C0C0
C0C0
C0C0
C0C0
C0C0
C0C0
E1C0
7F80
3F00
ENDCHAR
STARTCHAR umacron
ENCODING 363
SWIDTH 620 0
DWIDTH 12 0
BBX 8 13 2 0
BITMAP
3E
3E
00
C3
C3
C3
C3
C3
C3
C3
C7
FB
73
ENDCHAR
STARTCHAR Ubreve
ENCODING 364
SWIDTH 693 0
DWIDTH 13 0
BBX 10 18 2 0
BITMAP
2100
3F00
1E00
0000
C0C0
C0C0
C0C0
C0C0
C0C0
C0C0
C0C0
C0C0
C0C0
C0C0
C0C0
E1C0
7F80
3F00
ENDCHAR
STARTCHAR ubreve
ENCODING 365
SWIDTH 620 0
DWIDTH 12 0
BBX 8 14 2 0
BITMAP
42
7E
3C
00
C3
C3
C3
C3
C3
C3
C3
C7
FB
73
ENDCHAR
STARTCHAR Uring
ENCODING 366
SWIDTH 693 0
DWIDTH 13 0
BBX 10 18 2 0
BITMAP
0E00
0A00
0E00
0000
C0C0
C0C0
C0C0
C0C0
C0C0
C0C0
C0C0
C0C0
C0C0
C0C0
C0C0
E1C0
7F80
3F00
ENDCHAR
STARTCHAR uring
ENCODING 367
SWIDTH 620 0
DWIDTH 12 0
BBX 8 14 2 0
BITMAP
1C
14
1C
00
C3
C3
C3
C3
C3
C3
C3
C7
FB
73
ENDCHAR
STARTCHAR Uhungarumlaut
ENCODING 368
SWIDTH 693 0
DWIDTH 13 0
BBX 10 18 2 0
BITMAP
0780
0B00
1E00
0000
C0C0
C0C0
C0C0
C0C0
C0C0
C0C0
C0C0
C0C0
C0C0
C0C0
C0C0
E1C0
7F80
3F00
ENDCHAR
STARTCHAR uhungarumlaut
ENCODING 369
SWIDTH 620 0
DWIDTH 12 0
BBX 8 14 2 0
BITMAP
0F
16
3C
00
C3
C3
C3
C3
C3
C3
C3
C7
FB
73
ENDCHAR
STARTCHAR Uogonek
ENCODING 370
SWIDTH 693 0
DWIDTH 13 0
BBX 10 18 2 -4
BITMAP
C0C0
C0C0
C0C0
C0C0
C0C0
C0C0
C0C0
C0C0
C0C0
C0C0
C0C0
E1C0
7F80
3F00
0000
0400
0800
0E00
ENDCHAR
STARTCHAR uogonek
ENCODING 371
SWIDTH 620 0
DWIDTH 12 0
BBX 8 14 2 -4
BITMAP
C3
C3
C3
C3
C3
C3
C3
C7
FB
73
00
08
10
1C
ENDCHAR
STARTCHAR Wcircumflex
ENCODING 372
SWIDTH 855 0
DWIDTH 16 0
BBX 16 18 0 0
BITMAP
0180
03C0
0660
0000
C183
C183
63C7
63C6
63C6
63C6
36EC
366C
366C
366C
1E78
1C38
1C38
1C38
ENDCHAR
STARTCHAR wcircumflex
ENCODING 373
SWIDTH 840 0
DWIDTH 15 0
BBX 14 14 0 0
BITMAP
0300
0780
0CC0
0000
C30C
C78C
6798
6798
6798
6CF0
3CF0
3CF0
38F0
3860
ENDCHAR
STARTCHAR Ycircumflex
ENCODING 374
SWIDTH 623 0
DWIDTH 12 0
BBX 12 18 0 0
BITMAP
0600
0F00
1980
0000
E030
6060
70E0
30C0
1980
1F80
0F00
0700
0600
0600
0600
0600
0600
0600
ENDCHAR
STARTCHAR ycircumflex
ENCODING 375
SWIDTH 568 0
DWIDTH 10 0
BBX 10 18 0 -4
BITMAP
0C00
1E00
3300
0000
C0C0
61C0
6180
6180
3300
3300
1F00
1E00
1E00
0C00
0C00
1C00
1800
3800
ENDCHAR
STARTCHAR Ydieresis
ENCODING 376
SWIDTH 623 0
DWIDTH 12 0
BBX 12 17 0 0
BITMAP
0980
0980
0000
E030
6060
70E0
30C0
1980
1F80
0F00
0700
0600
0600
0600
0600
0600
0600
ENDCHAR
STARTCHAR Zacute
ENCODING 377
SWIDTH 605 0
DWIDTH 11 0
BBX 10 18 1 0
BITMAP
0300
0600
0C00
0000
FFC0
FFC0
0180
0380
0300
0600
0E00
1C00
1800
3000
7000
E000
FFC0
FFC0
ENDCHAR
STARTCHAR zacute
ENCODING 378
SWIDTH 573 0
DWIDTH 11 0
BBX 9 14 1 0
BITMAP
0600
0C00
1800
0000
FF80
FF80
0300
0600
0C00
1800
3000
6000
FF80
FF80
ENDCHAR
STARTCHAR Zdotaccent
ENCODING 379
SWIDTH 605 0
DWIDTH 11 0
BBX 10 17 1 0
BITMAP
0C00
0C00
0000
FFC0
FFC0
0180
0380
0300
0600
0E00
1C00
1800
3000
7000
E000
FFC0
FFC0
ENDCHAR
STARTCHAR zdotaccent
ENCODING 380
SWIDTH 573 0
DWIDTH 11 0
BBX 9 13 1 0
BITMAP
0C00
0C00
0000
FF80
FF80
0300
0600
0C00
1800
3000
6000
FF80
FF80
ENDCHAR
STARTCHAR Zcaron
ENCODING 381
SWIDTH 605 0
DWIDTH 11 0
BBX 10 18 1 0
BITMAP
3300
1E00
0C00
0000
FFC0
FFC0
0180
0380
0300
0600
0E00
1C00
1800
3000
7000
E000
FFC0
FFC0
ENDCHAR
STARTCHAR zcaron
ENCODING 382
SWIDTH 573 0
DWIDTH 11 0
BBX 9 14 1 0
BITMAP
3300
1E00
0C00
0000
FF80
FF80
0300
0600
0C00
1800
3000
6000
FF80
FF80
ENDCHAR
STARTCHAR uni0186
ENCODING 390
SWIDTH 692 0
DWIDTH 13 0
BBX 11 14 1 0
BITMAP
7E00
FF80
81C0
00C0
0060
0060
0060
0060
0060
00E0
00C0
81C0
FF80
7E00
ENDCHAR
STARTCHAR uni0189
ENCODING 393
SWIDTH 749 0
DWIDTH 14 0
BBX 13 14 0 0
BITMAP
3F80
3FE0
3070
3030
3018
3018
FE18
FE18
3018
3018
3030
3070
3FE0
3F80
ENDCHAR
STARTCHAR uni018E
ENCODING 398
SWIDTH 542 0
DWIDTH 10 0
BBX 8 14 2 0
BITMAP
FF
FF
03
03
03
03
7F
7F
03
03
03
03
FF
FF
ENDCHAR
STARTCHAR florin
ENCODING 402
SWIDTH 633 0
DWIDTH 12 0
BBX 9 18 2 -4
BITMAP
0780
0F80
1800
1800
3000
3000
3000
FC00
FC00
3000
3000
6000
6000
6000
6000
6000
C000
C000
ENDCHAR
STARTCHAR uni0197
ENCODING 407
SWIDTH 288 0
DWIDTH 5 0
BBX 6 14 0 0
BITMAP
30
30
30
30
30
30
FC
FC
30
30
30
30
30
30
ENDCHAR
STARTCHAR uni019A
ENCODING 410
SWIDTH 289 0
DWIDTH 5 0
BBX 6 14 0 0
BITMAP
30
30
30
30
30
30
FC
FC
30
30
30
30
30
30
ENDCHAR
STARTCHAR uni019D
ENCODING 413
SWIDTH 741 0
DWIDTH 14 0
BBX 14 18 -2 -4
BITMAP
0C0C
0E0C
0F0C
0F0C
0F8C
0D8C
0CCC
0CCC
0C6C
0C7C
0C3C
0C3C
0C1C
0C0C
0C00
8C00
F800
F000
ENDCHAR
STARTCHAR uni019F
ENCODING 415
SWIDTH 777 0
DWIDTH 15 0
BBX 13 14 1 0
BITMAP
0F80
3FE0
7070
6030
E038
C018
FFF8
FFF8
C018
E038
6030
7070
3FE0
0F80
ENDCHAR
STARTCHAR Ohorn
ENCODING 416
SWIDTH 777 0
DWIDTH 15 0
BBX 15 14 1 0
BITMAP
0F8E
3FEE
7076
6036
E03C
C018
C018
C018
C018
E038
6030
7070
3FE0
0F80
ENDCHAR
STARTCHAR ohorn
ENCODING 417
SWIDTH 614 0
DWIDTH 12 0
BBX 12 10 1 0
BITMAP
1E70
7FF0
61B0
C0F0
C0E0
C0C0
C0C0
6180
7F80
1E00
ENDCHAR
STARTCHAR uni01A7
ENCODING 423
SWIDTH 539 0
DWIDTH 10 0
BBX 8 14 1 0
BITMAP
7C
7E
47
03
03
0E
3C
78
E0
C0
C0
E1
7F
3E
ENDCHAR
STARTCHAR uni01A8
ENCODING 424
SWIDTH 510 0
DWIDTH 10 0
BBX 7 10 1 0
BITMAP
7C
7E
06
0E
3C
F8
C0
C2
FE
7C
ENDCHAR
STARTCHAR uni01AE
ENCODING 430
SWIDTH 633 0
DWIDTH 12 0
BBX 12 18 0 -4
BITMAP
FFF0
FFF0
0600
0600
0600
0600
0600
0600
0600
0600
0600
0600
0600
0600
0600
0620
03E0
01E0
ENDCHAR
STARTCHAR Uhorn
ENCODING 431
SWIDTH 693 0
DWIDTH 13 0
BBX 12 14 2 0
BITMAP
C0F0
C0F0
C0F0
C0F0
C0E0
C0C0
C0C0
C0C0
C0C0
C0C0
C0C0
E1C0
7F80
3F00
ENDCHAR
STARTCHAR uhorn
ENCODING 432
SWIDTH 620 0
DWIDTH 12 0
BBX 11 10 2 0
BITMAP
C3E0
C3E0
C360
C360
C3C0
C300
C300
C700
FB00
7300
ENDCHAR
STARTCHAR uni01B5
ENCODING 437
SWIDTH 605 0
DWIDTH 11 0
BBX 10 14 1 0
BITMAP
FFC0
FFC0
0180
0380
0300
0600
3F00
3F00
1800
3000
7000
E000
FFC0
FFC0
ENDCHAR
STARTCHAR uni01B6
ENCODING 438
SWIDTH 573 0
DWIDTH 11 0
BBX 9 10 1 0
BITMAP
FF80
FF80
0300
0600
3F00
3F00
3000
6000
FF80
FF80
ENDCHAR
STARTCHAR uni01BB
ENCODING 443
SWIDTH 633 0
DWIDTH 12 0
BBX 8 14 2 0
BITMAP
7C
FE
87
03
03
03
FF
FF
38
30
60
C0
FF
FF
ENDCHAR
STARTCHAR uni01BC
ENCODING 444
SWIDTH 633 0
DWIDTH 12 0
BBX 7 14 3 0
BITMAP
FE
FE
C0
C0
C0
F8
FC
0E
06
06
06
8E
FC
F8
ENDCHAR
STARTCHAR uni01C0
ENCODING 448
SWIDTH 265 0
DWIDTH 5 0
BBX 2 18 2 -4
BITMAP
C0
C0
C0
C0
C0
C0
C0
C0
C0
C0
C0
C0
C0
C0
C0
C0
C0
C0
ENDCHAR
STARTCHAR uni01C2
ENCODING 450
SWIDTH 633 0
DWIDTH 12 0
BBX 11 18 1 -3
BITMAP
0600
0600
0600
0600
0600
0600
0600
FFE0
FFE0
0600
FFE0
FFE0
0600
0600
0600
0600
0600
0600
ENDCHAR
STARTCHAR uni01C3
ENCODING 451
SWIDTH 205 0
DWIDTH 6 0
BBX 2 14 2 0
BITMAP
C0
C0
C0
C0
C0
C0
C0
C0
C0
C0
00
00
C0
C0
ENDCHAR
STARTCHAR uni01CD
ENCODING 461
SWIDTH 690 0
DWIDTH 13 0
BBX 13 18 0 0
BITMAP
0CC0
0780
0300
0000
0700
0700
0F80
0D80
0D80
18C0
18C0
30E0
3FE0
3FE0
6030
6030
E030
C018
ENDCHAR
STARTCHAR uni01CE
ENCODING 462
SWIDTH 552 0
DWIDTH 10 0
BBX 9 14 1 0
BITMAP
3300
1E00
0C00
0000
3E00
7F00
4300
0300
3F00
7F00
C300
C300
FF80
7380
ENDCHAR
STARTCHAR uni01CF
ENCODING 463
SWIDTH 288 0
DWIDTH 5 0
BBX 6 18 0 0
BITMAP
CC
78
30
00
30
30
30
30
30
30
30
30
30
30
30
30
30
30
ENDCHAR
STARTCHAR uni01D0
ENCODING 464
SWIDTH 289 0
DWIDTH 5 0
BBX 6 14 0 0
BITMAP
CC
78
30
00
30
30
30
30
30
30
30
30
30
30
ENDCHAR
STARTCHAR uni01D1
ENCODING 465
SWIDTH 777 0
DWIDTH 15 0
BBX 13 18 1 0
BITMAP
0CC0
0780
0300
0000
0F80
3FE0
7070
6030
E038
C018
C018
C018
C018
E038
6030
7070
3FE0
0F80
ENDCHAR
STARTCHAR uni01D2
ENCODING 466
SWIDTH 614 0
DWIDTH 12 0
BBX 10 14 1 0
BITMAP
3300
1E00
0C00
0000
1E00
7F80
6180
C0C0
C0C0
C0C0
C0C0
6180
7F80
1E00
ENDCHAR
STARTCHAR uni01D3
ENCODING 467
SWIDTH 693 0
DWIDTH 13 0
BBX 10 18 2 0
BITMAP
3300
1E00
0C00
0000
C0C0
C0C0
C0C0
C0C0
C0C0
C0C0
C0C0
C0C0
C0C0
C0C0
C0C0
E1C0
7F80
3F00
ENDCHAR
STARTCHAR uni01D4
ENCODING 468
SWIDTH 620 0
DWIDTH 12 0
BBX 8 14 2 0
BITMAP
66
3C
18
00
C3
C3
C3
C3
C3
C3
C3
C7
FB
73
ENDCHAR
STARTCHAR uni01D5
ENCODING 469
SWIDTH 693 0
DWIDTH 13 0
BBX 10 20 2 0
BITMAP
3E00
3E00
0000
2600
2600
0000
C0C0
C0C0
C0C0
C0C0
C0C0
C0C0
C0C0
C0C0
C0C0
C0C0
C0C0
E1C0
7F80
3F00
ENDCHAR
STARTCHAR uni01D6
ENCODING 470
SWIDTH 620 0
DWIDTH 12 0
BBX 8 16 2 0
BITMAP
3E
3E
00
26
26
00
C3
C3
C3
C3
C3
C3
C3
C7
FB
73
ENDCHAR
STARTCHAR uni01D7
ENCODING 471
SWIDTH 693 0
DWIDTH 13 0
BBX 10 21 2 0
BITMAP
0300
0600
0C00
0000
2600
2600
0000
C0C0
C0C0
C0C0
C0C0
C0C0
C0C0
C0C0
C0C0
C0C0
C0C0
C0C0
E1C0
7F80
3F00
ENDCHAR
STARTCHAR uni01D8
ENCODING 472
SWIDTH 620 0
DWIDTH 12 0
BBX 8 17 2 0
BITMAP
06
0C
18
00
26
26
00
C3
C3
C3
C3
C3
C3
C3
C7
FB
73
ENDCHAR
STARTCHAR uni01D9
ENCODING 473
SWIDTH 693 0
DWIDTH 13 0
BBX 10 21 2 0
BITMAP
3300
1E00
0C00
0000
2600
2600
0000
C0C0
C0C0
C0C0
C0C0
C0C0
C0C0
C0C0
C0C0
C0C0
C0C0
C0C0
E1C0
7F80
3F00
ENDCHAR
STARTCHAR uni01DA
ENCODING 474
SWIDTH 620 0
DWIDTH 12 0
BBX 8 17 2 0
BITMAP
66
3C
18
00
26
26
00
C3
C3
C3
C3
C3
C3
C3
C7
FB
73
ENDCHAR
STARTCHAR uni01DB
ENCODING 475
SWIDTH 693 0
DWIDTH 13 0
BBX 10 21 2 0
BITMAP
3000
1800
0C00
0000
2600
2600
0000
C0C0
C0C0
C0C0
C0C0
C0C0
C0C0
C0C0
C0C0
C0C0
C0C0
C0C0
E1C0
7F80
3F00
ENDCHAR
STARTCHAR uni01DC
ENCODING 476
SWIDTH 620 0
DWIDTH 12 0
BBX 8 17 2 0
BITMAP
30
18
0C
00
26
26
00
C3
C3
C3
C3
C3
C3
C3
C7
FB
73
ENDCHAR
STARTCHAR uni01DD
ENCODING 477
SWIDTH 557 0
DWIDTH 11 0
BBX 8 10 1 0
BITMAP
7C
FE
87
03
FF
FF
C3
C6
7E
3C
ENDCHAR
STARTCHAR uni01DE
ENCODING 478
SWIDTH 690 0
DWIDTH 13 0
BBX 13 20 0 0
BITMAP
0F80
0F80
0000
0980
0980
0000
0700
0700
0F80
0D80
0D80
18C0
18C0
30E0
3FE0
3FE0
6030
6030
E030
C018
ENDCHAR
STARTCHAR uni01DF
ENCODING 479
SWIDTH 552 0
DWIDTH 10 0
BBX 9 16 1 0
BITMAP
3E00
3E00
0000
2600
2600
0000
3E00
7F00
4300
0300
3F00
7F00
C300
C300
FF80
7380
ENDCHAR
STARTCHAR uni01E0
ENCODING 480
SWIDTH 690 0
DWIDTH 13 0
BBX 13 20 0 0
BITMAP
0F80
0F80
0000
0300
0300
0000
0700
0700
0F80
0D80
0D80
18C0
18C0
30E0
3FE0
3FE0
6030
6030
E030
C018
ENDCHAR
STARTCHAR uni01E1
ENCODING 481
SWIDTH 552 0
DWIDTH 10 0
BBX 9 16 1 0
BITMAP
3E00
3E00
0000
0C00
0C00
0000
3E00
7F00
4300
0300
3F00
7F00
C300
C300
FF80
7380
ENDCHAR
STARTCHAR uni01E2
ENCODING 482
SWIDTH 907 0
DWIDTH 17 0
BBX 17 17 0 0
BITMAP
00F800
00F800
000000
00FF80
01FF80
03E000
03E000
076000
067F00
0E7F00
0C6000
1FE000
3FE000
306000
706000
607F80
C07F80
ENDCHAR
STARTCHAR uni01E3
ENCODING 483
SWIDTH 853 0
DWIDTH 16 0
BBX 14 13 1 0
BITMAP
07C0
07C0
0000
3CF0
7FF8
438C
030C
3FFC
7FFC
C300
C384
FDFC
70F8
ENDCHAR
STARTCHAR uni01E4
ENCODING 484
SWIDTH 723 0
DWIDTH 14 0
BBX 12 14 1 0
BITMAP
0FC0
3FE0
7020
6000
E000
C000
C000
C060
C060
C060
63F0
73F0
3FE0
0FC0
ENDCHAR
STARTCHAR uni01E5
ENCODING 485
SWIDTH 623 0
DWIDTH 12 0
BBX 9 14 1 -4
BITMAP
3D80
7F80
6380
C180
C180
C180
C180
E380
7D80
FF80
FF80
4300
7F00
7E00
ENDCHAR
STARTCHAR Gcaron
ENCODING 486
SWIDTH 723 0
DWIDTH 14 0
BBX 11 18 1 0
BITMAP
1980
0F00
0600
0000
0FC0
3FE0
7020
6000
E000
C000
C000
C060
C060
C060
6060
7060
3FE0
0FC0
ENDCHAR
STARTCHAR gcaron
ENCODING 487
SWIDTH 623 0
DWIDTH 12 0
BBX 9 18 1 -4
BITMAP
3300
1E00
0C00
0000
3D80
7F80
6380
C180
C180
C180
C180
E380
7D80
3980
0180
4300
7F00
7E00
ENDCHAR
STARTCHAR uni01E8
ENCODING 488
SWIDTH 653 0
DWIDTH 12 0
BBX 10 18 2 0
BITMAP
6600
3C00
1800
0000
C180
C300
C700
CE00
CC00
D800
F800
F800
DC00
CC00
C600
C300
C380
C1C0
ENDCHAR
STARTCHAR uni01E9
ENCODING 489
SWIDTH 585 0
DWIDTH 11 0
BBX 10 18 1 0
BITMAP
CC00
7800
3000
0000
6000
6000
6000
6000
6380
6300
6600
6C00
7C00
7C00
6E00
6700
6380
61C0
ENDCHAR
STARTCHAR uni01EA
ENCODING 490
SWIDTH 777 0
DWIDTH 15 0
BBX 13 18 1 -4
BITMAP
0F80
3FE0
7070
6030
E038
C018
C018
C018
C018
E038
6030
7070
3FE0
0F80
0000
0200
0400
0700
ENDCHAR
STARTCHAR uni01EB
ENCODING 491
SWIDTH 614 0
DWIDTH 12 0
BBX 10 14 1 -4
BITMAP
1E00
7F80
6180
C0C0
C0C0
C0C0
C0C0
6180
7F80
1E00
0000
0400
0800
0E00
ENDCHAR
STARTCHAR uni01EC
ENCODING 492
SWIDTH 777 0
DWIDTH 15 0
BBX 13 21 1 -4
BITMAP
0F80
0F80
0000
0F80
3FE0
7070
6030
E038
C018
C018
C018
C018
E038
6030
7070
3FE0
0F80
0000
0200
0400
0700
ENDCHAR
STARTCHAR uni01ED
ENCODING 493
SWIDTH 614 0
DWIDTH 12 0
BBX 10 17 1 -4
BITMAP
1F00
1F00
0000
1E00
7F80
6180
C0C0
C0C0
C0C0
C0C0
6180
7F80
1E00
0000
0400
0800
0E00
ENDCHAR
STARTCHAR uni01F0
ENCODING 496
SWIDTH 304 0
DWIDTH 6 0
BBX 7 18 -1 -4
BITMAP
66
3C
18
00
0C
0C
0C
0C
0C
0C
0C
0C
0C
0C
0C
8C
F8
F0
ENDCHAR
STARTCHAR uni01F4
ENCODING 500
SWIDTH 723 0
DWIDTH 14 0
BBX 11 18 1 0
BITMAP
0300
0600
0C00
0000
0FC0
3FE0
7020
6000
E000
C000
C000
C060
C060
C060
6060
7060
3FE0
0FC0
ENDCHAR
STARTCHAR uni01F5
ENCODING 501
SWIDTH 623 0
DWIDTH 12 0
BBX 9 18 1 -4
BITMAP
0300
0600
0C00
0000
3D80
7F80
6380
C180
C180
C180
C180
E380
7D80
3980
0180
4300
7F00
7E00
ENDCHAR
STARTCHAR uni01F8
ENCODING 504
SWIDTH 741 0
DWIDTH 14 0
BBX 10 18 2 0
BITMAP
3000
1800
0C00
0000
C0C0
E0C0
F0C0
F0C0
F8C0
D8C0
CCC0
CCC0
C6C0
C7C0
C3C0
C3C0
C1C0
C0C0
ENDCHAR
STARTCHAR uni01F9
ENCODING 505
SWIDTH 620 0
DWIDTH 12 0
BBX 8 14 2 0
BITMAP
60
30
18
00
CE
DF
E3
C3
C3
C3
C3
C3
C3
C3
ENDCHAR
STARTCHAR Aringacute
ENCODING 506
SWIDTH 690 0
DWIDTH 13 0
BBX 13 22 0 0
BITMAP
0180
0300
0600
0000
0700
0500
0700
0000
0700
0700
0F80
0D80
0D80
18C0
18C0
30E0
3FE0
3FE0
6030
6030
E030
C018
ENDCHAR
STARTCHAR aringacute
ENCODING 507
SWIDTH 552 0
DWIDTH 10 0
BBX 9 18 1 0
BITMAP
0600
0C00
1800
0000
1C00
1400
1C00
0000
3E00
7F00
4300
0300
3F00
7F00
C300
C300
FF80
7380
ENDCHAR
STARTCHAR AEacute
ENCODING 508
SWIDTH 907 0
DWIDTH 17 0
BBX 17 18 0 0
BITMAP
001800
003000
006000
000000
00FF80
01FF80
03E000
03E000
076000
067F00
0E7F00
0C6000
1FE000
3FE000
306000
706000
607F80
C07F80
ENDCHAR
STARTCHAR aeacute
ENCODING 509
SWIDTH 853 0
DWIDTH 16 0
BBX 14 14 1 0
BITMAP
00C0
0180
0300
0000
3CF0
7FF8
438C
030C
3FFC
7FFC
C300
C384
FDFC
70F8
ENDCHAR
STARTCHAR Oslashacute
ENCODING 510
SWIDTH 777 0
DWIDTH 15 0
BBX 13 18 1 0
BITMAP
00C0
0180
0300
0000
0FB8
3FF0
7070
60F0
E1F8
C398
C318
C618
CE18
FC38
7830
7070
7FE0
EF80
ENDCHAR
STARTCHAR oslashacute
ENCODING 511
SWIDTH 614 0
DWIDTH 12 0
BBX 10 14 1 0
BITMAP
0300
0600
0C00
0000
1FC0
7F80
6380
C7C0
CEC0
DCC0
F8C0
7180
7F80
FE00
ENDCHAR
STARTCHAR uni0200
ENCODING 512
SWIDTH 690 0
DWIDTH 13 0
BBX 13 18 0 0
BITMAP
1E00
0D00
0780
0000
0700
0700
0F80
0D80
0D80
18C0
18C0
30E0
3FE0
3FE0
6030
6030
E030
C018
ENDCHAR
STARTCHAR uni0201
ENCODING 513
SWIDTH 552 0
DWIDTH 10 0
BBX 9 14 1 0
BITMAP
7800
3400
1E00
0000
3E00
7F00
4300
0300
3F00
7F00
C300
C300
FF80
7380
ENDCHAR
STARTCHAR uni0202
ENCODING 514
SWIDTH 690 0
DWIDTH 13 0
BBX 13 18 0 0
BITMAP
0780
0FC0
0840
0000
0700
0700
0F80
0D80
0D80
18C0
18C0
30E0
3FE0
3FE0
6030
6030
E030
C018
ENDCHAR
STARTCHAR uni0203
ENCODING 515
SWIDTH 552 0
DWIDTH 10 0
BBX 9 14 1 0
BITMAP
1E00
3F00
2100
0000
3E00
7F00
4300
0300
3F00
7F00
C300
C300
FF80
7380
ENDCHAR
STARTCHAR uni0204
ENCODING 516
SWIDTH 542 0
DWIDTH 10 0
BBX 8 18 2 0
BITMAP
F0
68
3C
00
FF
FF
C0
C0
C0
C0
FE
FE
C0
C0
C0
C0
FF
FF
ENDCHAR
STARTCHAR uni0205
ENCODING 517
SWIDTH 557 0
DWIDTH 11 0
BBX 8 14 1 0
BITMAP
F0
68
3C
00
3C
7E
63
C3
FF
FF
C0
E1
7F
3E
ENDCHAR
STARTCHAR uni0206
ENCODING 518
SWIDTH 542 0
DWIDTH 10 0
BBX 8 18 2 0
BITMAP
3C
7E
42
00
FF
FF
C0
C0
C0
C0
FE
FE
C0
C0
C0
C0
FF
FF
ENDCHAR
STARTCHAR uni0207
ENCODING 519
SWIDTH 557 0
DWIDTH 11 0
BBX 8 14 1 0
BITMAP
3C
7E
42
00
3C
7E
63
C3
FF
FF
C0
E1
7F
3E
ENDCHAR
STARTCHAR uni0208
ENCODING 520
SWIDTH 288 0
DWIDTH 5 0
BBX 6 18 -1 0
BITMAP
F0
68
3C
00
18
18
18
18
18
18
18
18
18
18
18
18
18
18
ENDCHAR
STARTCHAR uni0209
ENCODING 521
SWIDTH 289 0
DWIDTH 5 0
BBX 6 14 -1 0
BITMAP
F0
68
3C
00
18
18
18
18
18
18
18
18
18
18
ENDCHAR
STARTCHAR uni020A
ENCODING 522
SWIDTH 288 0
DWIDTH 5 0
BBX 6 18 0 0
BITMAP
78
FC
84
00
30
30
30
30
30
30
30
30
30
30
30
30
30
30
ENDCHAR
STARTCHAR uni020B
ENCODING 523
SWIDTH 289 0
DWIDTH 5 0
BBX 6 14 0 0
BITMAP
78
FC
84
00
30
30
30
30
30
30
30
30
30
30
ENDCHAR
STARTCHAR uni020C
ENCODING 524
SWIDTH 777 0
DWIDTH 15 0
BBX 13 18 1 0
BITMAP
1E00
0D00
0780
0000
0F80
3FE0
7070
6030
E038
C018
C018
C018
C018
E038
6030
7070
3FE0
0F80
ENDCHAR
STARTCHAR uni020D
ENCODING 525
SWIDTH 614 0
DWIDTH 12 0
BBX 10 14 1 0
BITMAP
7800
3400
1E00
0000
1E00
7F80
6180
C0C0
C0C0
C0C0
C0C0
6180
7F80
1E00
ENDCHAR
STARTCHAR uni020E
ENCODING 526
SWIDTH 777 0
DWIDTH 15 0
BBX 13 18 1 0
BITMAP
0780
0FC0
0840
0000
0F80
3FE0
7070
6030
E038
C018
C018
C018
C018
E038
6030
7070
3FE0
0F80
ENDCHAR
STARTCHAR uni020F
ENCODING 527
SWIDTH 614 0
DWIDTH 12 0
BBX 10 14 1 0
BITMAP
1E00
3F00
2100
0000
1E00
7F80
6180
C0C0
C0C0
C0C0
C0C0
6180
7F80
1E00
ENDCHAR
STARTCHAR uni0210
ENCODING 528
SWIDTH 633 0
DWIDTH 12 0
BBX 10 18 2 0
BITMAP
F000
6800
3C00
0000
FC00
FE00
C700
C300
C300
C200
C600
F800
FC00
CE00
C600
C300
C380
C1C0
ENDCHAR
STARTCHAR uni0211
ENCODING 529
SWIDTH 409 0
DWIDTH 8 0
BBX 7 14 1 0
BITMAP
F0
68
3C
00
66
6E
70
60
60
60
60
60
60
60
ENDCHAR
STARTCHAR uni0212
ENCODING 530
SWIDTH 633 0
DWIDTH 12 0
BBX 10 18 2 0
BITMAP
3C00
7E00
4200
0000
FC00
FE00
C700
C300
C300
C200
C600
F800
FC00
CE00
C600
C300
C380
C1C0
ENDCHAR
STARTCHAR uni0213
ENCODING 531
SWIDTH 409 0
DWIDTH 8 0
BBX 6 14 2 0
BITMAP
78
FC
84
00
CC
DC
E0
C0
C0
C0
C0
C0
C0
C0
ENDCHAR
STARTCHAR uni0214
ENCODING 532
SWIDTH 693 0
DWIDTH 13 0
BBX 10 18 2 0
BITMAP
7800
3400
1E00
0000
C0C0
C0C0
C0C0
C0C0
C0C0
C0C0
C0C0
C0C0
C0C0
C0C0
C0C0
E1C0
7F80
3F00
ENDCHAR
STARTCHAR uni0215
ENCODING 533
SWIDTH 620 0
DWIDTH 12 0
BBX 8 14 2 0
BITMAP
F0
68
3C
00
C3
C3
C3
C3
C3
C3
C3
C7
FB
73
ENDCHAR
STARTCHAR uni0216
ENCODING 534
SWIDTH 693 0
DWIDTH 13 0
BBX 10 18 2 0
BITMAP
1E00
3F00
2100
0000
C0C0
C0C0
C0C0
C0C0
C0C0
C0C0
C0C0
C0C0
C0C0
C0C0
C0C0
E1C0
7F80
3F00
ENDCHAR
STARTCHAR uni0217
ENCODING 535
SWIDTH 620 0
DWIDTH 12 0
BBX 8 14 2 0
BITMAP
3C
7E
42
00
C3
C3
C3
C3
C3
C3
C3
C7
FB
73
ENDCHAR
STARTCHAR Scommaaccent
ENCODING 536
SWIDTH 539 0
DWIDTH 10 0
BBX 8 22 1 -8
BITMAP
3E
7E
E2
C0
C0
70
3C
1E
07
03
03
87
FE
7C
00
1C
1C
1C
0C
0C
0C
18
ENDCHAR
STARTCHAR scommaaccent
ENCODING 537
SWIDTH 510 0
DWIDTH 10 0
BBX 7 18 1 -8
BITMAP
7C
FC
C0
E0
78
3E
06
86
FE
7C
00
38
38
38
18
18
18
30
ENDCHAR
STARTCHAR Tcommaaccent
ENCODING 538
SWIDTH 633 0
DWIDTH 12 0
BBX 12 22 0 -8
BITMAP
FFF0
FFF0
0600
0600
0600
0600
0600
0600
0600
0600
0600
0600
0600
0600
0000
0700
0700
0700
0300
0300
0300
0600
ENDCHAR
STARTCHAR tcommaaccent
ENCODING 539
SWIDTH 374 0
DWIDTH 7 0
BBX 6 21 1 -8
BITMAP
60
60
60
FC
FC
60
60
60
60
60
60
7C
3C
00
38
38
38
18
18
18
30
ENDCHAR
STARTCHAR uni021E
ENCODING 542
SWIDTH 735 0
DWIDTH 14 0
BBX 10 18 2 0
BITMAP
3300
1E00
0C00
0000
C0C0
C0C0
C0C0
C0C0
C0C0
C0C0
FFC0
FFC0
C0C0
C0C0
C0C0
C0C0
C0C0
C0C0
ENDCHAR
STARTCHAR uni021F
ENCODING 543
SWIDTH 620 0
DWIDTH 12 0
BBX 9 18 1 0
BITMAP
CC00
7800
3000
0000
6000
6000
6000
6000
6700
6F80
7180
6180
6180
6180
6180
6180
6180
6180
ENDCHAR
STARTCHAR uni0226
ENCODING 550
SWIDTH 690 0
DWIDTH 13 0
BBX 13 17 0 0
BITMAP
0300
0300
0000
0700
0700
0F80
0D80
0D80
18C0
18C0
30E0
3FE0
3FE0
6030
6030
E030
C018
ENDCHAR
STARTCHAR uni0227
ENCODING 551
SWIDTH 552 0
DWIDTH 10 0
BBX 9 13 1 0
BITMAP
0C00
0C00
0000
3E00
7F00
4300
0300
3F00
7F00
C300
C300
FF80
7380
ENDCHAR
STARTCHAR uni0228
ENCODING 552
SWIDTH 542 0
DWIDTH 10 0
BBX 8 18 2 -4
BITMAP
FF
FF
C0
C0
C0
C0
FE
FE
C0
C0
C0
C0
FF
FF
30
18
18
38
ENDCHAR
STARTCHAR uni0229
ENCODING 553
SWIDTH 557 0
DWIDTH 11 0
BBX 8 14 1 -4
BITMAP
3C
7E
63
C3
FF
FF
C0
E1
7F
3E
18
0C
0C
1C
ENDCHAR
STARTCHAR uni022A
ENCODING 554
SWIDTH 777 0
DWIDTH 15 0
BBX 13 20 1 0
BITMAP
0F80
0F80
0000
0980
0980
0000
0F80
3FE0
7070
6030
E038
C018
C018
C018
C018
E038
6030
7070
3FE0
0F80
ENDCHAR
STARTCHAR uni022B
ENCODING 555
SWIDTH 614 0
DWIDTH 12 0
BBX 10 16 1 0
BITMAP
3E00
3E00
0000
2600
2600
0000
1E00
7F80
6180
C0C0
C0C0
C0C0
C0C0
6180
7F80
1E00
ENDCHAR
STARTCHAR uni022C
ENCODING 556
SWIDTH 777 0
DWIDTH 15 0
BBX 13 20 1 0
BITMAP
0F80
0F80
0000
0F40
0B80
0000
0F80
3FE0
7070
6030
E038
C018
C018
C018
C018
E038
6030
7070
3FE0
0F80
ENDCHAR
STARTCHAR uni022D
ENCODING 557
SWIDTH 614 0
DWIDTH 12 0
BBX 10 16 1 0
BITMAP
3E00
3E00
0000
3D00
2E00
0000
1E00
7F80
6180
C0C0
C0C0
C0C0
C0C0
6180
7F80
1E00
ENDCHAR
STARTCHAR uni022E
ENCODING 558
SWIDTH 777 0
DWIDTH 15 0
BBX 13 17 1 0
BITMAP
0300
0300
0000
0F80
3FE0
7070
6030
E038
C018
C018
C018
C018
E038
6030
7070
3FE0
0F80
ENDCHAR
STARTCHAR uni022F
ENCODING 559
SWIDTH 614 0
DWIDTH 12 0
BBX 10 13 1 0
BITMAP
0C00
0C00
0000
1E00
7F80
6180
C0C0
C0C0
C0C0
C0C0
6180
7F80
1E00
ENDCHAR
STARTCHAR uni0230
ENCODING 560
SWIDTH 777 0
DWIDTH 15 0
BBX 13 20 1 0
BITMAP
0F80
0F80
0000
0300
0300
0000
0F80
3FE0
7070
6030
E038
C018
C018
C018
C018
E038
6030
7070
3FE0
0F80
ENDCHAR
STARTCHAR uni0231
ENCODING 561
SWIDTH 614 0
DWIDTH 12 0
BBX 10 16 1 0
BITMAP
1F00
1F00
0000
0C00
0C00
0000
1E00
7F80
6180
C0C0
C0C0
C0C0
C0C0
6180
7F80
1E00
ENDCHAR
STARTCHAR uni0232
ENCODING 562
SWIDTH 623 0
DWIDTH 12 0
BBX 12 17 0 0
BITMAP
1F00
1F00
0000
E030
6060
70E0
30C0
1980
1F80
0F00
0700
0600
0600
0600
0600
0600
0600
ENDCHAR
STARTCHAR uni0233
ENCODING 563
SWIDTH 568 0
DWIDTH 10 0
BBX 10 17 0 -4
BITMAP
1F00
1F00
0000
C0C0
61C0
6180
6180
3300
3300
1F00
1E00
1E00
0C00
0C00
1C00
1800
3800
ENDCHAR
STARTCHAR uni0250
ENCODING 592
SWIDTH 552 0
DWIDTH 10 0
BBX 9 10 1 0
BITMAP
E700
FF80
6180
6180
7F00
7E00
6000
6100
7F00
3E00
ENDCHAR
STARTCHAR uni0254
ENCODING 596
SWIDTH 518 0
DWIDTH 10 0
BBX 8 10 1 0
BITMAP
F8
FE
06
03
03
03
03
86
FE
78
ENDCHAR
STARTCHAR uni0258
ENCODING 600
SWIDTH 557 0
DWIDTH 11 0
BBX 8 10 1 0
BITMAP
3C
7E
C6
C3
FF
FF
03
87
FE
7C
ENDCHAR
STARTCHAR uni0259
ENCODING 601
SWIDTH 557 0
DWIDTH 11 0
BBX 8 10 1 0
BITMAP
7C
FE
87
03
FF
FF
C3
C6
7E
3C
ENDCHAR
STARTCHAR uni025F
ENCODING 607
SWIDTH 367 0
DWIDTH 7 0
BBX 7 15 1 -5
BITMAP
0C
0C
0C
0C
0C
0C
0C
0C
7E
7E
0C
0C
0C
F8
F0
ENDCHAR
STARTCHAR uni0265
ENCODING 613
SWIDTH 620 0
DWIDTH 12 0
BBX 8 14 2 -4
BITMAP
C3
C3
C3
C3
C3
C3
C3
C7
FB
73
03
03
03
03
ENDCHAR
STARTCHAR uni0275
ENCODING 629
SWIDTH 614 0
DWIDTH 12 0
BBX 10 10 1 0
BITMAP
1E00
7F80
6180
C0C0
FFC0
FFC0
C0C0
6180
7F80
1E00
ENDCHAR
STARTCHAR uni0279
ENCODING 633
SWIDTH 409 0
DWIDTH 8 0
BBX 6 10 2 0
BITMAP
0C
0C
0C
0C
0C
0C
0C
1C
EC
CC
ENDCHAR
STARTCHAR uni0287
ENCODING 647
SWIDTH 374 0
DWIDTH 7 0
BBX 6 13 1 0
BITMAP
F0
F8
18
18
18
18
18
18
FC
FC
18
18
18
ENDCHAR
STARTCHAR uni0288
ENCODING 648
SWIDTH 374 0
DWIDTH 7 0
BBX 7 17 1 -4
BITMAP
60
60
60
FC
FC
60
60
60
60
60
60
60
60
60
62
3E
1E
ENDCHAR
STARTCHAR uni0289
ENCODING 649
SWIDTH 620 0
DWIDTH 12 0
BBX 8 10 2 0
BITMAP
C3
C3
C3
C3
FF
FF
C3
C7
FB
73
ENDCHAR
STARTCHAR uni028C
ENCODING 652
SWIDTH 572 0
DWIDTH 10 0
BBX 10 10 0 0
BITMAP
0C00
1E00
1E00
1F00
3300
3300
6180
6180
E1C0
C0C0
ENDCHAR
STARTCHAR uni028D
ENCODING 653
SWIDTH 840 0
DWIDTH 15 0
BBX 14 10 0 0
BITMAP
1870
3C70
3CF0
3CF0
3CD8
6798
6798
6798
C78C
C30C
ENDCHAR
STARTCHAR uni028E
ENCODING 654
SWIDTH 568 0
DWIDTH 10 0
BBX 10 14 0 0
BITMAP
0700
0600
0E00
0C00
0C00
1E00
1E00
3E00
3300
3300
6180
6180
E180
C0C0
ENDCHAR
STARTCHAR uni029E
ENCODING 670
SWIDTH 585 0
DWIDTH 11 0
BBX 9 14 2 -4
BITMAP
E180
7180
3980
1D80
0F80
0F80
0D80
1980
3180
7180
0180
0180
0180
0180
ENDCHAR
STARTCHAR uni02BB
ENCODING 699
SWIDTH 229 0
DWIDTH 4 0
BBX 3 5 1 9
BITMAP
60
C0
C0
E0
E0
ENDCHAR
STARTCHAR afii57929
ENCODING 700
SWIDTH 229 0
DWIDTH 4 0
BBX 3 5 1 9
BITMAP
E0
E0
60
60
C0
ENDCHAR
STARTCHAR afii64937
ENCODING 701
SWIDTH 229 0
DWIDTH 4 0
BBX 3 5 1 9
BITMAP
E0
E0
C0
C0
60
ENDCHAR
STARTCHAR circumflex
ENCODING 710
SWIDTH 614 0
DWIDTH 12 0
BBX 6 3 3 11
BITMAP
30
78
CC
ENDCHAR
STARTCHAR caron
ENCODING 711
SWIDTH 614 0
DWIDTH 12 0
BBX 6 3 3 11
BITMAP
CC
78
30
ENDCHAR
STARTCHAR uni02C8
ENCODING 712
SWIDTH 229 0
DWIDTH 4 0
BBX 2 5 1 9
BITMAP
C0
C0
C0
C0
C0
ENDCHAR
STARTCHAR macron
ENCODING 713
SWIDTH 614 0
DWIDTH 12 0
BBX 5 2 3 12
BITMAP
F8
F8
ENDCHAR
STARTCHAR uni02CA
ENCODING 714
SWIDTH 614 0
DWIDTH 12 0
BBX 4 3 4 11
BITMAP
30
60
C0
ENDCHAR
STARTCHAR uni02CB
ENCODING 715
SWIDTH 614 0
DWIDTH 12 0
BBX 4 3 3 11
BITMAP
C0
60
30
ENDCHAR
STARTCHAR uni02CD
ENCODING 717
SWIDTH 614 0
DWIDTH 12 0
BBX 5 2 3 -3
BITMAP
F8
F8
ENDCHAR
STARTCHAR uni02CE
ENCODING 718
SWIDTH 614 0
DWIDTH 12 0
BBX 4 3 3 -4
BITMAP
C0
60
30
ENDCHAR
STARTCHAR uni02CF
ENCODING 719
SWIDTH 614 0
DWIDTH 12 0
BBX 4 3 4 -4
BITMAP
30
60
C0
ENDCHAR
STARTCHAR breve
ENCODING 728
SWIDTH 614 0
DWIDTH 12 0
BBX 6 3 3 11
BITMAP
84
FC
78
ENDCHAR
STARTCHAR dotaccent
ENCODING 729
SWIDTH 614 0
DWIDTH 12 0
BBX 2 2 5 12
BITMAP
C0
C0
ENDCHAR
STARTCHAR ring
ENCODING 730
SWIDTH 614 0
DWIDTH 12 0
BBX 3 3 4 12
BITMAP
E0
A0
E0
ENDCHAR
STARTCHAR ogonek
ENCODING 731
SWIDTH 614 0
DWIDTH 12 0
BBX 3 3 5 -4
BITMAP
40
80
E0
ENDCHAR
STARTCHAR tilde
ENCODING 732
SWIDTH 614 0
DWIDTH 12 0
BBX 6 2 3 12
BITMAP
F4
B8
ENDCHAR
STARTCHAR hungarumlaut
ENCODING 733
SWIDTH 614 0
DWIDTH 12 0
BBX 6 3 3 11
BITMAP
3C
58
F0
ENDCHAR
STARTCHAR uni02EE
ENCODING 750
SWIDTH 373 0
DWIDTH 7 0
BBX 5 5 1 9
BITMAP
F8
F8
78
78
D0
ENDCHAR
STARTCHAR uni037E
ENCODING 894
SWIDTH 316 0
DWIDTH 6 0
BBX 2 14 2 -4
BITMAP
C0
C0
00
00
00
00
00
00
C0
C0
C0
C0
C0
80
ENDCHAR
STARTCHAR tonos
ENCODING 900
SWIDTH 614 0
DWIDTH 12 0
BBX 4 3 4 11
BITMAP
30
60
C0
ENDCHAR
STARTCHAR dieresistonos
ENCODING 901
SWIDTH 614 0
DWIDTH 12 0
BBX 5 6 3 12
BITMAP
18
30
60
00
98
98
ENDCHAR
STARTCHAR anoteleia
ENCODING 903
SWIDTH 316 0
DWIDTH 12 0
BBX 2 2 5 5
BITMAP
C0
C0
ENDCHAR
STARTCHAR mu
ENCODING 956
SWIDTH 627 0
DWIDTH 12 0
BBX 8 14 2 -4
BITMAP
C3
C3
C3
C3
C3
C3
C3
C7
FF
FB
C0
C0
C0
C0
ENDCHAR
STARTCHAR uni1E00
ENCODING 7680
SWIDTH 690 0
DWIDTH 13 0
BBX 13 18 0 -4
BITMAP
0700
0700
0F80
0D80
0D80
18C0
18C0
30E0
3FE0
3FE0
6030
6030
E030
C018
0000
0700
0500
0700
ENDCHAR
STARTCHAR uni1E01
ENCODING 7681
SWIDTH 552 0
DWIDTH 10 0
BBX 9 14 1 -4
BITMAP
3E00
7F00
4300
0300
3F00
7F00
C300
C300
FF80
7380
0000
1C00
1400
1C00
ENDCHAR
STARTCHAR uni1E02
ENCODING 7682
SWIDTH 575 0
DWIDTH 11 0
BBX 8 17 2 0
BITMAP
18
18
00
FC
FE
C3
C3
C3
C6
F8
FC
C7
C3
C3
C3
FE
FC
ENDCHAR
STARTCHAR uni1E03
ENCODING 7683
SWIDTH 630 0
DWIDTH 12 0
BBX 9 17 2 0
BITMAP
6000
6000
0000
C000
C000
C000
C000
DE00
FF00
E380
C180
C180
C180
C180
E300
FF00
DE00
ENDCHAR
STARTCHAR uni1E04
ENCODING 7684
SWIDTH 575 0
DWIDTH 11 0
BBX 8 17 2 -3
BITMAP
FC
FE
C3
C3
C3
C6
F8
FC
C7
C3
C3
C3
FE
FC
00
18
18
ENDCHAR
STARTCHAR uni1E05
ENCODING 7685
SWIDTH 630 0
DWIDTH 12 0
BBX 9 17 2 -3
BITMAP
C000
C000
C000
C000
DE00
FF00
E380
C180
C180
C180
C180
E300
FF00
DE00
0000
1800
1800
ENDCHAR
STARTCHAR uni1E06
ENCODING 7686
SWIDTH 575 0
DWIDTH 11 0
BBX 8 17 2 -3
BITMAP
FC
FE
C3
C3
C3
C6
F8
FC
C7
C3
C3
C3
FE
FC
00
7C
7C
ENDCHAR
STARTCHAR uni1E07
ENCODING 7687
SWIDTH 630 0
DWIDTH 12 0
BBX 9 17 2 -3
BITMAP
C000
C000
C000
C000
DE00
FF00
E380
C180
C180
C180
C180
E300
FF00
DE00
0000
3E00
3E00
ENDCHAR
STARTCHAR uni1E08
ENCODING 7688
SWIDTH 692 0
DWIDTH 13 0
BBX 11 22 1 -4
BITMAP
0300
0600
0C00
0000
0FC0
3FE0
7020
6000
E000
C000
C000
C000
C000
C000
6000
7020
3FE0
0FC0
0400
0600
0600
0E00
ENDCHAR
STARTCHAR uni1E09
ENCODING 7689
SWIDTH 518 0
DWIDTH 10 0
BBX 8 18 1 -4
BITMAP
06
0C
18
00
1F
7F
60
C0
C0
C0
C0
61
7F
1E
08
0C
0C
1C
ENDCHAR
STARTCHAR uni1E0A
ENCODING 7690
SWIDTH 749 0
DWIDTH 14 0
BBX 11 17 2 0
BITMAP
0C00
0C00
0000
FE00
FF80
C1C0
C0C0
C060
C060
C060
C060
C060
C060
C0C0
C1C0
FF80
FE00
ENDCHAR
STARTCHAR uni1E0B
ENCODING 7691
SWIDTH 630 0
DWIDTH 12 0
BBX 9 17 1 0
BITMAP
0300
0300
0000
0180
0180
0180
0180
3D80
7F80
6380
C180
C180
C180
C180
E380
7F80
3D80
ENDCHAR
STARTCHAR uni1E0C
ENCODING 7692
SWIDTH 749 0
DWIDTH 14 0
BBX 11 17 2 -3
BITMAP
FE00
FF80
C1C0
C0C0
C060
C060
C060
C060
C060
C060
C0C0
C1C0
FF80
FE00
0000
0C00
0C00
ENDCHAR
STARTCHAR uni1E0D
ENCODING 7693
SWIDTH 630 0
DWIDTH 12 0
BBX 9 17 1 -3
BITMAP
0180
0180
0180
0180
3D80
7F80
6380
C180
C180
C180
C180
E380
7F80
3D80
0000
0C00
0C00
ENDCHAR
STARTCHAR uni1E0E
ENCODING 7694
SWIDTH 749 0
DWIDTH 14 0
BBX 11 17 2 -3
BITMAP
FE00
FF80
C1C0
C0C0
C060
C060
C060
C060
C060
C060
C0C0
C1C0
FF80
FE00
0000
3E00
3E00
ENDCHAR
STARTCHAR uni1E0F
ENCODING 7695
SWIDTH 630 0
DWIDTH 12 0
BBX 9 17 1 -3
BITMAP
0180
0180
0180
0180
3D80
7F80
6380
C180
C180
C180
C180
E380
7F80
3D80
0000
3E00
3E00
ENDCHAR
STARTCHAR uni1E10
ENCODING 7696
SWIDTH 749 0
DWIDTH 14 0
BBX 11 18 2 -4
BITMAP
FE00
FF80
C1C0
C0C0
C060
C060
C060
C060
C060
C060
C0C0
C1C0
FF80
FE00
1800
0C00
0C00
1C00
ENDCHAR
STARTCHAR uni1E11
ENCODING 7697
SWIDTH 630 0
DWIDTH 12 0
BBX 9 18 1 -4
BITMAP
0180
0180
0180
0180
3D80
7F80
6380
C180
C180
C180
C180
E380
7F80
3D80
1800
0C00
0C00
1C00
ENDCHAR
STARTCHAR uni1E12
ENCODING 7698
SWIDTH 749 0
DWIDTH 14 0
BBX 11 18 2 -4
BITMAP
FE00
FF80
C1C0
C0C0
C060
C060
C060
C060
C060
C060
C0C0
C1C0
FF80
FE00
0000
0C00
1E00
3300
ENDCHAR
STARTCHAR uni1E13
ENCODING 7699
SWIDTH 630 0
DWIDTH 12 0
BBX 9 18 1 -4
BITMAP
0180
0180
0180
0180
3D80
7F80
6380
C180
C180
C180
C180
E380
7F80
3D80
0000
0C00
1E00
3300
ENDCHAR
STARTCHAR uni1E14
ENCODING 7700
SWIDTH 542 0
DWIDTH 10 0
BBX 8 21 2 0
BITMAP
60
30
18
00
7C
7C
00
FF
FF
C0
C0
C0
C0
FE
FE
C0
C0
C0
C0
FF
FF
ENDCHAR
STARTCHAR uni1E15
ENCODING 7701
SWIDTH 557 0
DWIDTH 11 0
BBX 8 17 1 0
BITMAP
30
18
0C
00
3E
3E
00
3C
7E
63
C3
FF
FF
C0
E1
7F
3E
ENDCHAR
STARTCHAR uni1E16
ENCODING 7702
SWIDTH 542 0
DWIDTH 10 0
BBX 8 21 2 0
BITMAP
06
0C
18
00
7C
7C
00
FF
FF
C0
C0
C0
C0
FE
FE
C0
C0
C0
C0
FF
FF
ENDCHAR
STARTCHAR uni1E17
ENCODING 7703
SWIDTH 557 0
DWIDTH 11 0
BBX 8 17 1 0
BITMAP
06
0C
18
00
3E
3E
00
3C
7E
63
C3
FF
FF
C0
E1
7F
3E
ENDCHAR
STARTCHAR uni1E18
ENCODING 7704
SWIDTH 542 0
DWIDTH 10 0
BBX 8 18 2 -4
BITMAP
FF
FF
C0
C0
C0
C0
FE
FE
C0
C0
C0
C0
FF
FF
00
18
3C
66
ENDCHAR
STARTCHAR uni1E19
ENCODING 7705
SWIDTH 557 0
DWIDTH 11 0
BBX 8 14 1 -4
BITMAP
3C
7E
63
C3
FF
FF
C0
E1
7F
3E
00
18
3C
66
ENDCHAR
STARTCHAR uni1E1A
ENCODING 7706
SWIDTH 542 0
DWIDTH 10 0
BBX 8 17 2 -3
BITMAP
FF
FF
C0
C0
C0
C0
FE
FE
C0
C0
C0
C0
FF
FF
00
7A
5C
ENDCHAR
STARTCHAR uni1E1B
ENCODING 7707
SWIDTH 557 0
DWIDTH 11 0
BBX 8 13 1 -3
BITMAP
3C
7E
63
C3
FF
FF
C0
E1
7F
3E
00
7A
5C
ENDCHAR
STARTCHAR uni1E1C
ENCODING 7708
SWIDTH 542 0
DWIDTH 10 0
BBX 8 22 2 -4
BITMAP
84
FC
78
00
FF
FF
C0
C0
C0
C0
FE
FE
C0
C0
C0
C0
FF
FF
30
18
18
38
ENDCHAR
STARTCHAR uni1E1D
ENCODING 7709
SWIDTH 557 0
DWIDTH 11 0
BBX 8 18 1 -4
BITMAP
42
7E
3C
00
3C
7E
63
C3
FF
FF
C0
E1
7F
3E
18
0C
0C
1C
ENDCHAR
STARTCHAR uni1E1E
ENCODING 7710
SWIDTH 536 0
DWIDTH 10 0
BBX 8 17 2 0
BITMAP
18
18
00
FF
FF
C0
C0
C0
C0
FE
FE
C0
C0
C0
C0
C0
C0
ENDCHAR
STARTCHAR uni1E1F
ENCODING 7711
SWIDTH 367 0
DWIDTH 7 0
BBX 7 18 1 0
BITMAP
18
18
00
1E
3E
60
60
60
FC
FC
60
60
60
60
60
60
60
60
ENDCHAR
STARTCHAR uni1E20
ENCODING 7712
SWIDTH 723 0
DWIDTH 14 0
BBX 11 17 1 0
BITMAP
1F00
1F00
0000
0FC0
3FE0
7020
6000
E000
C000
C000
C060
C060
C060
6060
7060
3FE0
0FC0
ENDCHAR
STARTCHAR uni1E21
ENCODING 7713
SWIDTH 623 0
DWIDTH 12 0
BBX 9 17 1 -4
BITMAP
3E00
3E00
0000
3D80
7F80
6380
C180
C180
C180
C180
E380
7D80
3980
0180
4300
7F00
7E00
ENDCHAR
STARTCHAR uni1E22
ENCODING 7714
SWIDTH 735 0
DWIDTH 14 0
BBX 10 17 2 0
BITMAP
0C00
0C00
0000
C0C0
C0C0
C0C0
C0C0
C0C0
C0C0
FFC0
FFC0
C0C0
C0C0
C0C0
C0C0
C0C0
C0C0
ENDCHAR
STARTCHAR uni1E23
ENCODING 7715
SWIDTH 620 0
DWIDTH 12 0
BBX 8 17 2 0
BITMAP
60
60
00
C0
C0
C0
C0
CE
DF
E3
C3
C3
C3
C3
C3
C3
C3
ENDCHAR
STARTCHAR uni1E24
ENCODING 7716
SWIDTH 735 0
DWIDTH 14 0
BBX 10 17 2 -3
BITMAP
C0C0
C0C0
C0C0
C0C0
C0C0
C0C0
FFC0
FFC0
C0C0
C0C0
C0C0
C0C0
C0C0
C0C0
0000
0C00
0C00
ENDCHAR
STARTCHAR uni1E25
ENCODING 7717
SWIDTH 620 0
DWIDTH 12 0
BBX 8 17 2 -3
BITMAP
C0
C0
C0
C0
CE
DF
E3
C3
C3
C3
C3
C3
C3
C3
00
18
18
ENDCHAR
STARTCHAR uni1E26
ENCODING 7718
SWIDTH 735 0
DWIDTH 14 0
BBX 10 17 2 0
BITMAP
2600
2600
0000
C0C0
C0C0
C0C0
C0C0
C0C0
C0C0
FFC0
FFC0
C0C0
C0C0
C0C0
C0C0
C0C0
C0C0
ENDCHAR
STARTCHAR uni1E27
ENCODING 7719
SWIDTH 620 0
DWIDTH 12 0
BBX 9 17 1 0
BITMAP
9800
9800
0000
6000
6000
6000
6000
6700
6F80
7180
6180
6180
6180
6180
6180
6180
6180
ENDCHAR
STARTCHAR uni1E28
ENCODING 7720
SWIDTH 735 0
DWIDTH 14 0
BBX 10 18 2 -4
BITMAP
C0C0
C0C0
C0C0
C0C0
C0C0
C0C0
FFC0
FFC0
C0C0
C0C0
C0C0
C0C0
C0C0
C0C0
0C00
0600
0600
0E00
ENDCHAR
STARTCHAR uni1E29
ENCODING 7721
SWIDTH 620 0
DWIDTH 12 0
BBX 8 18 2 -4
BITMAP
C0
C0
C0
C0
CE
DF
E3
C3
C3
C3
C3
C3
C3
C3
18
0C
0C
1C
ENDCHAR
STARTCHAR uni1E2A
ENCODING 7722
SWIDTH 735 0
DWIDTH 14 0
BBX 10 18 2 -4
BITMAP
C0C0
C0C0
C0C0
C0C0
C0C0
C0C0
FFC0
FFC0
C0C0
C0C0
C0C0
C0C0
C0C0
C0C0
0000
2100
3F00
1E00
ENDCHAR
STARTCHAR uni1E2B
ENCODING 7723
SWIDTH 620 0
DWIDTH 12 0
BBX 8 18 2 -4
BITMAP
C0
C0
C0
C0
CE
DF
E3
C3
C3
C3
C3
C3
C3
C3
00
42
7E
3C
ENDCHAR
STARTCHAR uni1E2C
ENCODING 7724
SWIDTH 288 0
DWIDTH 5 0
BBX 6 17 0 -3
BITMAP
30
30
30
30
30
30
30
30
30
30
30
30
30
30
00
F4
B8
ENDCHAR
STARTCHAR uni1E2D
ENCODING 7725
SWIDTH 289 0
DWIDTH 5 0
BBX 6 17 0 -3
BITMAP
30
30
00
00
30
30
30
30
30
30
30
30
30
30
00
F4
B8
ENDCHAR
STARTCHAR uni1E2E
ENCODING 7726
SWIDTH 288 0
DWIDTH 5 0
BBX 5 21 0 0
BITMAP
18
30
60
00
98
98
00
30
30
30
30
30
30
30
30
30
30
30
30
30
30
ENDCHAR
STARTCHAR uni1E2F
ENCODING 7727
SWIDTH 289 0
DWIDTH 5 0
BBX 5 17 0 0
BITMAP
18
30
60
00
98
98
00
30
30
30
30
30
30
30
30
30
30
ENDCHAR
STARTCHAR uni1E30
ENCODING 7728
SWIDTH 653 0
DWIDTH 12 0
BBX 10 18 2 0
BITMAP
0600
0C00
1800
0000
C180
C300
C700
CE00
CC00
D800
F800
F800
DC00
CC00
C600
C300
C380
C1C0
ENDCHAR
STARTCHAR uni1E31
ENCODING 7729
SWIDTH 585 0
DWIDTH 11 0
BBX 9 18 2 0
BITMAP
1800
3000
6000
0000
C000
C000
C000
C000
C700
C600
CC00
D800
F800
F800
DC00
CE00
C700
C380
ENDCHAR
STARTCHAR uni1E32
ENCODING 7730
SWIDTH 653 0
DWIDTH 12 0
BBX 10 17 2 -3
BITMAP
C180
C300
C700
CE00
CC00
D800
F800
F800
DC00
CC00
C600
C300
C380
C1C0
0000
0C00
0C00
ENDCHAR
STARTCHAR uni1E33
ENCODING 7731
SWIDTH 585 0
DWIDTH 11 0
BBX 9 17 2 -3
BITMAP
C000
C000
C000
C000
C700
C600
CC00
D800
F800
F800
DC00
CE00
C700
C380
0000
1800
1800
ENDCHAR
STARTCHAR uni1E34
ENCODING 7732
SWIDTH 653 0
DWIDTH 12 0
BBX 10 17 2 -3
BITMAP
C180
C300
C700
CE00
CC00
D800
F800
F800
DC00
CC00
C600
C300
C380
C1C0
0000
3E00
3E00
ENDCHAR
STARTCHAR uni1E35
ENCODING 7733
SWIDTH 585 0
DWIDTH 11 0
BBX 9 17 2 -3
BITMAP
C000
C000
C000
C000
C700
C600
CC00
D800
F800
F800
DC00
CE00
C700
C380
0000
3E00
3E00
ENDCHAR
STARTCHAR uni1E36
ENCODING 7734
SWIDTH 533 0
DWIDTH 10 0
BBX 8 17 2 -3
BITMAP
C0
C0
C0
C0
C0
C0
C0
C0
C0
C0
C0
C0
FF
FF
00
18
18
ENDCHAR
STARTCHAR uni1E37
ENCODING 7735
SWIDTH 289 0
DWIDTH 5 0
BBX 2 17 2 -3
BITMAP
C0
C0
C0
C0
C0
C0
C0
C0
C0
C0
C0
C0
C0
C0
00
C0
C0
ENDCHAR
STARTCHAR uni1E38
ENCODING 7736
SWIDTH 533 0
DWIDTH 10 0
BBX 8 20 2 -3
BITMAP
F8
F8
00
C0
C0
C0
C0
C0
C0
C0
C0
C0
C0
C0
C0
FF
FF
00
18
18
ENDCHAR
STARTCHAR uni1E39
ENCODING 7737
SWIDTH 289 0
DWIDTH 5 0
BBX 5 20 1 -3
BITMAP
F8
F8
00
60
60
60
60
60
60
60
60
60
60
60
60
60
60
00
60
60
ENDCHAR
STARTCHAR uni1E3A
ENCODING 7738
SWIDTH 533 0
DWIDTH 10 0
BBX 8 17 2 -3
BITMAP
C0
C0
C0
C0
C0
C0
C0
C0
C0
C0
C0
C0
FF
FF
00
7C
7C
ENDCHAR
STARTCHAR uni1E3B
ENCODING 7739
SWIDTH 289 0
DWIDTH 5 0
BBX 5 17 1 -3
BITMAP
60
60
60
60
60
60
60
60
60
60
60
60
60
60
00
F8
F8
ENDCHAR
STARTCHAR uni1E3C
ENCODING 7740
SWIDTH 533 0
DWIDTH 10 0
BBX 8 18 2 -4
BITMAP
C0
C0
C0
C0
C0
C0
C0
C0
C0
C0
C0
C0
FF
FF
00
18
3C
66
ENDCHAR
STARTCHAR uni1E3D
ENCODING 7741
SWIDTH 289 0
DWIDTH 5 0
BBX 6 18 0 -4
BITMAP
30
30
30
30
30
30
30
30
30
30
30
30
30
30
00
30
78
CC
ENDCHAR
STARTCHAR uni1E3E
ENCODING 7742
SWIDTH 861 0
DWIDTH 16 0
BBX 13 18 2 0
BITMAP
0180
0300
0600
0000
E038
E038
F078
F078
F878
D8D8
D8D8
DCD8
CD98
CD98
CF98
C718
C718
C018
ENDCHAR
STARTCHAR uni1E3F
ENCODING 7743
SWIDTH 934 0
DWIDTH 18 0
BBX 14 14 2 0
BITMAP
00C0
0180
0300
0000
CE38
DF7C
E38C
C30C
C30C
C30C
C30C
C30C
C30C
C30C
ENDCHAR
STARTCHAR uni1E40
ENCODING 7744
SWIDTH 861 0
DWIDTH 16 0
BBX 13 17 2 0
BITMAP
0300
0300
0000
E038
E038
F078
F078
F878
D8D8
D8D8
DCD8
CD98
CD98
CF98
C718
C718
C018
ENDCHAR
STARTCHAR uni1E41
ENCODING 7745
SWIDTH 934 0
DWIDTH 18 0
BBX 14 13 2 0
BITMAP
0300
0300
0000
CE38
DF7C
E38C
C30C
C30C
C30C
C30C
C30C
C30C
C30C
ENDCHAR
STARTCHAR uni1E42
ENCODING 7746
SWIDTH 861 0
DWIDTH 16 0
BBX 13 17 2 -3
BITMAP
E038
E038
F078
F078
F878
D8D8
D8D8
DCD8
CD98
CD98
CF98
C718
C718
C018
0000
0300
0300
ENDCHAR
STARTCHAR uni1E43
ENCODING 7747
SWIDTH 934 0
DWIDTH 18 0
BBX 14 13 2 -3
BITMAP
CE38
DF7C
E38C
C30C
C30C
C30C
C30C
C30C
C30C
C30C
0000
0300
0300
ENDCHAR
STARTCHAR uni1E44
ENCODING 7748
SWIDTH 741 0
DWIDTH 14 0
BBX 10 17 2 0
BITMAP
0C00
0C00
0000
C0C0
E0C0
F0C0
F0C0
F8C0
D8C0
CCC0
CCC0
C6C0
C7C0
C3C0
C3C0
C1C0
C0C0
ENDCHAR
STARTCHAR uni1E45
ENCODING 7749
SWIDTH 620 0
DWIDTH 12 0
BBX 8 13 2 0
BITMAP
18
18
00
CE
DF
E3
C3
C3
C3
C3
C3
C3
C3
ENDCHAR
STARTCHAR uni1E46
ENCODING 7750
SWIDTH 741 0
DWIDTH 14 0
BBX 10 17 2 -3
BITMAP
C0C0
E0C0
F0C0
F0C0
F8C0
D8C0
CCC0
CCC0
C6C0
C7C0
C3C0
C3C0
C1C0
C0C0
0000
0C00
0C00
ENDCHAR
STARTCHAR uni1E47
ENCODING 7751
SWIDTH 620 0
DWIDTH 12 0
BBX 8 13 2 -3
BITMAP
CE
DF
E3
C3
C3
C3
C3
C3
C3
C3
00
18
18
ENDCHAR
STARTCHAR uni1E48
ENCODING 7752
SWIDTH 741 0
DWIDTH 14 0
BBX 10 17 2 -3
BITMAP
C0C0
E0C0
F0C0
F0C0
F8C0
D8C0
CCC0
CCC0
C6C0
C7C0
C3C0
C3C0
C1C0
C0C0
0000
1F00
1F00
ENDCHAR
STARTCHAR uni1E49
ENCODING 7753
SWIDTH 620 0
DWIDTH 12 0
BBX 8 13 2 -3
BITMAP
CE
DF
E3
C3
C3
C3
C3
C3
C3
C3
00
3E
3E
ENDCHAR
STARTCHAR uni1E4A
ENCODING 7754
SWIDTH 741 0
DWIDTH 14 0
BBX 10 18 2 -4
BITMAP
C0C0
E0C0
F0C0
F0C0
F8C0
D8C0
CCC0
CCC0
C6C0
C7C0
C3C0
C3C0
C1C0
C0C0
0000
0C00
1E00
3300
ENDCHAR
STARTCHAR uni1E4B
ENCODING 7755
SWIDTH 620 0
DWIDTH 12 0
BBX 8 14 2 -4
BITMAP
CE
DF
E3
C3
C3
C3
C3
C3
C3
C3
00
18
3C
66
ENDCHAR
STARTCHAR uni1E4C
ENCODING 7756
SWIDTH 777 0
DWIDTH 15 0
BBX 13 21 1 0
BITMAP
0180
0300
0600
0000
0F40
0B80
0000
0F80
3FE0
7070
6030
E038
C018
C018
C018
C018
E038
6030
7070
3FE0
0F80
ENDCHAR
STARTCHAR uni1E4D
ENCODING 7757
SWIDTH 614 0
DWIDTH 12 0
BBX 10 17 1 0
BITMAP
0300
0600
0C00
0000
3D00
2E00
0000
1E00
7F80
6180
C0C0
C0C0
C0C0
C0C0
6180
7F80
1E00
ENDCHAR
STARTCHAR uni1E4E
ENCODING 7758
SWIDTH 777 0
DWIDTH 15 0
BBX 13 20 1 0
BITMAP
0980
0980
0000
0F40
0B80
0000
0F80
3FE0
7070
6030
E038
C018
C018
C018
C018
E038
6030
7070
3FE0
0F80
ENDCHAR
STARTCHAR uni1E4F
ENCODING 7759
SWIDTH 614 0
DWIDTH 12 0
BBX 10 16 1 0
BITMAP
2600
2600
0000
3D00
2E00
0000
1E00
7F80
6180
C0C0
C0C0
C0C0
C0C0
6180
7F80
1E00
ENDCHAR
STARTCHAR uni1E50
ENCODING 7760
SWIDTH 777 0
DWIDTH 15 0
BBX 13 21 1 0
BITMAP
0C00
0600
0300
0000
0F80
0F80
0000
0F80
3FE0
7070
6030
E038
C018
C018
C018
C018
E038
6030
7070
3FE0
0F80
ENDCHAR
STARTCHAR uni1E51
ENCODING 7761
SWIDTH 614 0
DWIDTH 12 0
BBX 10 17 1 0
BITMAP
1800
0C00
0600
0000
1F00
1F00
0000
1E00
7F80
6180
C0C0
C0C0
C0C0
C0C0
6180
7F80
1E00
ENDCHAR
STARTCHAR uni1E52
ENCODING 7762
SWIDTH 777 0
DWIDTH 15 0
BBX 13 21 1 0
BITMAP
0180
0300
0600
0000
0F80
0F80
0000
0F80
3FE0
7070
6030
E038
C018
C018
C018
C018
E038
6030
7070
3FE0
0F80
ENDCHAR
STARTCHAR uni1E53
ENCODING 7763
SWIDTH 614 0
DWIDTH 12 0
BBX 10 17 1 0
BITMAP
0300
0600
0C00
0000
1F00
1F00
0000
1E00
7F80
6180
C0C0
C0C0
C0C0
C0C0
6180
7F80
1E00
ENDCHAR
STARTCHAR uni1E54
ENCODING 7764
SWIDTH 553 0
DWIDTH 10 0
BBX 8 18 2 0
BITMAP
06
0C
18
00
FE
FF
C7
C3
C3
C3
C6
FE
F8
C0
C0
C0
C0
C0
ENDCHAR
STARTCHAR uni1E55
ENCODING 7765
SWIDTH 630 0
DWIDTH 12 0
BBX 9 18 2 -4
BITMAP
0600
0C00
1800
0000
DE00
FF00
E380
C180
C180
C180
C180
E300
FF00
DE00
C000
C000
C000
C000
ENDCHAR
STARTCHAR uni1E56
ENCODING 7766
SWIDTH 553 0
DWIDTH 10 0
BBX 8 17 2 0
BITMAP
18
18
00
FE
FF
C7
C3
C3
C3
C6
FE
F8
C0
C0
C0
C0
C0
ENDCHAR
STARTCHAR uni1E57
ENCODING 7767
SWIDTH 630 0
DWIDTH 12 0
BBX 9 17 2 -4
BITMAP
1800
1800
0000
DE00
FF00
E380
C180
C180
C180
C180
E300
FF00
DE00
C000
C000
C000
C000
ENDCHAR
STARTCHAR uni1E58
ENCODING 7768
SWIDTH 633 0
DWIDTH 12 0
BBX 10 17 2 0
BITMAP
1800
1800
0000
FC00
FE00
C700
C300
C300
C200
C600
F800
FC00
CE00
C600
C300
C380
C1C0
ENDCHAR
STARTCHAR uni1E59
ENCODING 7769
SWIDTH 409 0
DWIDTH 8 0
BBX 6 13 2 0
BITMAP
30
30
00
CC
DC
E0
C0
C0
C0
C0
C0
C0
C0
ENDCHAR
STARTCHAR uni1E5A
ENCODING 7770
SWIDTH 633 0
DWIDTH 12 0
BBX 10 17 2 -3
BITMAP
FC00
FE00
C700
C300
C300
C200
C600
F800
FC00
CE00
C600
C300
C380
C1C0
0000
0C00
0C00
ENDCHAR
STARTCHAR uni1E5B
ENCODING 7771
SWIDTH 409 0
DWIDTH 8 0
BBX 6 13 2 -3
BITMAP
CC
DC
E0
C0
C0
C0
C0
C0
C0
C0
00
60
60
ENDCHAR
STARTCHAR uni1E5C
ENCODING 7772
SWIDTH 633 0
DWIDTH 12 0
BBX 10 20 2 -3
BITMAP
3E00
3E00
0000
FC00
FE00
C700
C300
C300
C200
C600
F800
FC00
CE00
C600
C300
C380
C1C0
0000
0C00
0C00
ENDCHAR
STARTCHAR uni1E5D
ENCODING 7773
SWIDTH 409 0
DWIDTH 8 0
BBX 6 16 2 -3
BITMAP
F8
F8
00
CC
DC
E0
C0
C0
C0
C0
C0
C0
C0
00
60
60
ENDCHAR
STARTCHAR uni1E5E
ENCODING 7774
SWIDTH 633 0
DWIDTH 12 0
BBX 10 17 2 -3
BITMAP
FC00
FE00
C700
C300
C300
C200
C600
F800
FC00
CE00
C600
C300
C380
C1C0
0000
3E00
3E00
ENDCHAR
STARTCHAR uni1E5F
ENCODING 7775
SWIDTH 409 0
DWIDTH 8 0
BBX 7 13 1 -3
BITMAP
66
6E
70
60
60
60
60
60
60
60
00
F8
F8
ENDCHAR
STARTCHAR uni1E60
ENCODING 7776
SWIDTH 539 0
DWIDTH 10 0
BBX 8 17 1 0
BITMAP
18
18
00
3E
7E
E2
C0
C0
70
3C
1E
07
03
03
87
FE
7C
ENDCHAR
STARTCHAR uni1E61
ENCODING 7777
SWIDTH 510 0
DWIDTH 10 0
BBX 7 13 1 0
BITMAP
30
30
00
7C
FC
C0
E0
78
3E
06
86
FE
7C
ENDCHAR
STARTCHAR uni1E62
ENCODING 7778
SWIDTH 539 0
DWIDTH 10 0
BBX 8 17 1 -3
BITMAP
3E
7E
E2
C0
C0
70
3C
1E
07
03
03
87
FE
7C
00
18
18
ENDCHAR
STARTCHAR uni1E63
ENCODING 7779
SWIDTH 510 0
DWIDTH 10 0
BBX 7 13 1 -3
BITMAP
7C
FC
C0
E0
78
3E
06
86
FE
7C
00
18
18
ENDCHAR
STARTCHAR uni1E64
ENCODING 7780
SWIDTH 539 0
DWIDTH 10 0
BBX 8 21 1 0
BITMAP
18
18
00
0C
18
30
00
3E
7E
E2
C0
C0
70
3C
1E
07
03
03
87
FE
7C
ENDCHAR
STARTCHAR uni1E65
ENCODING 7781
SWIDTH 510 0
DWIDTH 10 0
BBX 7 17 1 0
BITMAP
18
18
00
0C
18
30
00
7C
FC
C0
E0
78
3E
06
86
FE
7C
ENDCHAR
STARTCHAR uni1E66
ENCODING 7782
SWIDTH 539 0
DWIDTH 10 0
BBX 8 21 1 0
BITMAP
18
18
00
66
3C
18
00
3E
7E
E2
C0
C0
70
3C
1E
07
03
03
87
FE
7C
ENDCHAR
STARTCHAR uni1E67
ENCODING 7783
SWIDTH 510 0
DWIDTH 10 0
BBX 7 17 1 0
BITMAP
18
18
00
66
3C
18
00
7C
FC
C0
E0
78
3E
06
86
FE
7C
ENDCHAR
STARTCHAR uni1E68
ENCODING 7784
SWIDTH 539 0
DWIDTH 10 0
BBX 8 20 1 -3
BITMAP
30
30
00
3E
7E
E2
C0
C0
70
3C
1E
07
03
03
87
FE
7C
00
18
18
ENDCHAR
STARTCHAR uni1E69
ENCODING 7785
SWIDTH 510 0
DWIDTH 10 0
BBX 7 16 1 -3
BITMAP
30
30
00
7C
FC
C0
E0
78
3E
06
86
FE
7C
00
18
18
ENDCHAR
STARTCHAR uni1E6A
ENCODING 7786
SWIDTH 633 0
DWIDTH 12 0
BBX 12 17 0 0
BITMAP
0600
0600
0000
FFF0
FFF0
0600
0600
0600
0600
0600
0600
0600
0600
0600
0600
0600
0600
ENDCHAR
STARTCHAR uni1E6B
ENCODING 7787
SWIDTH 374 0
DWIDTH 7 0
BBX 6 16 1 0
BITMAP
30
30
00
60
60
60
FC
FC
60
60
60
60
60
60
7C
3C
ENDCHAR
STARTCHAR uni1E6C
ENCODING 7788
SWIDTH 633 0
DWIDTH 12 0
BBX 12 17 0 -3
BITMAP
FFF0
FFF0
0600
0600
0600
0600
0600
0600
0600
0600
0600
0600
0600
0600
0000
0600
0600
ENDCHAR
STARTCHAR uni1E6D
ENCODING 7789
SWIDTH 374 0
DWIDTH 7 0
BBX 6 16 1 -3
BITMAP
60
60
60
FC
FC
60
60
60
60
60
60
7C
3C
00
30
30
ENDCHAR
STARTCHAR uni1E6E
ENCODING 7790
SWIDTH 633 0
DWIDTH 12 0
BBX 12 17 0 -3
BITMAP
FFF0
FFF0
0600
0600
0600
0600
0600
0600
0600
0600
0600
0600
0600
0600
0000
0F80
0F80
ENDCHAR
STARTCHAR uni1E6F
ENCODING 7791
SWIDTH 374 0
DWIDTH 7 0
BBX 6 16 1 -3
BITMAP
60
60
60
FC
FC
60
60
60
60
60
60
7C
3C
00
7C
7C
ENDCHAR
STARTCHAR uni1E70
ENCODING 7792
SWIDTH 633 0
DWIDTH 12 0
BBX 12 18 0 -4
BITMAP
FFF0
FFF0
0600
0600
0600
0600
0600
0600
0600
0600
0600
0600
0600
0600
0000
0600
0F00
1980
ENDCHAR
STARTCHAR uni1E71
ENCODING 7793
SWIDTH 374 0
DWIDTH 7 0
BBX 6 17 1 -4
BITMAP
60
60
60
FC
FC
60
60
60
60
60
60
7C
3C
00
30
78
CC
ENDCHAR
STARTCHAR uni1E72
ENCODING 7794
SWIDTH 693 0
DWIDTH 13 0
BBX 10 17 2 -3
BITMAP
C0C0
C0C0
C0C0
C0C0
C0C0
C0C0
C0C0
C0C0
C0C0
C0C0
C0C0
E1C0
7F80
3F00
0000
2600
2600
ENDCHAR
STARTCHAR uni1E73
ENCODING 7795
SWIDTH 620 0
DWIDTH 12 0
BBX 8 13 2 -3
BITMAP
C3
C3
C3
C3
C3
C3
C3
C7
FB
73
00
4C
4C
ENDCHAR
STARTCHAR uni1E74
ENCODING 7796
SWIDTH 693 0
DWIDTH 13 0
BBX 10 17 2 -3
BITMAP
C0C0
C0C0
C0C0
C0C0
C0C0
C0C0
C0C0
C0C0
C0C0
C0C0
C0C0
E1C0
7F80
3F00
0000
3D00
2E00
ENDCHAR
STARTCHAR uni1E75
ENCODING 7797
SWIDTH 620 0
DWIDTH 12 0
BBX 8 13 2 -3
BITMAP
C3
C3
C3
C3
C3
C3
C3
C7
FB
73
00
7A
5C
ENDCHAR
STARTCHAR uni1E76
ENCODING 7798
SWIDTH 693 0
DWIDTH 13 0
BBX 10 18 2 -4
BITMAP
C0C0
C0C0
C0C0
C0C0
C0C0
C0C0
C0C0
C0C0
C0C0
C0C0
C0C0
E1C0
7F80
3F00
0000
0C00
1E00
3300
ENDCHAR
STARTCHAR uni1E77
ENCODING 7799
SWIDTH 620 0
DWIDTH 12 0
BBX 8 14 2 -4
BITMAP
C3
C3
C3
C3
C3
C3
C3
C7
FB
73
00
18
3C
66
ENDCHAR
STARTCHAR uni1E78
ENCODING 7800
SWIDTH 693 0
DWIDTH 13 0
BBX 10 21 2 0
BITMAP
0300
0600
0C00
0000
3D00
2E00
0000
C0C0
C0C0
C0C0
C0C0
C0C0
C0C0
C0C0
C0C0
C0C0
C0C0
C0C0
E1C0
7F80
3F00
ENDCHAR
STARTCHAR uni1E79
ENCODING 7801
SWIDTH 620 0
DWIDTH 12 0
BBX 8 17 2 0
BITMAP
06
0C
18
00
7A
5C
00
C3
C3
C3
C3
C3
C3
C3
C7
FB
73
ENDCHAR
STARTCHAR uni1E7A
ENCODING 7802
SWIDTH 693 0
DWIDTH 13 0
BBX 10 20 2 0
BITMAP
2600
2600
0000
1F00
1F00
0000
C0C0
C0C0
C0C0
C0C0
C0C0
C0C0
C0C0
C0C0
C0C0
C0C0
C0C0
E1C0
7F80
3F00
ENDCHAR
STARTCHAR uni1E7B
ENCODING 7803
SWIDTH 620 0
DWIDTH 12 0
BBX 8 16 2 0
BITMAP
26
26
00
3E
3E
00
C3
C3
C3
C3
C3
C3
C3
C7
FB
73
ENDCHAR
STARTCHAR uni1E7C
ENCODING 7804
SWIDTH 654 0
DWIDTH 12 0
BBX 12 17 0 0
BITMAP
1E80
1700
0000
C030
E030
6060
6060
30E0
30C0
30C0
19C0
1980
1D80
0F00
0F00
0700
0600
ENDCHAR
STARTCHAR uni1E7D
ENCODING 7805
SWIDTH 572 0
DWIDTH 10 0
BBX 10 13 0 0
BITMAP
3D00
2E00
0000
C0C0
E1C0
6180
6180
3300
3300
3E00
1E00
1E00
0C00
ENDCHAR
STARTCHAR uni1E7E
ENCODING 7806
SWIDTH 654 0
DWIDTH 12 0
BBX 12 17 0 -3
BITMAP
C030
E030
6060
6060
30E0
30C0
30C0
19C0
1980
1D80
0F00
0F00
0700
0600
0000
0600
0600
ENDCHAR
STARTCHAR uni1E7F
ENCODING 7807
SWIDTH 572 0
DWIDTH 10 0
BBX 10 13 0 -3
BITMAP
C0C0
E1C0
6180
6180
3300
3300
3E00
1E00
1E00
0C00
0000
0C00
0C00
ENDCHAR
STARTCHAR Wgrave
ENCODING 7808
SWIDTH 855 0
DWIDTH 16 0
BBX 16 18 0 0
BITMAP
0300
0180
00C0
0000
C183
C183
63C7
63C6
63C6
63C6
36EC
366C
366C
366C
1E78
1C38
1C38
1C38
ENDCHAR
STARTCHAR wgrave
ENCODING 7809
SWIDTH 840 0
DWIDTH 15 0
BBX 14 14 0 0
BITMAP
0C00
0600
0300
0000
C30C
C78C
6798
6798
6798
6CF0
3CF0
3CF0
38F0
3860
ENDCHAR
STARTCHAR Wacute
ENCODING 7810
SWIDTH 855 0
DWIDTH 16 0
BBX 16 18 0 0
BITMAP
0060
00C0
0180
0000
C183
C183
63C7
63C6
63C6
63C6
36EC
366C
366C
366C
1E78
1C38
1C38
1C38
ENDCHAR
STARTCHAR wacute
ENCODING 7811
SWIDTH 840 0
DWIDTH 15 0
BBX 14 14 0 0
BITMAP
00C0
0180
0300
0000
C30C
C78C
6798
6798
6798
6CF0
3CF0
3CF0
38F0
3860
ENDCHAR
STARTCHAR Wdieresis
ENCODING 7812
SWIDTH 855 0
DWIDTH 16 0
BBX 16 17 0 0
BITMAP
04C0
04C0
0000
C183
C183
63C7
63C6
63C6
63C6
36EC
366C
366C
366C
1E78
1C38
1C38
1C38
ENDCHAR
STARTCHAR wdieresis
ENCODING 7813
SWIDTH 840 0
DWIDTH 15 0
BBX 14 13 0 0
BITMAP
0980
0980
0000
C30C
C78C
6798
6798
6798
6CF0
3CF0
3CF0
38F0
3860
ENDCHAR
STARTCHAR uni1E86
ENCODING 7814
SWIDTH 855 0
DWIDTH 16 0
BBX 16 17 0 0
BITMAP
0180
0180
0000
C183
C183
63C7
63C6
63C6
63C6
36EC
366C
366C
366C
1E78
1C38
1C38
1C38
ENDCHAR
STARTCHAR uni1E87
ENCODING 7815
SWIDTH 840 0
DWIDTH 15 0
BBX 14 13 0 0
BITMAP
0300
0300
0000
C30C
C78C
6798
6798
6798
6CF0
3CF0
3CF0
38F0
3860
ENDCHAR
STARTCHAR uni1E88
ENCODING 7816
SWIDTH 855 0
DWIDTH 16 0
BBX 16 17 0 -3
BITMAP
C183
C183
63C7
63C6
63C6
63C6
36EC
366C
366C
366C
1E78
1C38
1C38
1C38
0000
0180
0180
ENDCHAR
STARTCHAR uni1E89
ENCODING 7817
SWIDTH 840 0
DWIDTH 15 0
BBX 14 13 0 -3
BITMAP
C30C
C78C
6798
6798
6798
6CF0
3CF0
3CF0
38F0
3860
0000
0300
0300
ENDCHAR
STARTCHAR uni1E8A
ENCODING 7818
SWIDTH 626 0
DWIDTH 12 0
BBX 11 17 0 0
BITMAP
0600
0600
0000
E0E0
60C0
31C0
3980
1B00
0F00
0E00
0E00
1F00
1B00
3180
71C0
60C0
C0E0
ENDCHAR
STARTCHAR uni1E8B
ENCODING 7819
SWIDTH 613 0
DWIDTH 12 0
BBX 10 13 1 0
BITMAP
0C00
0C00
0000
E1C0
7180
3300
1F00
1E00
1E00
3E00
3300
6380
E1C0
ENDCHAR
STARTCHAR uni1E8C
ENCODING 7820
SWIDTH 626 0
DWIDTH 12 0
BBX 11 17 0 0
BITMAP
1300
1300
0000
E0E0
60C0
31C0
3980
1B00
0F00
0E00
0E00
1F00
1B00
3180
71C0
60C0
C0E0
ENDCHAR
STARTCHAR uni1E8D
ENCODING 7821
SWIDTH 613 0
DWIDTH 12 0
BBX 10 13 1 0
BITMAP
2600
2600
0000
E1C0
7180
3300
1F00
1E00
1E00
3E00
3300
6380
E1C0
ENDCHAR
STARTCHAR uni1E8E
ENCODING 7822
SWIDTH 623 0
DWIDTH 12 0
BBX 12 17 0 0
BITMAP
0600
0600
0000
E030
6060
70E0
30C0
1980
1F80
0F00
0700
0600
0600
0600
0600
0600
0600
ENDCHAR
STARTCHAR uni1E8F
ENCODING 7823
SWIDTH 568 0
DWIDTH 10 0
BBX 10 17 0 -4
BITMAP
0C00
0C00
0000
C0C0
61C0
6180
6180
3300
3300
1F00
1E00
1E00
0C00
0C00
1C00
1800
3800
ENDCHAR
STARTCHAR uni1E90
ENCODING 7824
SWIDTH 605 0
DWIDTH 11 0
BBX 10 18 1 0
BITMAP
0C00
1E00
3300
0000
FFC0
FFC0
0180
0380
0300
0600
0E00
1C00
1800
3000
7000
E000
FFC0
FFC0
ENDCHAR
STARTCHAR uni1E91
ENCODING 7825
SWIDTH 573 0
DWIDTH 11 0
BBX 9 14 1 0
BITMAP
0C00
1E00
3300
0000
FF80
FF80
0300
0600
0C00
1800
3000
6000
FF80
FF80
ENDCHAR
STARTCHAR uni1E92
ENCODING 7826
SWIDTH 605 0
DWIDTH 11 0
BBX 10 17 1 -3
BITMAP
FFC0
FFC0
0180
0380
0300
0600
0E00
1C00
1800
3000
7000
E000
FFC0
FFC0
0000
0C00
0C00
ENDCHAR
STARTCHAR uni1E93
ENCODING 7827
SWIDTH 573 0
DWIDTH 11 0
BBX 9 13 1 -3
BITMAP
FF80
FF80
0300
0600
0C00
1800
3000
6000
FF80
FF80
0000
1800
1800
ENDCHAR
STARTCHAR uni1E94
ENCODING 7828
SWIDTH 605 0
DWIDTH 11 0
BBX 10 17 1 -3
BITMAP
FFC0
FFC0
0180
0380
0300
0600
0E00
1C00
1800
3000
7000
E000
FFC0
FFC0
0000
3E00
3E00
ENDCHAR
STARTCHAR uni1E95
ENCODING 7829
SWIDTH 573 0
DWIDTH 11 0
BBX 9 13 1 -3
BITMAP
FF80
FF80
0300
0600
0C00
1800
3000
6000
FF80
FF80
0000
3E00
3E00
ENDCHAR
STARTCHAR uni1E96
ENCODING 7830
SWIDTH 620 0
DWIDTH 12 0
BBX 8 17 2 -3
BITMAP
C0
C0
C0
C0
CE
DF
E3
C3
C3
C3
C3
C3
C3
C3
00
3E
3E
ENDCHAR
STARTCHAR uni1E97
ENCODING 7831
SWIDTH 374 0
DWIDTH 7 0
BBX 6 16 1 0
BITMAP
98
98
00
60
60
60
FC
FC
60
60
60
60
60
60
7C
3C
ENDCHAR
STARTCHAR uni1E98
ENCODING 7832
SWIDTH 840 0
DWIDTH 15 0
BBX 14 14 0 0
BITMAP
0380
0280
0380
0000
C30C
C78C
6798
6798
6798
6CF0
3CF0
3CF0
38F0
3860
ENDCHAR
STARTCHAR uni1E99
ENCODING 7833
SWIDTH 568 0
DWIDTH 10 0
BBX 10 18 0 -4
BITMAP
0E00
0A00
0E00
0000
C0C0
61C0
6180
6180
3300
3300
1F00
1E00
1E00
0C00
0C00
1C00
1800
3800
ENDCHAR
STARTCHAR uni1EA0
ENCODING 7840
SWIDTH 690 0
DWIDTH 13 0
BBX 13 17 0 -3
BITMAP
0700
0700
0F80
0D80
0D80
18C0
18C0
30E0
3FE0
3FE0
6030
6030
E030
C018
0000
0600
0600
ENDCHAR
STARTCHAR uni1EA1
ENCODING 7841
SWIDTH 552 0
DWIDTH 10 0
BBX 9 13 1 -3
BITMAP
3E00
7F00
4300
0300
3F00
7F00
C300
C300
FF80
7380
0000
0C00
0C00
ENDCHAR
STARTCHAR uni1EA4
ENCODING 7844
SWIDTH 690 0
DWIDTH 13 0
BBX 13 22 0 0
BITMAP
0180
0300
0600
0000
0300
0780
0CC0
0000
0700
0700
0F80
0D80
0D80
18C0
18C0
30E0
3FE0
3FE0
6030
6030
E030
C018
ENDCHAR
STARTCHAR uni1EA5
ENCODING 7845
SWIDTH 552 0
DWIDTH 10 0
BBX 9 18 1 0
BITMAP
0600
0C00
1800
0000
1800
3C00
6600
0000
3E00
7F00
4300
0300
3F00
7F00
C300
C300
FF80
7380
ENDCHAR
STARTCHAR uni1EA6
ENCODING 7846
SWIDTH 690 0
DWIDTH 13 0
BBX 13 22 0 0
BITMAP
0C00
0600
0300
0000
0300
0780
0CC0
0000
0700
0700
0F80
0D80
0D80
18C0
18C0
30E0
3FE0
3FE0
6030
6030
E030
C018
ENDCHAR
STARTCHAR uni1EA7
ENCODING 7847
SWIDTH 552 0
DWIDTH 10 0
BBX 9 18 1 0
BITMAP
3000
1800
0C00
0000
1800
3C00
6600
0000
3E00
7F00
4300
0300
3F00
7F00
C300
C300
FF80
7380
ENDCHAR
STARTCHAR uni1EAA
ENCODING 7850
SWIDTH 690 0
DWIDTH 13 0
BBX 13 21 0 0
BITMAP
0F40
0B80
0000
0300
0780
0CC0
0000
0700
0700
0F80
0D80
0D80
18C0
18C0
30E0
3FE0
3FE0
6030
6030
E030
C018
ENDCHAR
STARTCHAR uni1EAB
ENCODING 7851
SWIDTH 552 0
DWIDTH 10 0
BBX 9 17 1 0
BITMAP
7A00
5C00
0000
1800
3C00
6600
0000
3E00
7F00
4300
0300
3F00
7F00
C300
C300
FF80
7380
ENDCHAR
STARTCHAR uni1EAC
ENCODING 7852
SWIDTH 690 0
DWIDTH 13 0
BBX 13 21 0 -3
BITMAP
0300
0780
0CC0
0000
0700
0700
0F80
0D80
0D80
18C0
18C0
30E0
3FE0
3FE0
6030
6030
E030
C018
0000
0600
0600
ENDCHAR
STARTCHAR uni1EAD
ENCODING 7853
SWIDTH 552 0
DWIDTH 10 0
BBX 9 17 1 -3
BITMAP
0C00
1E00
3300
0000
3E00
7F00
4300
0300
3F00
7F00
C300
C300
FF80
7380
0000
0C00
0C00
ENDCHAR
STARTCHAR uni1EAE
ENCODING 7854
SWIDTH 690 0
DWIDTH 13 0
BBX 13 22 0 0
BITMAP
0180
0300
0600
0000
0840
0FC0
0780
0000
0700
0700
0F80
0D80
0D80
18C0
18C0
30E0
3FE0
3FE0
6030
6030
E030
C018
ENDCHAR
STARTCHAR uni1EAF
ENCODING 7855
SWIDTH 552 0
DWIDTH 10 0
BBX 9 18 1 0
BITMAP
0300
0600
0C00
0000
2100
3F00
1E00
0000
3E00
7F00
4300
0300
3F00
7F00
C300
C300
FF80
7380
ENDCHAR
STARTCHAR uni1EB0
ENCODING 7856
SWIDTH 690 0
DWIDTH 13 0
BBX 13 22 0 0
BITMAP
0C00
0600
0300
0000
0840
0FC0
0780
0000
0700
0700
0F80
0D80
0D80
18C0
18C0
30E0
3FE0
3FE0
6030
6030
E030
C018
ENDCHAR
STARTCHAR uni1EB1
ENCODING 7857
SWIDTH 552 0
DWIDTH 10 0
BBX 9 18 1 0
BITMAP
3000
1800
0C00
0000
2100
3F00
1E00
0000
3E00
7F00
4300
0300
3F00
7F00
C300
C300
FF80
7380
ENDCHAR
STARTCHAR uni1EB4
ENCODING 7860
SWIDTH 690 0
DWIDTH 13 0
BBX 13 21 0 0
BITMAP
0F40
0B80
0000
0840
0FC0
0780
0000
0700
0700
0F80
0D80
0D80
18C0
18C0
30E0
3FE0
3FE0
6030
6030
E030
C018
ENDCHAR
STARTCHAR uni1EB5
ENCODING 7861
SWIDTH 552 0
DWIDTH 10 0
BBX 9 17 1 0
BITMAP
3D00
2E00
0000
2100
3F00
1E00
0000
3E00
7F00
4300
0300
3F00
7F00
C300
C300
FF80
7380
ENDCHAR
STARTCHAR uni1EB6
ENCODING 7862
SWIDTH 690 0
DWIDTH 13 0
BBX 13 21 0 -3
BITMAP
0840
0FC0
0780
0000
0700
0700
0F80
0D80
0D80
18C0
18C0
30E0
3FE0
3FE0
6030
6030
E030
C018
0000
0600
0600
ENDCHAR
STARTCHAR uni1EB7
ENCODING 7863
SWIDTH 552 0
DWIDTH 10 0
BBX 9 17 1 -3
BITMAP
2100
3F00
1E00
0000
3E00
7F00
4300
0300
3F00
7F00
C300
C300
FF80
7380
0000
0C00
0C00
ENDCHAR
STARTCHAR uni1EB8
ENCODING 7864
SWIDTH 542 0
DWIDTH 10 0
BBX 8 17 2 -3
BITMAP
FF
FF
C0
C0
C0
C0
FE
FE
C0
C0
C0
C0
FF
FF
00
18
18
ENDCHAR
STARTCHAR uni1EB9
ENCODING 7865
SWIDTH 557 0
DWIDTH 11 0
BBX 8 13 1 -3
BITMAP
3C
7E
63
C3
FF
FF
C0
E1
7F
3E
00
18
18
ENDCHAR
STARTCHAR uni1EBC
ENCODING 7868
SWIDTH 542 0
DWIDTH 10 0
BBX 8 17 2 0
BITMAP
7A
5C
00
FF
FF
C0
C0
C0
C0
FE
FE
C0
C0
C0
C0
FF
FF
ENDCHAR
STARTCHAR uni1EBD
ENCODING 7869
SWIDTH 557 0
DWIDTH 11 0
BBX 8 13 1 0
BITMAP
7A
5C
00
3C
7E
63
C3
FF
FF
C0
E1
7F
3E
ENDCHAR
STARTCHAR uni1EBE
ENCODING 7870
SWIDTH 542 0
DWIDTH 10 0
BBX 8 22 2 0
BITMAP
0C
18
30
00
30
78
CC
00
FF
FF
C0
C0
C0
C0
FE
FE
C0
C0
C0
C0
FF
FF
ENDCHAR
STARTCHAR uni1EBF
ENCODING 7871
SWIDTH 557 0
DWIDTH 11 0
BBX 8 18 1 0
BITMAP
06
0C
18
00
18
3C
66
00
3C
7E
63
C3
FF
FF
C0
E1
7F
3E
ENDCHAR
STARTCHAR uni1EC0
ENCODING 7872
SWIDTH 542 0
DWIDTH 10 0
BBX 8 22 2 0
BITMAP
60
30
18
00
30
78
CC
00
FF
FF
C0
C0
C0
C0
FE
FE
C0
C0
C0
C0
FF
FF
ENDCHAR
STARTCHAR uni1EC1
ENCODING 7873
SWIDTH 557 0
DWIDTH 11 0
BBX 8 18 1 0
BITMAP
60
30
18
00
18
3C
66
00
3C
7E
63
C3
FF
FF
C0
E1
7F
3E
ENDCHAR
STARTCHAR uni1EC4
ENCODING 7876
SWIDTH 542 0
DWIDTH 10 0
BBX 8 21 2 0
BITMAP
7A
5C
00
30
78
CC
00
FF
FF
C0
C0
C0
C0
FE
FE
C0
C0
C0
C0
FF
FF
ENDCHAR
STARTCHAR uni1EC5
ENCODING 7877
SWIDTH 557 0
DWIDTH 11 0
BBX 8 17 1 0
BITMAP
7A
5C
00
18
3C
66
00
3C
7E
63
C3
FF
FF
C0
E1
7F
3E
ENDCHAR
STARTCHAR uni1EC6
ENCODING 7878
SWIDTH 542 0
DWIDTH 10 0
BBX 8 21 2 -3
BITMAP
30
78
CC
00
FF
FF
C0
C0
C0
C0
FE
FE
C0
C0
C0
C0
FF
FF
00
18
18
ENDCHAR
STARTCHAR uni1EC7
ENCODING 7879
SWIDTH 557 0
DWIDTH 11 0
BBX 8 17 1 -3
BITMAP
18
3C
66
00
3C
7E
63
C3
FF
FF
C0
E1
7F
3E
00
18
18
ENDCHAR
STARTCHAR uni1ECA
ENCODING 7882
SWIDTH 288 0
DWIDTH 5 0
BBX 2 17 2 -3
BITMAP
C0
C0
C0
C0
C0
C0
C0
C0
C0
C0
C0
C0
C0
C0
00
C0
C0
ENDCHAR
STARTCHAR uni1ECB
ENCODING 7883
SWIDTH 289 0
DWIDTH 5 0
BBX 2 17 2 -3
BITMAP
C0
C0
00
00
C0
C0
C0
C0
C0
C0
C0
C0
C0
C0
00
C0
C0
ENDCHAR
STARTCHAR uni1ECC
ENCODING 7884
SWIDTH 777 0
DWIDTH 15 0
BBX 13 17 1 -3
BITMAP
0F80
3FE0
7070
6030
E038
C018
C018
C018
C018
E038
6030
7070
3FE0
0F80
0000
0300
0300
ENDCHAR
STARTCHAR uni1ECD
ENCODING 7885
SWIDTH 614 0
DWIDTH 12 0
BBX 10 13 1 -3
BITMAP
1E00
7F80
6180
C0C0
C0C0
C0C0
C0C0
6180
7F80
1E00
0000
0C00
0C00
ENDCHAR
STARTCHAR uni1ED0
ENCODING 7888
SWIDTH 777 0
DWIDTH 15 0
BBX 13 22 1 0
BITMAP
0180
0300
0600
0000
0300
0780
0CC0
0000
0F80
3FE0
7070
6030
E038
C018
C018
C018
C018
E038
6030
7070
3FE0
0F80
ENDCHAR
STARTCHAR uni1ED1
ENCODING 7889
SWIDTH 614 0
DWIDTH 12 0
BBX 10 18 1 0
BITMAP
0300
0600
0C00
0000
0C00
1E00
3300
0000
1E00
7F80
6180
C0C0
C0C0
C0C0
C0C0
6180
7F80
1E00
ENDCHAR
STARTCHAR uni1ED2
ENCODING 7890
SWIDTH 777 0
DWIDTH 15 0
BBX 13 22 1 0
BITMAP
0C00
0600
0300
0000
0300
0780
0CC0
0000
0F80
3FE0
7070
6030
E038
C018
C018
C018
C018
E038
6030
7070
3FE0
0F80
ENDCHAR
STARTCHAR uni1ED3
ENCODING 7891
SWIDTH 614 0
DWIDTH 12 0
BBX 10 18 1 0
BITMAP
3000
1800
0C00
0000
0C00
1E00
3300
0000
1E00
7F80
6180
C0C0
C0C0
C0C0
C0C0
6180
7F80
1E00
ENDCHAR
STARTCHAR uni1ED6
ENCODING 7894
SWIDTH 777 0
DWIDTH 15 0
BBX 13 21 1 0
BITMAP
0F40
0B80
0000
0300
0780
0CC0
0000
0F80
3FE0
7070
6030
E038
C018
C018
C018
C018
E038
6030
7070
3FE0
0F80
ENDCHAR
STARTCHAR uni1ED7
ENCODING 7895
SWIDTH 614 0
DWIDTH 12 0
BBX 10 17 1 0
BITMAP
3D00
2E00
0000
0C00
1E00
3300
0000
1E00
7F80
6180
C0C0
C0C0
C0C0
C0C0
6180
7F80
1E00
ENDCHAR
STARTCHAR uni1ED8
ENCODING 7896
SWIDTH 777 0
DWIDTH 15 0
BBX 13 21 1 -3
BITMAP
0300
0780
0CC0
0000
0F80
3FE0
7070
6030
E038
C018
C018
C018
C018
E038
6030
7070
3FE0
0F80
0000
0300
0300
ENDCHAR
STARTCHAR uni1ED9
ENCODING 7897
SWIDTH 614 0
DWIDTH 12 0
BBX 10 17 1 -3
BITMAP
0C00
1E00
3300
0000
1E00
7F80
6180
C0C0
C0C0
C0C0
C0C0
6180
7F80
1E00
0000
0C00
0C00
ENDCHAR
STARTCHAR uni1EDA
ENCODING 7898
SWIDTH 777 0
DWIDTH 15 0
BBX 15 18 1 0
BITMAP
0060
00C0
0180
0000
0F8E
3FEE
7076
6036
E03C
C018
C018
C018
C018
E038
6030
7070
3FE0
0F80
ENDCHAR
STARTCHAR uni1EDB
ENCODING 7899
SWIDTH 614 0
DWIDTH 12 0
BBX 12 14 1 0
BITMAP
0180
0300
0600
0000
1E70
7FF0
61B0
C0F0
C0E0
C0C0
C0C0
6180
7F80
1E00
ENDCHAR
STARTCHAR uni1EDC
ENCODING 7900
SWIDTH 777 0
DWIDTH 15 0
BBX 15 18 1 0
BITMAP
0300
0180
00C0
0000
0F8E
3FEE
7076
6036
E03C
C018
C018
C018
C018
E038
6030
7070
3FE0
0F80
ENDCHAR
STARTCHAR uni1EDD
ENCODING 7901
SWIDTH 614 0
DWIDTH 12 0
BBX 12 14 1 0
BITMAP
0C00
0600
0300
0000
1E70
7FF0
61B0
C0F0
C0E0
C0C0
C0C0
6180
7F80
1E00
ENDCHAR
STARTCHAR uni1EE0
ENCODING 7904
SWIDTH 777 0
DWIDTH 15 0
BBX 15 17 1 0
BITMAP
07A0
05C0
0000
0F8E
3FEE
7076
6036
E03C
C018
C018
C018
C018
E038
6030
7070
3FE0
0F80
ENDCHAR
STARTCHAR uni1EE1
ENCODING 7905
SWIDTH 614 0
DWIDTH 12 0
BBX 12 13 1 0
BITMAP
0F40
0B80
0000
1E70
7FF0
61B0
C0F0
C0E0
C0C0
C0C0
6180
7F80
1E00
ENDCHAR
STARTCHAR uni1EE2
ENCODING 7906
SWIDTH 777 0
DWIDTH 15 0
BBX 15 17 1 -3
BITMAP
0F8E
3FEE
7076
6036
E03C
C018
C018
C018
C018
E038
6030
7070
3FE0
0F80
0000
0300
0300
ENDCHAR
STARTCHAR uni1EE3
ENCODING 7907
SWIDTH 614 0
DWIDTH 12 0
BBX 12 13 1 -3
BITMAP
1E70
7FF0
61B0
C0F0
C0E0
C0C0
C0C0
6180
7F80
1E00
0000
0C00
0C00
ENDCHAR
STARTCHAR uni1EE4
ENCODING 7908
SWIDTH 693 0
DWIDTH 13 0
BBX 10 17 2 -3
BITMAP
C0C0
C0C0
C0C0
C0C0
C0C0
C0C0
C0C0
C0C0
C0C0
C0C0
C0C0
E1C0
7F80
3F00
0000
0C00
0C00
ENDCHAR
STARTCHAR uni1EE5
ENCODING 7909
SWIDTH 620 0
DWIDTH 12 0
BBX 8 13 2 -3
BITMAP
C3
C3
C3
C3
C3
C3
C3
C7
FB
73
00
18
18
ENDCHAR
STARTCHAR uni1EE8
ENCODING 7912
SWIDTH 693 0
DWIDTH 13 0
BBX 12 18 2 0
BITMAP
0180
0300
0600
0000
C0F0
C0F0
C0F0
C0F0
C0E0
C0C0
C0C0
C0C0
C0C0
C0C0
C0C0
E1C0
7F80
3F00
ENDCHAR
STARTCHAR uni1EE9
ENCODING 7913
SWIDTH 620 0
DWIDTH 12 0
BBX 11 14 2 0
BITMAP
0180
0300
0600
0000
C3E0
C3E0
C360
C360
C3C0
C300
C300
C700
FB00
7300
ENDCHAR
STARTCHAR uni1EEA
ENCODING 7914
SWIDTH 693 0
DWIDTH 13 0
BBX 12 18 2 0
BITMAP
0C00
0600
0300
0000
C0F0
C0F0
C0F0
C0F0
C0E0
C0C0
C0C0
C0C0
C0C0
C0C0
C0C0
E1C0
7F80
3F00
ENDCHAR
STARTCHAR uni1EEB
ENCODING 7915
SWIDTH 620 0
DWIDTH 12 0
BBX 11 14 2 0
BITMAP
1800
0C00
0600
0000
C3E0
C3E0
C360
C360
C3C0
C300
C300
C700
FB00
7300
ENDCHAR
STARTCHAR uni1EEE
ENCODING 7918
SWIDTH 693 0
DWIDTH 13 0
BBX 12 17 2 0
BITMAP
0F40
0B80
0000
C0F0
C0F0
C0F0
C0F0
C0E0
C0C0
C0C0
C0C0
C0C0
C0C0
C0C0
E1C0
7F80
3F00
ENDCHAR
STARTCHAR uni1EEF
ENCODING 7919
SWIDTH 620 0
DWIDTH 12 0
BBX 11 13 2 0
BITMAP
1E80
1700
0000
C3E0
C3E0
C360
C360
C3C0
C300
C300
C700
FB00
7300
ENDCHAR
STARTCHAR uni1EF0
ENCODING 7920
SWIDTH 693 0
DWIDTH 13 0
BBX 12 17 2 -3
BITMAP
C0F0
C0F0
C0F0
C0F0
C0E0
C0C0
C0C0
C0C0
C0C0
C0C0
C0C0
E1C0
7F80
3F00
0000
0C00
0C00
ENDCHAR
STARTCHAR uni1EF1
ENCODING 7921
SWIDTH 620 0
DWIDTH 12 0
BBX 11 13 2 -3
BITMAP
C3E0
C3E0
C360
C360
C3C0
C300
C300
C700
FB00
7300
0000
0C00
0C00
ENDCHAR
STARTCHAR Ygrave
ENCODING 7922
SWIDTH 623 0
DWIDTH 12 0
BBX 12 18 0 0
BITMAP
1800
0C00
0600
0000
E030
6060
70E0
30C0
1980
1F80
0F00
0700
0600
0600
0600
0600
0600
0600
ENDCHAR
STARTCHAR ygrave
ENCODING 7923
SWIDTH 568 0
DWIDTH 10 0
BBX 10 18 0 -4
BITMAP
1800
0C00
0600
0000
C0C0
61C0
6180
6180
3300
3300
1F00
1E00
1E00
0C00
0C00
1C00
1800
3800
ENDCHAR
STARTCHAR uni1EF4
ENCODING 7924
SWIDTH 623 0
DWIDTH 12 0
BBX 12 17 0 -3
BITMAP
E030
6060
70E0
30C0
1980
1F80
0F00
0700
0600
0600
0600
0600
0600
0600
0000
0600
0600
ENDCHAR
STARTCHAR uni1EF5
ENCODING 7925
SWIDTH 568 0
DWIDTH 10 0
BBX 10 17 0 -7
BITMAP
C0C0
61C0
6180
6180
3300
3300
1F00
1E00
1E00
0C00
0C00
1C00
1800
3800
0000
1800
1800
ENDCHAR
STARTCHAR uni1EF8
ENCODING 7928
SWIDTH 623 0
DWIDTH 12 0
BBX 12 17 0 0
BITMAP
1E80
1700
0000
E030
6060
70E0
30C0
1980
1F80
0F00
0700
0600
0600
0600
0600
0600
0600
ENDCHAR
STARTCHAR uni1EF9
ENCODING 7929
SWIDTH 568 0
DWIDTH 10 0
BBX 10 17 0 -4
BITMAP
3D00
2E00
0000
C0C0
61C0
6180
6180
3300
3300
1F00
1E00
1E00
0C00
0C00
1C00
1800
3800
ENDCHAR
STARTCHAR uni2000
ENCODING 8192
SWIDTH 500 0
DWIDTH 10 0
BBX 1 1 0 0
BITMAP
00
ENDCHAR
STARTCHAR uni2001
ENCODING 8193
SWIDTH 1000 0
DWIDTH 20 0
BBX 1 1 0 0
BITMAP
00
ENDCHAR
STARTCHAR uni2002
ENCODING 8194
SWIDTH 500 0
DWIDTH 10 0
BBX 1 1 0 0
BITMAP
00
ENDCHAR
STARTCHAR uni2003
ENCODING 8195
SWIDTH 1000 0
DWIDTH 20 0
BBX 1 1 0 0
BITMAP
00
ENDCHAR
STARTCHAR uni2004
ENCODING 8196
SWIDTH 333 0
DWIDTH 7 0
BBX 1 1 0 0
BITMAP
00
ENDCHAR
STARTCHAR uni2005
ENCODING 8197
SWIDTH 250 0
DWIDTH 5 0
BBX 1 1 0 0
BITMAP
00
ENDCHAR
STARTCHAR uni2006
ENCODING 8198
SWIDTH 167 0
DWIDTH 3 0
BBX 1 1 0 0
BITMAP
00
ENDCHAR
STARTCHAR uni2007
ENCODING 8199
SWIDTH 633 0
DWIDTH 12 0
BBX 1 1 0 0
BITMAP
00
ENDCHAR
STARTCHAR uni2008
ENCODING 8200
SWIDTH 316 0
DWIDTH 6 0
BBX 1 1 0 0
BITMAP
00
ENDCHAR
STARTCHAR uni2009
ENCODING 8201
SWIDTH 200 0
DWIDTH 4 0
BBX 1 1 0 0
BITMAP
00
ENDCHAR
STARTCHAR uni200A
ENCODING 8202
SWIDTH 100 0
DWIDTH 2 0
BBX 1 1 0 0
BITMAP
00
ENDCHAR
STARTCHAR uni200B
ENCODING 8203
SWIDTH 0 0
DWIDTH 0 0
BBX 1 1 0 0
BITMAP
00
ENDCHAR
STARTCHAR uni2010
ENCODING 8208
SWIDTH 325 0
DWIDTH 6 0
BBX 4 2 1 5
BITMAP
F0
F0
ENDCHAR
STARTCHAR uni2011
ENCODING 8209
SWIDTH 325 0
DWIDTH 6 0
BBX 4 2 1 5
BITMAP
F0
F0
ENDCHAR
STARTCHAR figuredash
ENCODING 8210
SWIDTH 500 0
DWIDTH 10 0
BBX 8 2 1 5
BITMAP
FF
FF
ENDCHAR
STARTCHAR endash
ENCODING 8211
SWIDTH 500 0
DWIDTH 10 0
BBX 8 2 1 5
BITMAP
FF
FF
ENDCHAR
STARTCHAR emdash
ENCODING 8212
SWIDTH 1000 0
DWIDTH 19 0
BBX 17 2 1 4
BITMAP
FFFF80
FFFF80
ENDCHAR
STARTCHAR afii00208
ENCODING 8213
SWIDTH 1000 0
DWIDTH 19 0
BBX 17 2 1 4
BITMAP
FFFF80
FFFF80
ENDCHAR
STARTCHAR quoteleft
ENCODING 8216
SWIDTH 229 0
DWIDTH 4 0
BBX 3 5 1 9
BITMAP
60
C0
C0
E0
E0
ENDCHAR
STARTCHAR quoteright
ENCODING 8217
SWIDTH 229 0
DWIDTH 4 0
BBX 3 5 1 9
BITMAP
E0
E0
60
60
C0
ENDCHAR
STARTCHAR quotesinglbase
ENCODING 8218
SWIDTH 229 0
DWIDTH 4 0
BBX 2 7 1 -4
BITMAP
C0
C0
C0
C0
C0
C0
80
ENDCHAR
STARTCHAR quotereversed
ENCODING 8219
SWIDTH 229 0
DWIDTH 4 0
BBX 3 5 1 9
BITMAP
E0
E0
C0
C0
60
ENDCHAR
STARTCHAR quotedblleft
ENCODING 8220
SWIDTH 373 0
DWIDTH 7 0
BBX 5 5 1 9
BITMAP
58
F0
F0
F8
F8
ENDCHAR
STARTCHAR quotedblright
ENCODING 8221
SWIDTH 373 0
DWIDTH 7 0
BBX 5 5 1 9
BITMAP
F8
F8
78
78
D0
ENDCHAR
STARTCHAR quotedblbase
ENCODING 8222
SWIDTH 373 0
DWIDTH 7 0
BBX 5 6 1 -4
BITMAP
F8
F8
78
78
78
D0
ENDCHAR
STARTCHAR uni201F
ENCODING 8223
SWIDTH 373 0
DWIDTH 7 0
BBX 5 5 1 9
BITMAP
F8
F8
F0
F0
58
ENDCHAR
STARTCHAR dagger
ENCODING 8224
SWIDTH 633 0
DWIDTH 12 0
BBX 8 18 2 -4
BITMAP
18
18
18
18
18
FF
FF
18
18
18
18
18
18
18
18
18
18
18
ENDCHAR
STARTCHAR daggerdbl
ENCODING 8225
SWIDTH 633 0
DWIDTH 12 0
BBX 8 18 2 -4
BITMAP
18
18
18
18
18
FF
FF
18
18
18
18
FF
FF
18
18
18
18
18
ENDCHAR
STARTCHAR bullet
ENCODING 8226
SWIDTH 633 0
DWIDTH 12 0
BBX 6 6 3 3
BITMAP
FC
FC
FC
FC
FC
FC
ENDCHAR
STARTCHAR ellipsis
ENCODING 8230
SWIDTH 1000 0
DWIDTH 19 0
BBX 14 2 3 0
BITMAP
C30C
C30C
ENDCHAR
STARTCHAR perthousand
ENCODING 8240
SWIDTH 1012 0
DWIDTH 19 0
BBX 18 14 1 0
BITMAP
783000
FC6000
CCE000
CDC000
FD8000
7B0000
07E780
0FE780
0F3CC0
1B3CC0
3B3CC0
733CC0
61E780
C1E780
ENDCHAR
STARTCHAR guilsinglleft
ENCODING 8249
SWIDTH 331 0
DWIDTH 6 0
BBX 5 9 1 0
BITMAP
18
38
70
E0
C0
E0
70
38
18
ENDCHAR
STARTCHAR guilsinglright
ENCODING 8250
SWIDTH 331 0
DWIDTH 6 0
BBX 5 9 0 0
BITMAP
C0
E0
70
38
18
38
70
E0
C0
ENDCHAR
STARTCHAR fraction
ENCODING 8260
SWIDTH 36 0
DWIDTH 1 0
BBX 12 14 -5 0
BITMAP
0030
0060
00C0
01C0
0180
0300
0700
0E00
0C00
1800
3800
3000
6000
C000
ENDCHAR
STARTCHAR oneinferior
ENCODING 8321
SWIDTH 422 0
DWIDTH 7 0
BBX 2 8 -13 -4
BITMAP
C0
40
40
40
40
40
40
40
ENDCHAR
STARTCHAR twoinferior
ENCODING 8322
SWIDTH 422 0
DWIDTH 7 0
BBX 5 8 -12 -4
BITMAP
70
88
08
18
30
60
C0
F8
ENDCHAR
STARTCHAR threeinferior
ENCODING 8323
SWIDTH 422 0
DWIDTH 7 0
BBX 5 8 -12 -4
BITMAP
F0
08
08
70
08
08
08
F0
ENDCHAR
STARTCHAR uni20A5
ENCODING 8357
SWIDTH 934 0
DWIDTH 18 0
BBX 14 18 2 -4
BITMAP
0030
0030
0060
0060
CEF8
DFFC
E3CC
C38C
C38C
C30C
C30C
C70C
C70C
C70C
0C00
0C00
1800
1800
ENDCHAR
STARTCHAR uni20A6
ENCODING 8358
SWIDTH 741 0
DWIDTH 14 0
BBX 11 14 2 0
BITMAP
C0C0
E0C0
F0C0
F0C0
FFE0
FFE0
CCC0
FFE0
FFE0
C7C0
C3C0
C3C0
C1C0
C0C0
ENDCHAR
STARTCHAR uni20A9
ENCODING 8361
SWIDTH 855 0
DWIDTH 16 0
BBX 16 14 0 0
BITMAP
C183
C183
63C7
63C6
7FFE
7FFE
36EC
3FFC
3FFC
366C
1E78
1C38
1C38
1C38
ENDCHAR
STARTCHAR Euro
ENCODING 8364
SWIDTH 692 0
DWIDTH 13 0
BBX 14 14 -2 0
BITMAP
01F8
07FC
0E04
0C00
FFE0
FFE0
1800
FFE0
FFE0
1800
0C00
0E04
07FC
01F8
ENDCHAR
STARTCHAR uni20AD
ENCODING 8365
SWIDTH 653 0
DWIDTH 12 0
BBX 10 14 2 0
BITMAP
C180
C300
C700
CE00
CC00
D800
FFC0
FFC0
DC00
CC00
C600
C300
C380
C1C0
ENDCHAR
STARTCHAR uni2103
ENCODING 8451
SWIDTH 955 0
DWIDTH 18 0
BBX 16 14 1 0
BITMAP
407E
A1FF
A381
4300
0700
0600
0600
0600
0600
0600
0300
0381
01FF
007E
ENDCHAR
STARTCHAR uni2109
ENCODING 8457
SWIDTH 799 0
DWIDTH 15 0
BBX 14 14 1 0
BITMAP
43FC
A3FC
A300
4300
0300
0300
03F8
03F8
0300
0300
0300
0300
0300
0300
ENDCHAR
STARTCHAR trademark
ENCODING 8482
SWIDTH 807 0
DWIDTH 15 0
BBX 14 8 0 6
BITMAP
FDDC
FDDC
31DC
31FC
31FC
31FC
31FC
318C
ENDCHAR
STARTCHAR uni212A
ENCODING 8490
SWIDTH 653 0
DWIDTH 12 0
BBX 10 14 2 0
BITMAP
C180
C300
C700
CE00
CC00
D800
F800
F800
DC00
CC00
C600
C300
C380
C1C0
ENDCHAR
STARTCHAR uni212B
ENCODING 8491
SWIDTH 690 0
DWIDTH 13 0
BBX 13 18 0 0
BITMAP
0700
0500
0700
0000
0700
0700
0F80
0D80
0D80
18C0
18C0
30E0
3FE0
3FE0
6030
6030
E030
C018
ENDCHAR
STARTCHAR uni2132
ENCODING 8498
SWIDTH 536 0
DWIDTH 10 0
BBX 8 14 2 0
BITMAP
03
03
03
03
03
03
7F
7F
03
03
03
03
FF
FF
ENDCHAR
STARTCHAR universal
ENCODING 8704
SWIDTH 690 0
DWIDTH 13 0
BBX 13 14 0 0
BITMAP
C018
E030
6030
6030
3FE0
3FE0
30E0
18C0
18C0
0D80
0D80
0F80
0700
0700
ENDCHAR
STARTCHAR existential
ENCODING 8707
SWIDTH 542 0
DWIDTH 10 0
BBX 8 14 2 0
BITMAP
FF
FF
03
03
03
03
7F
7F
03
03
03
03
FF
FF
ENDCHAR
STARTCHAR uni2204
ENCODING 8708
SWIDTH 542 0
DWIDTH 10 0
BBX 9 18 2 -2
BITMAP
0180
0180
FF00
FF00
0700
0700
0F00
0F00
7F00
7F00
1B00
3B00
3300
3300
FF00
FF00
C000
C000
ENDCHAR
STARTCHAR minus
ENCODING 8722
SWIDTH 633 0
DWIDTH 12 0
BBX 11 2 1 5
BITMAP
FFE0
FFE0
ENDCHAR
STARTCHAR fraction
ENCODING 8725
SWIDTH 36 0
DWIDTH 1 0
BBX 12 14 -5 0
BITMAP
0030
0060
00C0
01C0
0180
0300
0700
0E00
0C00
1800
3800
3000
6000
C000
ENDCHAR
STARTCHAR periodcentered
ENCODING 8729
SWIDTH 316 0
DWIDTH 12 0
BBX 2 2 5 5
BITMAP
C0
C0
ENDCHAR
STARTCHAR uni2236
ENCODING 8758
SWIDTH 316 0
DWIDTH 6 0
BBX 2 10 2 0
BITMAP
C0
C0
00
00
00
00
00
00
C0
C0
ENDCHAR
STARTCHAR uni2259
ENCODING 8793
SWIDTH 633 0
DWIDTH 12 0
BBX 11 9 1 3
BITMAP
0600
0F00
1980
0000
FFE0
FFE0
0000
FFE0
FFE0
ENDCHAR
STARTCHAR uni225A
ENCODING 8794
SWIDTH 633 0
DWIDTH 12 0
BBX 11 9 1 3
BITMAP
1980
0F00
0600
0000
FFE0
FFE0
0000
FFE0
FFE0
ENDCHAR
STARTCHAR notequal
ENCODING 8800
SWIDTH 633 0
DWIDTH 12 0
BBX 11 18 1 -3
BITMAP
00C0
00C0
0180
0180
0300
0300
0700
FFE0
FFE0
0C00
FFE0
FFE0
1800
1800
3000
3000
6000
6000
ENDCHAR
STARTCHAR equivalence
ENCODING 8801
SWIDTH 633 0
DWIDTH 12 0
BBX 11 8 0 2
BITMAP
FFE0
FFE0
0000
FFE0
FFE0
0000
FFE0
FFE0
ENDCHAR
STARTCHAR uni2262
ENCODING 8802
SWIDTH 633 0
DWIDTH 12 0
BBX 11 18 0 -3
BITMAP
00C0
00C0
0180
0180
0300
FFE0
FFE0
0600
FFE0
FFE0
0C00
FFE0
FFE0
1800
3000
3000
6000
6000
ENDCHAR
STARTCHAR lessequal
ENCODING 8804
SWIDTH 633 0
DWIDTH 12 0
BBX 12 15 2 -3
BITMAP
0010
0070
01E0
0780
1E00
FC00
7C00
1E00
0780
01E0
0070
0010
0000
FFF0
FFF0
ENDCHAR
STARTCHAR greaterequal
ENCODING 8805
SWIDTH 633 0
DWIDTH 12 0
BBX 12 15 1 -3
BITMAP
8000
E000
7800
1E00
0780
03E0
03F0
0780
1E00
7800
E000
8000
0000
FFF0
FFF0
ENDCHAR
STARTCHAR uni226E
ENCODING 8814
SWIDTH 633 0
DWIDTH 12 0
BBX 12 18 2 -3
BITMAP
0060
0060
00C0
00D0
01F0
01E0
0780
1F00
FF00
7E00
1E00
0F80
0DE0
0C70
1810
1800
3000
3000
ENDCHAR
STARTCHAR uni226F
ENCODING 8815
SWIDTH 633 0
DWIDTH 12 0
BBX 12 18 1 -3
BITMAP
0060
0060
00C0
80C0
E180
7980
1F80
0780
03E0
07F0
0780
1E00
7C00
EC00
9800
1800
3000
3000
ENDCHAR
STARTCHAR uni2270
ENCODING 8816
SWIDTH 633 0
DWIDTH 12 0
BBX 12 18 2 -4
BITMAP
0060
0060
00D0
00F0
01E0
0780
1F80
FF00
7F00
1E00
0780
0FE0
0C70
0C10
1800
FFF0
FFF0
3000
ENDCHAR
STARTCHAR uni2271
ENCODING 8817
SWIDTH 633 0
DWIDTH 12 0
BBX 12 18 1 -4
BITMAP
0060
0060
80C0
E0C0
7980
1F80
0780
03E0
03F0
0780
1E00
7E00
EC00
8C00
1800
FFF0
FFF0
3000
ENDCHAR
STARTCHAR fi
ENCODING -1
SWIDTH 645 0
DWIDTH 12 0
BBX 9 15 1 0
BITMAP
3C00
3D80
6180
6000
6000
FF80
FF80
6180
6180
6180
6180
6180
6180
6180
6180
ENDCHAR
STARTCHAR fl
ENCODING -1
SWIDTH 645 0
DWIDTH 12 0
BBX 9 15 1 0
BITMAP
3F80
7F80
6180
6180
6180
F980
F980
6180
6180
6180
6180
6180
6180
6180
6180
ENDCHAR
ENDFONT
